<!-- Generated by IcoMoon.io -->
<svg version="1.1" xmlns="http://www.w3.org/2000/svg" width="25" height="32" viewBox="0 0 25 32">
<title>BG-shapw-2</title>
<path d="M-20.563 6.454c0.186 0.525 0.763 0.799 1.287 0.612s0.798-0.763 0.612-1.288-0.763-0.799-1.287-0.612c-0.524 0.187-0.798 0.763-0.611 1.288zM-19.197 14.95c0.278 0.783 1.138 1.191 1.92 0.913s1.19-1.139 0.912-1.921c-0.278-0.783-1.138-1.191-1.92-0.913s-1.19 1.139-0.912 1.921zM-13.307-10.118c0.737-0.262 1.121-1.072 0.859-1.81s-1.072-1.122-1.808-0.86c-0.737 0.262-1.121 1.072-0.859 1.809s1.072 1.122 1.808 0.86zM-9.893-3.747c0.262 0.737 1.072 1.122 1.808 0.86s1.121-1.072 0.859-1.81c-0.262-0.737-1.072-1.122-1.808-0.86s-1.121 1.072-0.859 1.81zM-0.987 30.415c0.244 0.686 0.998 1.045 1.684 0.801s1.044-0.999 0.8-1.685c-0.244-0.687-0.998-1.045-1.684-0.801s-1.044 0.999-0.8 1.685zM2.642 20.036c1.263-0.45 1.922-1.838 1.473-3.102s-1.837-1.923-3.1-1.474c-1.263 0.45-1.922 1.838-1.473 3.102s1.837 1.923 3.1 1.474zM13.159 25.558c0.223 0.627 0.911 0.954 1.538 0.731s0.954-0.912 0.731-1.539c-0.223-0.627-0.911-0.954-1.538-0.731s-0.954 0.912-0.731 1.539zM12.331-10.877c0.541 1.522 2.213 2.316 3.733 1.775s2.315-2.214 1.774-3.736c-0.541-1.522-2.213-2.317-3.733-1.775s-2.315 2.214-1.774 3.736zM-20.506 4.706c0-0-0-0-0-0 4.818-3.128 7.050-9.258 5.040-14.909-0.045-0.125-0.092-0.249-0.14-0.372-0.031-0.064-0.058-0.13-0.083-0.198-0.375-1.054 0.175-2.212 1.228-2.587 0.989-0.352 2.069 0.111 2.508 1.041 0.001-0.001 0.002-0.001 0.003-0.002 2.771 5.787 9.519 8.662 15.695 6.463 3.592-1.279 6.248-4.011 7.548-7.301 0.383-1.115 1.251-2.052 2.447-2.478 2.086-0.743 4.378 0.347 5.12 2.435 0.555 1.562 0.085 3.239-1.061 4.296 0.006 0.007 0.012 0.014 0.018 0.021-1.773 2.18-2.398 5.206-1.388 8.047 1.098 3.088 3.832 5.123 6.88 5.477 0.825 0.021 1.591 0.542 1.884 1.367 0.381 1.070-0.178 2.247-1.247 2.627-0.495 0.176-1.012 0.151-1.463-0.033-0.001 0.002-0.002 0.004-0.003 0.006-1.767-0.658-3.766-0.722-5.681-0.040-4.326 1.54-6.585 6.299-5.046 10.628 0.657 1.847 1.9 3.316 3.445 4.275 0.403 0.217 0.729 0.578 0.895 1.043 0.354 0.995-0.165 2.088-1.16 2.442-0.878 0.313-1.833-0.056-2.287-0.832-1.434-2.072-4.125-3.014-6.611-2.129-2.509 0.894-4.007 3.363-3.776 5.9-0.002 0-0.004 0-0.007 0.001 0.033 0.851-0.484 1.661-1.328 1.962-1.040 0.37-2.183-0.173-2.553-1.214-0.127-0.357-0.146-0.727-0.075-1.073-0.002 0-0.004 0.001-0.006 0.001 0.009-0.028 0.016-0.055 0.025-0.083 0.013-0.051 0.028-0.102 0.044-0.151 0.602-2.114 0.576-4.428-0.216-6.656-2.024-5.692-8.275-8.664-13.963-6.639-0.279 0.099-0.551 0.21-0.817 0.329-0.123 0.073-0.255 0.136-0.394 0.185-1.165 0.415-2.446-0.194-2.86-1.36-0.217-0.61-0.153-1.251 0.123-1.783 0.55-1.278 0.639-2.759 0.136-4.174-0.276-0.777-0.704-1.457-1.238-2.019 0.002-0.001 0.003-0.002 0.004-0.003-0.136-0.155-0.246-0.337-0.319-0.543-0.266-0.749 0.034-1.561 0.678-1.969z"></path>
</svg>
