<!-- Generated by IcoMoon.io -->
<svg version="1.1" xmlns="http://www.w3.org/2000/svg" width="30" height="32" viewBox="0 0 30 32">
<title>BG-shape-1</title>
<path d="M29.089 18.153c-0.173 0.312-0.572 0.425-0.884 0.243-0.312-0.173-0.416-0.572-0.243-0.884s0.572-0.425 0.884-0.243c0.312 0.173 0.425 0.572 0.243 0.884zM27.278 23.378c-0.26 0.468-0.849 0.624-1.317 0.364s-0.624-0.858-0.364-1.317c0.26-0.468 0.849-0.624 1.317-0.364s0.633 0.849 0.364 1.317zM26.35 6.854c-0.433-0.251-0.589-0.806-0.338-1.239s0.806-0.589 1.239-0.347c0.433 0.251 0.589 0.806 0.338 1.239-0.251 0.442-0.806 0.589-1.239 0.347zM23.474 10.502c-0.251 0.433-0.806 0.589-1.239 0.347-0.433-0.251-0.589-0.806-0.338-1.239s0.806-0.589 1.239-0.347c0.433 0.243 0.589 0.806 0.338 1.239zM14.020 31.134c-0.234 0.407-0.745 0.546-1.152 0.321-0.407-0.234-0.546-0.745-0.321-1.152 0.234-0.407 0.745-0.546 1.152-0.321 0.416 0.234 0.555 0.745 0.321 1.152zM12.885 24.158c-0.745-0.425-1.014-1.378-0.589-2.132s1.378-1.014 2.123-0.589c0.745 0.425 1.014 1.378 0.589 2.132s-1.378 1.014-2.123 0.589zM5.606 26.48c-0.208 0.373-0.685 0.503-1.057 0.295s-0.503-0.685-0.295-1.057c0.208-0.373 0.685-0.503 1.057-0.295s0.511 0.685 0.295 1.057zM10.199 3.509c-0.511 0.901-1.664 1.222-2.565 0.711s-1.222-1.664-0.702-2.565c0.511-0.901 1.664-1.222 2.565-0.711s1.213 1.664 0.702 2.565zM29.253 17.035c0 0 0 0 0 0-2.704-2.522-3.431-6.646-1.525-9.999 0.043-0.078 0.087-0.147 0.13-0.217 0.026-0.035 0.052-0.078 0.078-0.113 0.355-0.624 0.139-1.421-0.485-1.776-0.589-0.329-1.326-0.165-1.707 0.381 0 0 0 0 0 0-2.4 3.353-6.993 4.419-10.658 2.34-2.132-1.213-3.509-3.241-3.96-5.468-0.121-0.745-0.563-1.438-1.274-1.846-1.239-0.702-2.807-0.269-3.509 0.971-0.529 0.927-0.416 2.045 0.191 2.842-0.009 0-0.009 0.009-0.017 0.009 0.875 1.577 0.936 3.561-0.017 5.251-1.040 1.828-2.998 2.816-4.965 2.704-0.529-0.078-1.066 0.165-1.343 0.659-0.364 0.633-0.139 1.438 0.494 1.802 0.295 0.165 0.624 0.208 0.927 0.139 0 0 0 0 0 0.009 1.196-0.217 2.461-0.035 3.605 0.607 2.565 1.456 3.466 4.722 2.010 7.296-0.624 1.1-1.577 1.889-2.66 2.322-0.277 0.095-0.529 0.286-0.685 0.563-0.338 0.589-0.13 1.343 0.459 1.672 0.52 0.295 1.17 0.165 1.542-0.269 1.135-1.152 2.946-1.447 4.419-0.607 1.49 0.849 2.158 2.574 1.733 4.159 0 0 0 0 0 0-0.113 0.537 0.121 1.109 0.624 1.386 0.615 0.347 1.404 0.13 1.75-0.485 0.121-0.208 0.173-0.442 0.165-0.667 0 0 0 0 0 0 0-0.017 0-0.035-0.009-0.052 0-0.035-0.009-0.069-0.009-0.104-0.147-1.404 0.13-2.868 0.884-4.194 1.915-3.379 6.204-4.558 9.584-2.643 0.165 0.095 0.329 0.191 0.477 0.303 0.069 0.061 0.147 0.113 0.225 0.165 0.693 0.39 1.568 0.147 1.967-0.546 0.208-0.364 0.234-0.771 0.121-1.144-0.208-0.866-0.095-1.82 0.381-2.66 0.26-0.459 0.607-0.84 1.005-1.144 0 0 0 0 0 0 0.104-0.087 0.191-0.182 0.26-0.312 0.251-0.451 0.156-1.005-0.208-1.334z"></path>
</svg>
