<!-- Generated by IcoMoon.io -->
<svg version="1.1" xmlns="http://www.w3.org/2000/svg" width="58" height="32" viewBox="0 0 58 32">
<title>BG-shape-2</title>
<path d="M61.59 38.484c-0.321 0.903-1.314 1.374-2.218 1.053s-1.375-1.314-1.054-2.217c0.322-0.903 1.315-1.374 2.218-1.053s1.375 1.314 1.054 2.217zM59.237 53.107c-0.48 1.347-1.961 2.050-3.308 1.571s-2.051-1.96-1.572-3.307c0.479-1.347 1.96-2.050 3.308-1.571s2.051 1.96 1.572 3.307zM49.087 9.963c-1.269-0.451-1.932-1.846-1.48-3.114s1.847-1.931 3.116-1.48c1.269 0.451 1.932 1.846 1.48 3.114s-1.847 1.931-3.116 1.48zM43.205 20.929c-0.452 1.269-1.847 1.931-3.116 1.48s-1.932-1.846-1.48-3.114c0.452-1.269 1.846-1.931 3.116-1.48s1.932 1.846 1.48 3.114zM27.86 79.725c-0.421 1.182-1.72 1.799-2.902 1.378s-1.799-1.719-1.379-2.901c0.421-1.182 1.72-1.799 2.902-1.378s1.799 1.719 1.379 2.901zM21.607 61.86c-2.176-0.774-3.312-3.164-2.538-5.338s3.165-3.31 5.341-2.536c2.175 0.774 3.312 3.164 2.537 5.338s-3.165 3.31-5.341 2.536zM3.485 71.365c-0.384 1.079-1.571 1.642-2.65 1.258s-1.643-1.57-1.259-2.649c0.384-1.079 1.571-1.642 2.65-1.258s1.643 1.57 1.259 2.649zM4.912 8.656c-0.932 2.619-3.812 3.987-6.433 3.055s-3.988-3.811-3.056-6.43c0.932-2.619 3.812-3.987 6.433-3.055s3.989 3.811 3.056 6.43zM61.492 35.477c0-0 0-0 0-0-8.302-5.384-12.148-15.933-8.685-25.66 0.077-0.216 0.158-0.428 0.241-0.64 0.053-0.11 0.101-0.224 0.142-0.342 0.646-1.814-0.302-3.808-2.117-4.453-1.703-0.606-3.565 0.192-4.321 1.792-0.002-0.001-0.004-0.002-0.006-0.003-4.775 9.959-16.402 14.908-27.043 11.124-6.189-2.201-10.766-6.904-13.006-12.565-0.66-1.919-2.155-3.532-4.217-4.265-3.594-1.278-7.544 0.598-8.823 4.19-0.957 2.688-0.146 5.576 1.828 7.394-0.010 0.012-0.021 0.024-0.031 0.036 3.054 3.752 4.133 8.96 2.392 13.851-1.892 5.315-6.604 8.817-11.855 9.427-1.422 0.036-2.741 0.932-3.247 2.352-0.656 1.842 0.307 3.867 2.149 4.522 0.852 0.303 1.744 0.26 2.521-0.056 0.002 0.004 0.004 0.007 0.005 0.011 3.045-1.132 6.489-1.242 9.789-0.068 7.454 2.651 11.347 10.841 8.695 18.292-1.132 3.179-3.275 5.707-5.936 7.358-0.694 0.373-1.257 0.994-1.541 1.794-0.61 1.712 0.285 3.594 1.998 4.204 1.513 0.538 3.158-0.097 3.942-1.432 2.47-3.566 7.107-5.187 11.391-3.664 4.324 1.538 6.904 5.788 6.507 10.155 0.004 0 0.008 0.001 0.011 0.001-0.057 1.465 0.834 2.859 2.288 3.376 1.792 0.637 3.762-0.298 4.399-2.089 0.219-0.615 0.252-1.251 0.13-1.846 0.003 0.001 0.006 0.001 0.010 0.002-0.015-0.047-0.028-0.095-0.043-0.142-0.022-0.088-0.048-0.175-0.077-0.261-1.037-3.637-0.993-7.621 0.372-11.456 3.487-9.796 14.259-14.912 24.060-11.426 0.481 0.171 0.95 0.361 1.407 0.566 0.212 0.126 0.439 0.233 0.679 0.319 2.008 0.714 4.214-0.334 4.928-2.341 0.374-1.049 0.264-2.153-0.211-3.069-0.947-2.2-1.101-4.748-0.235-7.183 0.476-1.338 1.213-2.507 2.132-3.475-0.003-0.002-0.005-0.003-0.008-0.005 0.235-0.266 0.424-0.58 0.55-0.935 0.459-1.289-0.059-2.687-1.169-3.389z"></path>
</svg>
