<!-- Generated by IcoMoon.io -->
<svg version="1.1" xmlns="http://www.w3.org/2000/svg" width="20" height="32" viewBox="0 0 20 32">
<title>BG-shape-3</title>
<path d="M2.031 15.287c0.191-0.531-0.091-1.111-0.622-1.302s-1.111 0.091-1.302 0.622c-0.191 0.531 0.091 1.111 0.622 1.302 0.531 0.182 1.119-0.099 1.302-0.622z"></path>
<path d="M23.168 33.766c-0.46-0.258-0.624-0.851-0.358-1.309 0.258-0.46 0.851-0.624 1.309-0.358 0.46 0.258 0.624 0.851 0.358 1.309s-0.851 0.624-1.309 0.358zM15.434 31.080c-0.689-0.391-0.93-1.267-0.539-1.955s1.267-0.93 1.947-0.541c0.689 0.391 0.93 1.267 0.539 1.955s-1.259 0.931-1.947 0.541zM39.888 29.702c0.367-0.651 1.19-0.876 1.841-0.509s0.876 1.19 0.509 1.841c-0.367 0.651-1.19 0.876-1.841 0.509-0.649-0.375-0.875-1.198-0.509-1.841zM34.484 25.449c-0.651-0.367-0.876-1.19-0.509-1.841s1.19-0.876 1.841-0.509c0.651 0.367 0.876 1.19 0.509 1.841-0.374 0.641-1.198 0.875-1.841 0.509zM3.953 11.454c-0.605-0.342-0.814-1.112-0.473-1.708 0.342-0.605 1.112-0.814 1.708-0.473 0.605 0.342 0.814 1.112 0.473 1.708-0.334 0.606-1.103 0.816-1.708 0.473zM14.277 9.764c0.633-1.109 2.041-1.501 3.15-0.867s1.501 2.041 0.867 3.15c-0.633 1.109-2.041 1.501-3.15 0.867s-1.492-2.039-0.867-3.15zM10.848-1.010c-0.55-0.316-0.739-1.014-0.431-1.566 0.316-0.55 1.016-0.747 1.566-0.431s0.739 1.014 0.431 1.566-1.014 0.739-1.566 0.431zM44.838 5.783c-1.339-0.758-1.806-2.457-1.048-3.796s2.457-1.806 3.796-1.048c1.33 0.765 1.805 2.465 1.048 3.796-0.766 1.338-2.465 1.805-3.796 1.048zM24.81 34.005c0 0 0 0 0 0 3.727-3.998 9.836-5.084 14.802-2.264 0.107 0.061 0.221 0.132 0.328 0.193 0.051 0.043 0.112 0.079 0.173 0.115 0.926 0.525 2.102 0.202 2.628-0.724 0.491-0.873 0.236-1.962-0.557-2.523 0 0 0 0 0 0-4.963-3.552-6.542-10.354-3.462-15.788 1.795-3.16 4.789-5.2 8.090-5.872 1.108-0.175 2.126-0.837 2.723-1.885 1.039-1.837 0.398-4.164-1.431-5.202-1.369-0.78-3.023-0.617-4.201 0.286-0.007-0.010-0.015-0.011-0.013-0.019-2.335 1.306-5.27 1.386-7.764-0.031-2.709-1.538-4.167-4.439-3.99-7.354 0.12-0.778-0.243-1.583-0.971-1.989-0.941-0.536-2.135-0.208-2.663 0.734-0.245 0.437-0.306 0.923-0.209 1.377 0 0 0 0-0.008-0.001 0.32 1.765 0.054 3.655-0.899 5.338-2.161 3.803-6.991 5.131-10.787 2.98-1.623-0.917-2.789-2.327-3.43-3.938-0.138-0.412-0.418-0.781-0.831-1.014-0.872-0.499-1.987-0.19-2.477 0.683-0.439 0.773-0.255 1.731 0.397 2.284 1.706 1.69 2.142 4.368 0.899 6.548-1.255 2.203-3.814 3.2-6.152 2.569 0 0-0.001 0.008-0.001 0.008-0.794-0.174-1.64 0.182-2.057 0.925-0.514 0.911-0.198 2.078 0.713 2.592 0.313 0.181 0.653 0.258 0.991 0.251 0 0 0 0-0.001 0.008 0.026-0.004 0.052-0.008 0.086-0.010 0.050 0 0.102-0.007 0.146-0.016 2.075-0.215 4.242 0.192 6.201 1.304 4.997 2.834 6.746 9.195 3.912 14.192-0.136 0.245-0.287 0.48-0.446 0.713-0.085 0.103-0.172 0.214-0.236 0.337-0.585 1.025-0.225 2.326 0.8 2.911 0.536 0.305 1.142 0.353 1.694 0.181 1.291-0.303 2.693-0.14 3.934 0.559 0.681 0.389 1.247 0.902 1.69 1.493 0 0 0 0 0.001-0.008 0.124 0.157 0.278 0.285 0.453 0.391 0.629 0.347 1.437 0.203 1.928-0.334z"></path>
<path d="M4.957 10.495c0.075-0.207-0.033-0.439-0.249-0.514-0.207-0.075-0.439 0.033-0.514 0.249-0.075 0.207 0.033 0.439 0.249 0.514 0.207 0.075 0.439-0.041 0.514-0.249z"></path>
</svg>
