<!-- Generated by IcoMoon.io -->
<svg version="1.1" xmlns="http://www.w3.org/2000/svg" width="23" height="32" viewBox="0 0 23 32">
<title>BG-shape-12</title>
<path d="M21.88 4.407c-0.362-0.639-1.174-0.863-1.812-0.5s-0.862 1.174-0.499 1.813 1.174 0.863 1.812 0.5c0.638-0.362 0.862-1.174 0.499-1.813zM18.16-6.316c-0.541-0.953-1.751-1.287-2.703-0.746s-1.286 1.752-0.745 2.704c0.541 0.953 1.751 1.287 2.703 0.746s1.285-1.752 0.745-2.704zM16.25 27.593c-0.897 0.509-1.211 1.65-0.701 2.547s1.649 1.212 2.546 0.703c0.897-0.509 1.211-1.65 0.702-2.547s-1.649-1.212-2.546-0.703zM10.356 20.1c-0.509-0.897-1.649-1.212-2.546-0.703s-1.211 1.65-0.702 2.547c0.509 0.897 1.649 1.212 2.546 0.703s1.211-1.65 0.701-2.547zM-9.035-22.234c-0.474-0.836-1.536-1.129-2.371-0.654s-1.128 1.537-0.653 2.372c0.474 0.836 1.536 1.129 2.371 0.654s1.128-1.537 0.653-2.372zM-11.372-7.92c-1.537 0.873-2.075 2.828-1.202 4.366s2.826 2.077 4.364 1.204c1.537-0.873 2.075-2.828 1.202-4.366s-2.827-2.077-4.364-1.204zM-26.298-12.685c-0.433-0.763-1.402-1.031-2.165-0.598s-1.030 1.403-0.597 2.166c0.433 0.763 1.402 1.031 2.165 0.598s1.030-1.403 0.597-2.166zM-16.877 34.452c-1.051-1.853-3.404-2.502-5.256-1.45s-2.5 3.406-1.448 5.259c1.052 1.853 3.405 2.502 5.256 1.451s2.5-3.406 1.448-5.259zM22.206 6.689c0 0 0 0 0 0-5.542 5.167-7.037 13.64-3.132 20.52 0.087 0.153 0.176 0.302 0.267 0.451 0.054 0.076 0.106 0.156 0.153 0.239 0.728 1.283 0.279 2.914-1.003 3.642-1.203 0.684-2.713 0.329-3.496-0.778-0.001 0.001-0.002 0.002-0.004 0.003-4.925-6.882-14.348-9.071-21.866-4.801-4.372 2.484-7.197 6.642-8.132 11.212-0.242 1.536-1.154 2.952-2.611 3.779-2.539 1.442-5.767 0.552-7.209-1.99-1.079-1.902-0.853-4.188 0.394-5.823-0.009-0.008-0.019-0.015-0.028-0.023 1.803-3.238 1.923-7.312-0.040-10.771-2.134-3.76-6.151-5.777-10.191-5.539-1.077 0.161-2.191-0.339-2.76-1.344-0.739-1.303-0.283-2.959 1.019-3.699 0.602-0.342 1.28-0.428 1.908-0.293 0.001-0.003 0.002-0.006 0.002-0.009 2.446 0.45 5.057 0.075 7.389-1.25 5.267-2.992 7.111-9.69 4.12-14.961-1.276-2.249-3.228-3.871-5.454-4.764-0.573-0.189-1.080-0.583-1.401-1.149-0.687-1.211-0.264-2.75 0.947-3.438 1.069-0.607 2.393-0.346 3.162 0.557 2.337 2.363 6.048 2.97 9.074 1.251 3.055-1.735 4.434-5.286 3.554-8.529 0.003-0.001 0.006-0.002 0.008-0.002-0.238-1.098 0.248-2.268 1.275-2.852 1.266-0.719 2.875-0.275 3.594 0.992 0.247 0.435 0.357 0.91 0.343 1.376 0.002-0.001 0.005-0.002 0.007-0.003-0.005 0.038-0.009 0.076-0.013 0.113-0.005 0.069-0.013 0.138-0.023 0.207-0.298 2.883 0.266 5.884 1.805 8.596 3.932 6.93 12.733 9.359 19.658 5.425 0.34-0.193 0.668-0.399 0.986-0.615 0.143-0.123 0.3-0.234 0.47-0.331 1.418-0.806 3.221-0.308 4.027 1.111 0.421 0.742 0.486 1.589 0.249 2.344-0.421 1.787-0.198 3.73 0.779 5.452 0.537 0.946 1.248 1.731 2.070 2.339-0.002 0.002-0.003 0.003-0.005 0.005 0.212 0.17 0.397 0.381 0.539 0.632 0.517 0.912 0.313 2.036-0.43 2.713z"></path>
</svg>
