<!-- Generated by IcoMoon.io -->
<svg version="1.1" xmlns="http://www.w3.org/2000/svg" width="32" height="32" viewBox="0 0 32 32">
<title>hat</title>
<path d="M23.364 13.546c-1.34 0.009-2.442 1.115-2.445 2.453-0.002 1.346 1.133 2.477 2.475 2.467 1.331-0.010 2.442-1.127 2.446-2.459 0.003-1.35-1.123-2.47-2.476-2.461zM18.457 15.984c-0.012-1.353-1.147-2.461-2.498-2.439-1.34 0.022-2.435 1.14-2.422 2.475 0.012 1.332 1.129 2.443 2.459 2.444 1.343 0.001 2.474-1.138 2.462-2.481zM8.628 13.546c-1.354-0.008-2.478 1.109-2.475 2.461 0.003 1.331 1.113 2.448 2.445 2.459 1.34 0.011 2.478-1.122 2.476-2.467-0.002-1.336-1.107-2.444-2.446-2.453zM30.609 32h-0.077c-0.101-0.051-0.2-0.11-0.305-0.15-2.014-0.743-4.030-1.482-6.044-2.226-0.642-0.237-1.273-0.232-1.908 0.026-1.55 0.63-3.16 1.046-4.827 1.17-4.298 0.32-8.203-0.763-11.599-3.452-2.925-2.315-4.804-5.308-5.553-8.982-0.119-0.585-0.198-1.179-0.296-1.768v-2.307c0.024-0.111 0.062-0.22 0.072-0.332 0.171-1.896 0.673-3.705 1.58-5.372 2.778-5.106 7.102-7.939 12.866-8.519 3.826-0.386 7.38 0.509 10.573 2.661 3.536 2.383 5.775 5.667 6.618 9.869 0.122 0.61 0.19 1.232 0.283 1.848v1.923c-0.066 0.478-0.124 0.957-0.2 1.433-0.358 2.231-1.192 4.271-2.459 6.14-0.304 0.448-0.453 0.95-0.319 1.495 0.334 1.351 0.682 2.698 1.013 4.049 0.203 0.829 0.387 1.663 0.58 2.495z"></path>
</svg>
