<!-- Generated by IcoMoon.io -->
<svg version="1.1" xmlns="http://www.w3.org/2000/svg" width="39" height="32" viewBox="0 0 39 32">
<title>history</title>
<path d="M22.968 0.591c4.252 0 8.503 0.008 12.754-0.006 0.767-0.003 1.342 0.276 1.585 0.996 0.235 0.699 0.081 1.371-0.597 1.764-0.313 0.182-0.723 0.274-1.090 0.275-8.439 0.015-16.877 0.018-25.315 0.007-1.090-0.001-1.742-0.616-1.73-1.525 0.012-0.912 0.671-1.505 1.736-1.507 4.219-0.008 8.438-0.003 12.657-0.003zM22.982 21.782c-4.219 0-8.438-0.009-12.657 0.009-0.816 0.004-1.396-0.329-1.656-1.061-0.237-0.665-0.024-1.303 0.589-1.684 0.305-0.19 0.718-0.288 1.083-0.289 8.47-0.015 16.94-0.016 25.41-0.005 1.049 0.001 1.675 0.637 1.665 1.577-0.009 0.876-0.622 1.442-1.68 1.445-4.251 0.015-8.502 0.006-12.753 0.007zM23.068 9.671c4.219 0 8.437 0.005 12.655-0.003 0.807-0.001 1.391 0.346 1.612 1.105 0.207 0.713-0.015 1.391-0.714 1.715-0.411 0.191-0.928 0.212-1.397 0.213-8.179 0.012-16.359 0.008-24.538 0.008-0.225 0-0.452 0.008-0.676-0.012-0.854-0.079-1.439-0.701-1.435-1.512 0.005-0.808 0.589-1.461 1.452-1.492 1.286-0.045 2.575-0.020 3.863-0.021 3.059-0.001 6.119 0 9.178 0zM23.062 30.874c-4.122 0-8.243 0-12.364-0.001-0.29 0-0.588 0.030-0.866-0.031-0.732-0.16-1.205-0.613-1.253-1.382-0.050-0.816 0.378-1.342 1.153-1.555 0.274-0.075 0.574-0.071 0.863-0.071 8.275-0.004 16.55 0.001 24.825-0.010 0.757-0.001 1.416 0.137 1.814 0.84 0.565 0.997-0.177 2.179-1.421 2.199-2.028 0.033-4.057 0.010-6.085 0.010h-6.665zM1.311 28.317c0.213-0.373 0.539-0.51 0.96-0.491 0.399 0.018 0.8-0.008 1.198 0.014 0.477 0.025 0.726 0.287 0.738 0.76 0.012 0.461 0.012 0.923-0 1.383-0.014 0.503-0.269 0.751-0.777 0.766-0.338 0.010-0.678-0.021-1.014 0.008-0.442 0.039-0.81-0.073-1.105-0.407v-2.033zM1.311 19.243c0.211-0.371 0.523-0.524 0.953-0.495 0.398 0.027 0.801-0.007 1.2 0.013 0.488 0.024 0.73 0.274 0.743 0.757 0.012 0.477 0.015 0.955-0.002 1.431-0.016 0.456-0.269 0.707-0.726 0.721-0.477 0.015-0.96 0.048-1.429-0.015-0.259-0.034-0.494-0.247-0.739-0.38v-2.033zM1.311 10.077c0.296-0.335 0.666-0.443 1.107-0.405 0.351 0.030 0.708-0.004 1.062 0.010 0.456 0.019 0.71 0.266 0.726 0.722 0.017 0.492 0.013 0.985 0.001 1.477-0.011 0.441-0.271 0.684-0.696 0.704-0.507 0.025-1.023 0.057-1.52-0.016-0.244-0.035-0.454-0.299-0.679-0.46v-2.033zM1.311 0.999c0.295-0.334 0.663-0.445 1.105-0.407 0.351 0.030 0.707-0.004 1.060 0.010 0.455 0.019 0.713 0.267 0.729 0.718 0.018 0.491 0.014 0.984 0.001 1.475-0.012 0.437-0.267 0.684-0.691 0.707-0.49 0.026-0.991 0.062-1.471-0.011-0.262-0.040-0.49-0.298-0.733-0.458v-2.032z"></path>
</svg>
