<!-- Generated by IcoMoon.io -->
<svg version="1.1" xmlns="http://www.w3.org/2000/svg" width="32" height="32" viewBox="0 0 32 32">
<title>home</title>
<path d="M31.868 15.51v0.871c-0.043 0.101-0.090 0.2-0.13 0.302-0.289 0.75-0.995 1.244-1.8 1.252-0.383 0.004-0.767 0.001-1.151 0.001h-0.904v0.415c0 3.848 0.001 7.696-0.001 11.544-0 0.856-0.524 1.585-1.331 1.874-0.096 0.034-0.19 0.074-0.285 0.111h-6.348c0-3.288 0.002-6.575 0-9.863-0.001-1.227-0.868-2.086-2.102-2.088-1.255-0.002-2.51-0.002-3.765 0-1.234 0.002-2.1 0.86-2.101 2.088-0.002 3.288-0 6.575 0 9.863h-6.348c-0.026-0.017-0.049-0.041-0.077-0.050-1.042-0.321-1.54-0.996-1.54-2.090v-11.769c-0.057-0.018-0.076-0.030-0.095-0.030-0.653-0.003-1.307-0-1.96-0.006-0.82-0.007-1.523-0.508-1.81-1.28-0.035-0.093-0.080-0.182-0.12-0.274v-0.871c0.233-0.701 0.736-1.205 1.241-1.709 4.188-4.184 8.374-8.37 12.564-12.553 0.271-0.27 0.546-0.541 0.846-0.779 0.794-0.631 1.779-0.624 2.576 0.004 0.179 0.141 0.349 0.294 0.511 0.455 1.301 1.294 2.599 2.591 3.899 3.887 0.075 0.075 0.153 0.147 0.275 0.263 0-0.428-0.003-0.779 0.001-1.13 0.010-1.058 0.886-1.935 1.945-1.942 0.653-0.005 1.306-0.002 1.96-0.001 1.22 0.001 2.066 0.849 2.067 2.072 0.001 2.229 0.003 4.458-0.005 6.687-0.001 0.215 0.063 0.364 0.215 0.513 0.85 0.836 1.688 1.683 2.533 2.525 0.505 0.504 1.008 1.008 1.241 1.708z"></path>
</svg>
