<!-- Generated by IcoMoon.io -->
<svg version="1.1" xmlns="http://www.w3.org/2000/svg" width="25" height="32" viewBox="0 0 25 32">
<title>logo-big</title>
<path fill="#272422" d="M2.485 29.452c-0.141-0.147-0.329-0.22-0.563-0.22h-0.511l-0.39 1.935h0.64c0.189 0 0.363-0.049 0.523-0.146s0.284-0.232 0.375-0.405c0.092-0.172 0.138-0.367 0.138-0.584 0-0.239-0.071-0.433-0.212-0.579zM2.873 28.696c0.236 0.118 0.417 0.284 0.544 0.498s0.19 0.462 0.19 0.742c0 0.374-0.091 0.708-0.274 1.004s-0.436 0.525-0.756 0.69c-0.321 0.164-0.679 0.247-1.074 0.247h-1.502l0.669-3.358h1.377c0.314 0 0.59 0.059 0.826 0.177z"></path>
<path fill="#272422" d="M4.859 30.612h0.944l-0.265-1.217-0.679 1.217zM6.078 31.876l-0.13-0.594h-1.464l-0.332 0.594h-0.901l2.008-3.358h0.905l0.858 3.358h-0.944z"></path>
<path fill="#272422" d="M9.738 30.161h0.761l-0.265 1.336c-0.199 0.134-0.422 0.241-0.67 0.321s-0.486 0.12-0.717 0.12c-0.318 0-0.601-0.069-0.85-0.206s-0.442-0.326-0.58-0.568c-0.138-0.241-0.207-0.513-0.207-0.817 0-0.348 0.092-0.666 0.275-0.953s0.43-0.514 0.742-0.68c0.311-0.166 0.655-0.249 1.030-0.249 0.25 0 0.495 0.046 0.734 0.137s0.439 0.213 0.6 0.366l-0.558 0.613c-0.109-0.115-0.24-0.206-0.393-0.273s-0.307-0.101-0.465-0.101c-0.19 0-0.365 0.048-0.527 0.143s-0.291 0.226-0.388 0.391c-0.096 0.164-0.145 0.346-0.145 0.543 0 0.17 0.037 0.324 0.111 0.462s0.176 0.248 0.308 0.326c0.132 0.079 0.281 0.117 0.448 0.117s0.361-0.051 0.583-0.153l0.173-0.877z"></path>
<path fill="#272422" d="M13.686 28.621c0.234 0.104 0.427 0.245 0.578 0.424l-0.578 0.613c-0.097-0.137-0.215-0.247-0.357-0.328s-0.286-0.122-0.433-0.122c-0.183 0-0.353 0.047-0.51 0.141s-0.282 0.222-0.373 0.385c-0.091 0.163-0.137 0.342-0.137 0.537 0 0.166 0.035 0.316 0.106 0.45s0.168 0.239 0.293 0.316c0.126 0.076 0.267 0.115 0.424 0.115 0.138 0 0.287-0.036 0.446-0.106s0.304-0.166 0.436-0.287l0.458 0.551c-0.203 0.192-0.435 0.344-0.698 0.458s-0.519 0.17-0.766 0.17c-0.312 0-0.589-0.069-0.833-0.206s-0.433-0.326-0.568-0.568c-0.135-0.241-0.202-0.513-0.202-0.817 0-0.351 0.088-0.67 0.265-0.958s0.417-0.513 0.722-0.678c0.305-0.164 0.639-0.247 1.002-0.247 0.251 0 0.493 0.052 0.728 0.156z"></path>
<path fill="#272422" d="M15.804 29.352c-0.161 0.096-0.289 0.227-0.385 0.393s-0.145 0.347-0.145 0.541c0 0.17 0.037 0.323 0.111 0.46s0.175 0.246 0.304 0.326c0.128 0.080 0.269 0.12 0.424 0.12 0.177 0 0.344-0.049 0.501-0.146s0.282-0.229 0.376-0.395c0.093-0.166 0.14-0.348 0.14-0.546 0-0.169-0.035-0.322-0.106-0.457s-0.169-0.243-0.294-0.321c-0.125-0.079-0.264-0.117-0.414-0.117-0.18 0-0.35 0.048-0.51 0.143zM17.237 28.669c0.252 0.136 0.448 0.324 0.59 0.563s0.212 0.51 0.212 0.81c0 0.348-0.090 0.668-0.27 0.958s-0.424 0.52-0.731 0.687c-0.308 0.168-0.646 0.251-1.012 0.251-0.321 0-0.607-0.069-0.86-0.206s-0.448-0.326-0.587-0.568c-0.14-0.241-0.21-0.513-0.21-0.817 0-0.351 0.090-0.67 0.27-0.958s0.423-0.513 0.73-0.678c0.306-0.165 0.643-0.247 1.009-0.247 0.321 0 0.607 0.068 0.86 0.204z"></path>
<path fill="#272422" d="M19.696 28.518l-0.674 3.358h-0.881l0.674-3.358z"></path>
<path fill="#272422" d="M22.657 28.518h0.819l-0.674 3.358h-0.77l-1.122-2.012-0.409 2.012h-0.823l0.674-3.358h0.77l1.127 2.021z"></path>
<path fill="#212121" d="M24.412 27.403c-0.188 0-0.341 0.152-0.341 0.339s0.153 0.339 0.341 0.339c0.188 0 0.341-0.152 0.341-0.339s-0.153-0.339-0.341-0.339zM24.412 28.138c-0.219 0-0.397-0.177-0.397-0.395s0.178-0.395 0.397-0.395c0.219 0 0.397 0.177 0.397 0.395s-0.178 0.395-0.397 0.395z"></path>
<path fill="#212121" d="M24.333 27.736h0.061c0.017 0 0.032-0.002 0.045-0.006s0.024-0.010 0.033-0.017c0.009-0.008 0.015-0.016 0.020-0.027s0.007-0.022 0.007-0.034c0-0.026-0.009-0.045-0.025-0.058s-0.042-0.019-0.076-0.019h-0.064v0.162zM24.333 27.778v0.179h-0.058v-0.428h0.122c0.027 0 0.051 0.003 0.071 0.008s0.036 0.013 0.049 0.024c0.013 0.010 0.023 0.023 0.029 0.037s0.009 0.031 0.009 0.049c0 0.015-0.002 0.029-0.007 0.042s-0.012 0.025-0.021 0.035c-0.009 0.011-0.020 0.019-0.033 0.027s-0.028 0.013-0.045 0.017c0.007 0.004 0.014 0.010 0.019 0.018l0.125 0.17h-0.052c-0.010 0-0.018-0.004-0.023-0.012l-0.112-0.153c-0.003-0.005-0.007-0.008-0.011-0.010s-0.010-0.003-0.018-0.003h-0.044z"></path>
<path fill="#d51f26" d="M16.118 14.136c-0.467 0.755-1.111 1.342-1.931 1.762-0.503 0.258-1.042 0.436-1.617 0.535l-0.447 2.185h-2.019l0.427-2.090h-2.926l1.71-8.577h2.969l0.379-1.856h2.019l-0.419 2.053c0.238 0.069 0.467 0.15 0.68 0.256 0.603 0.302 1.066 0.726 1.39 1.272s0.486 1.179 0.486 1.896c0 0.955-0.234 1.809-0.701 2.563zM12.395 0.018c-6.851 0.005-12.4 5.534-12.394 12.348s5.564 12.334 12.415 12.328 12.4-5.534 12.394-12.348c-0.006-6.814-5.564-12.334-12.415-12.328z"></path>
<path fill="#d51f26" d="M12.513 9.774h-1.304l-0 0.002-1.271-0.009 1.196 0.385-0.837 4.153-1.305 0.419 1.222-0.006h1.636c0.484 0 0.929-0.124 1.335-0.373s0.726-0.593 0.96-1.034c0.234-0.441 0.351-0.938 0.351-1.493 0-0.612-0.181-1.105-0.541-1.481s-0.841-0.563-1.439-0.563z"></path>
</svg>
