<!-- Generated by IcoMoon.io -->
<svg version="1.1" xmlns="http://www.w3.org/2000/svg" width="101" height="32" viewBox="0 0 101 32">
<title>logo</title>
<path fill="#272422" d="M42.341 14.031c-0.369-0.391-0.858-0.587-1.468-0.587h-1.33l-1.017 5.163h1.669c0.493 0 0.947-0.13 1.361-0.39s0.741-0.62 0.979-1.080c0.239-0.46 0.358-0.98 0.358-1.56 0-0.638-0.184-1.154-0.552-1.546zM43.351 12.011c0.616 0.316 1.088 0.758 1.419 1.329s0.496 1.231 0.496 1.98c0 0.998-0.237 1.89-0.715 2.678-0.476 0.789-1.135 1.402-1.971 1.84s-1.768 0.659-2.798 0.659h-3.916l1.745-8.96h3.59c0.819 0 1.538 0.158 2.152 0.473z"></path>
<path fill="#272422" d="M48.528 17.124h2.461l-0.69-3.246-1.771 3.246zM51.704 20.498l-0.339-1.585h-3.814l-0.867 1.585h-2.347l5.234-8.959h2.359l2.234 8.959h-2.46z"></path>
<path fill="#272422" d="M61.243 15.923h1.984l-0.691 3.565c-0.519 0.358-1.099 0.644-1.744 0.857s-1.267 0.319-1.87 0.319c-0.828 0-1.566-0.183-2.216-0.55s-1.152-0.87-1.512-1.514c-0.36-0.642-0.54-1.37-0.54-2.179 0-0.929 0.239-1.776 0.716-2.543s1.121-1.372 1.933-1.815c0.811-0.443 1.706-0.664 2.685-0.664 0.652 0 1.29 0.121 1.913 0.364 0.625 0.243 1.145 0.569 1.563 0.978l-1.456 1.636c-0.285-0.306-0.626-0.549-1.023-0.728s-0.801-0.269-1.21-0.269c-0.494 0-0.952 0.127-1.375 0.384s-0.759 0.603-1.010 1.042c-0.251 0.439-0.377 0.922-0.377 1.45 0 0.452 0.096 0.863 0.29 1.233 0.193 0.372 0.459 0.66 0.802 0.87 0.343 0.208 0.732 0.312 1.168 0.312s0.942-0.136 1.519-0.408l0.451-2.339z"></path>
<path fill="#272422" d="M71.531 11.813c0.61 0.278 1.111 0.654 1.505 1.132l-1.505 1.636c-0.252-0.366-0.561-0.658-0.931-0.875-0.367-0.218-0.743-0.326-1.128-0.326-0.478 0-0.92 0.126-1.331 0.377-0.41 0.252-0.734 0.594-0.973 1.029s-0.358 0.912-0.358 1.432c0 0.443 0.093 0.844 0.277 1.201s0.44 0.639 0.766 0.844c0.326 0.204 0.694 0.306 1.103 0.306 0.361 0 0.748-0.094 1.162-0.281s0.793-0.443 1.136-0.766l1.192 1.47c-0.528 0.511-1.135 0.918-1.82 1.221-0.687 0.301-1.351 0.453-1.996 0.453-0.811 0-1.534-0.183-2.171-0.55-0.635-0.366-1.13-0.87-1.481-1.514-0.351-0.642-0.527-1.37-0.527-2.179 0-0.937 0.231-1.789 0.692-2.556 0.459-0.767 1.088-1.37 1.881-1.808s1.665-0.658 2.611-0.658c0.652 0 1.284 0.138 1.896 0.415z"></path>
<path fill="#272422" d="M77.052 13.762c-0.419 0.255-0.753 0.605-1.003 1.048-0.252 0.443-0.377 0.924-0.377 1.444 0 0.452 0.096 0.861 0.289 1.227s0.455 0.656 0.791 0.869c0.334 0.212 0.703 0.32 1.103 0.32 0.461 0 0.897-0.13 1.305-0.39 0.41-0.26 0.736-0.611 0.98-1.054s0.364-0.929 0.364-1.458c0-0.451-0.092-0.858-0.275-1.219-0.186-0.362-0.44-0.648-0.766-0.857s-0.687-0.313-1.080-0.313c-0.468 0-0.912 0.127-1.33 0.383zM80.786 11.941c0.656 0.362 1.169 0.863 1.537 1.502s0.552 1.359 0.552 2.16c0 0.929-0.235 1.78-0.703 2.555-0.468 0.777-1.104 1.388-1.907 1.835s-1.682 0.671-2.635 0.671c-0.838 0-1.583-0.183-2.24-0.55s-1.168-0.87-1.531-1.514c-0.365-0.642-0.546-1.37-0.546-2.179 0-0.937 0.234-1.789 0.703-2.555 0.469-0.768 1.102-1.37 1.902-1.808s1.675-0.659 2.63-0.659c0.836 0 1.582 0.181 2.24 0.543z"></path>
<path fill="#272422" d="M87.193 11.538l-1.756 8.959h-2.297l1.756-8.959z"></path>
<path fill="#272422" d="M94.911 11.538h2.133l-1.756 8.959h-2.008l-2.924-5.368-1.067 5.368h-2.146l1.757-8.959h2.008l2.937 5.394z"></path>
<path fill="#212121" d="M99.484 8.564c-0.49 0-0.888 0.406-0.888 0.905s0.399 0.905 0.888 0.905c0.49 0 0.888-0.406 0.888-0.905s-0.399-0.905-0.888-0.905zM99.484 10.523c-0.571 0-1.035-0.473-1.035-1.054s0.464-1.054 1.035-1.054c0.571 0 1.036 0.473 1.036 1.054s-0.465 1.054-1.036 1.054z"></path>
<path fill="#212121" d="M99.277 9.451h0.159c0.045 0 0.084-0.005 0.117-0.016s0.062-0.026 0.084-0.046c0.023-0.020 0.040-0.044 0.051-0.071s0.018-0.058 0.018-0.091c0-0.068-0.023-0.12-0.066-0.154s-0.11-0.052-0.198-0.052h-0.165v0.431zM99.277 9.563v0.476h-0.151v-1.142h0.317c0.071 0 0.133 0.008 0.184 0.022 0.052 0.015 0.095 0.035 0.128 0.063s0.058 0.061 0.074 0.1c0.017 0.040 0.025 0.083 0.025 0.132 0 0.040-0.006 0.078-0.019 0.113s-0.030 0.067-0.054 0.095c-0.025 0.028-0.053 0.052-0.088 0.071s-0.073 0.034-0.116 0.045c0.019 0.011 0.035 0.028 0.050 0.049l0.328 0.453h-0.134c-0.029 0-0.048-0.011-0.062-0.033l-0.29-0.408c-0.009-0.012-0.019-0.021-0.030-0.027s-0.026-0.009-0.046-0.009h-0.116z"></path>
<path fill="#d51f26" d="M19.558 18.4c-0.567 0.938-1.349 1.667-2.343 2.189-0.611 0.32-1.265 0.541-1.963 0.665l-0.541 2.714h-2.451l0.519-2.596h-3.551l2.075-10.656h3.602l0.46-2.306h2.45l-0.508 2.551c0.289 0.085 0.567 0.186 0.825 0.318 0.731 0.375 1.294 0.902 1.687 1.581 0.392 0.679 0.589 1.464 0.589 2.356 0 1.186-0.284 2.248-0.851 3.184zM15.039 0.86c-8.313 0.007-15.046 6.875-15.040 15.342s6.751 15.323 15.065 15.316c8.313-0.006 15.047-6.875 15.040-15.341s-6.751-15.323-15.065-15.317z"></path>
<path fill="#e31e25" d="M15.184 12.98h-1.582v0.002l-1.543-0.010 1.451 0.478-1.017 5.159-1.583 0.521 1.483-0.008h1.986c0.587 0 1.127-0.155 1.62-0.463s0.881-0.738 1.164-1.285c0.284-0.548 0.426-1.166 0.426-1.855 0-0.76-0.219-1.373-0.657-1.839s-1.020-0.699-1.746-0.699z"></path>
</svg>
