<!-- Generated by IcoMoon.io -->
<svg version="1.1" xmlns="http://www.w3.org/2000/svg" width="32" height="32" viewBox="0 0 32 32">
<title>recieve</title>
<path d="M14.27 7.512v-0.901c0.001-1.579-0.010-3.157 0.008-4.736 0.013-1.154 0.707-1.876 1.752-1.875 1.041 0.001 1.76 0.74 1.771 1.868 0.015 1.602 0.004 3.205 0.004 4.807v0.836c1.082 0 2.089-0.004 3.095 0.001 0.756 0.004 0.874 0.185 0.508 0.822-1.629 2.837-3.264 5.672-4.907 8.501-0.338 0.582-0.599 0.578-0.948-0.022-1.643-2.829-3.279-5.663-4.905-8.502-0.334-0.583-0.194-0.791 0.5-0.797 1.008-0.009 2.015-0.002 3.12-0.002zM11.9 15.979c-1.444 0-2.756-0.019-4.066 0.017-0.254 0.007-0.608 0.164-0.735 0.365-0.928 1.474-1.811 2.976-2.705 4.472-0.056 0.093-0.083 0.204-0.164 0.412 1.536 0 2.986 0.005 4.436-0.002 1.215-0.005 1.212-0.009 1.669 1.086 0.298 0.715 0.421 1.712 0.96 2.060 0.573 0.37 1.545 0.142 2.343 0.145 2.026 0.009 4.053-0.017 6.079 0.011 0.523 0.007 0.811-0.127 0.98-0.65 0.231-0.714 0.575-1.391 0.826-2.1 0.151-0.428 0.401-0.563 0.842-0.557 1.647 0.021 3.295 0.008 5.044 0.008-0.097-0.235-0.144-0.406-0.231-0.553-0.844-1.415-1.704-2.821-2.535-4.244-0.203-0.347-0.434-0.49-0.843-0.48-1.153 0.027-2.307 0.010-3.624 0.010 0.488-0.849 0.98-1.583 1.346-2.376 0.346-0.75 0.837-0.974 1.645-0.948 2.725 0.085 1.964-0.261 3.555 1.728 1.545 1.931 3.071 3.878 4.569 5.846 0.233 0.306 0.395 0.77 0.373 1.148-0.153 2.562-0.338 5.123-0.566 7.679-0.146 1.633-1.628 2.912-3.369 2.927-3.275 0.027-6.55 0.016-9.825 0.017-4.524 0.001-9.048-0.006-13.572-0.002-2.302 0.002-3.694-1.3-3.851-3.601-0.157-2.303-0.349-4.603-0.475-6.907-0.022-0.409 0.096-0.907 0.33-1.234 1.657-2.319 3.369-4.597 5.042-6.905 0.355-0.49 0.773-0.701 1.372-0.683 0.918 0.029 1.838-0.007 2.756 0.018 0.208 0.005 0.511 0.084 0.603 0.233 0.604 0.971 1.162 1.97 1.794 3.062z"></path>
</svg>
