<!-- Generated by IcoMoon.io -->
<svg version="1.1" xmlns="http://www.w3.org/2000/svg" width="32" height="32" viewBox="0 0 32 32">
<title>send</title>
<path d="M12.873 32h-0.375c-0.398-0.189-0.507-0.513-0.505-0.938 0.012-2.238 0.044-4.478-0.013-6.715-0.027-1.035 0.304-1.814 1.003-2.567 4.516-4.871 8.998-9.773 13.491-14.665 0.052-0.056 0.096-0.12 0.144-0.181-0.074 0.012-0.124 0.044-0.169 0.082-5.868 4.828-11.736 9.655-17.598 14.489-0.199 0.164-0.353 0.174-0.584 0.093-2.398-0.849-4.798-1.693-7.202-2.523-0.478-0.165-0.853-0.418-1.065-0.885v-0.437c0.197-0.383 0.511-0.635 0.886-0.838 0.741-0.4 1.469-0.822 2.203-1.235 7.567-4.251 15.134-8.502 22.702-12.752 1.595-0.896 3.189-1.794 4.787-2.684 0.7-0.39 1.032-0.321 1.415 0.261v0.687c-0.017 0.037-0.045 0.073-0.051 0.111-0.36 2.384-0.717 4.768-1.075 7.152-0.324 2.158-0.648 4.316-0.972 6.473-0.322 2.148-0.645 4.295-0.968 6.442-0.272 1.809-0.533 3.618-0.819 5.425-0.155 0.973-1.027 1.443-1.944 1.080-0.145-0.057-0.287-0.123-0.434-0.174-2.685-0.94-5.371-1.876-8.053-2.824-0.23-0.081-0.339-0.044-0.466 0.168-0.942 1.557-1.892 3.109-2.853 4.655-0.481 0.774-0.989 1.533-1.485 2.298z"></path>
</svg>
