<!-- Generated by IcoMoon.io -->
<svg version="1.1" xmlns="http://www.w3.org/2000/svg" width="32" height="32" viewBox="0 0 32 32">
<title>settings</title>
<path d="M15.486 22.428c3.87-0.002 7.005-3.136 7.004-7.004-0.001-3.871-3.133-6.999-7.006-6.996-3.871 0.001-7.011 3.137-7.010 6.999 0.001 3.86 3.149 7.003 7.012 7.001zM11.927 30.707h-0.053c-0.047-0.019-0.092-0.042-0.14-0.057-0.702-0.227-1.421-0.413-2.103-0.691-0.793-0.323-1.553-0.727-2.327-1.097 0.717-1.621 0.601-3.099-0.577-4.354-1.285-1.368-2.852-1.53-4.538-0.794-0.698-0.886-1.959-3.931-1.901-4.578 1.575-0.595 2.547-1.705 2.624-3.398 0.087-1.922-0.929-3.17-2.716-3.848 0.376-1.64 0.999-3.175 1.873-4.606 1.622 0.755 3.147 0.655 4.44-0.588 1.365-1.312 1.494-2.889 0.695-4.592 1.429-0.891 2.964-1.531 4.601-1.925 0.801 1.796 1.876 2.698 3.359 2.753 1.997 0.074 3.28-0.92 3.952-2.758 1.285 0.224 3.717 1.233 4.605 1.907-0.729 1.542-0.68 3.035 0.483 4.326 1.313 1.457 2.93 1.622 4.683 0.818 0.685 1.11 1.213 2.279 1.598 3.512 0.108 0.345 0.213 0.691 0.319 1.036v0.053c-0.049 0.018-0.097 0.036-0.146 0.053-1.568 0.546-2.573 1.914-2.589 3.525-0.016 1.641 0.95 3.018 2.523 3.597 0.055 0.020 0.107 0.049 0.173 0.080-0.395 1.636-1.027 3.158-1.91 4.577-1.618-0.711-3.122-0.587-4.393 0.646-1.314 1.275-1.452 2.814-0.742 4.456-0.959 0.703-3.734 1.842-4.592 1.88-0.027-0.067-0.057-0.138-0.085-0.21-0.69-1.742-2.51-2.718-4.337-2.295-1.403 0.325-2.312 1.214-2.78 2.567z"></path>
</svg>
