<!-- Generated by IcoMoon.io -->
<svg version="1.1" xmlns="http://www.w3.org/2000/svg" width="24" height="24" viewBox="0 0 24 24">
<title>add_alert</title>
<path d="M16.554 12.589v-2.304h-3.429v-3.429h-2.25v3.429h-3.429v2.304h3.429v3.429h2.25v-3.429h3.429zM19.875 16.929l2.411 2.411v1.232h-20.571v-1.232l2.411-2.411v-6.643c0-3.696 2.571-6.857 6.054-7.661v-0.804c0-1.018 0.804-1.821 1.821-1.821s1.821 0.804 1.821 1.821v0.804c3.482 0.804 6.054 3.964 6.054 7.661v6.643zM9.75 21.696h4.5c0 1.232-1.018 2.304-2.25 2.304s-2.25-1.071-2.25-2.304z"></path>
</svg>
