<!-- Generated by IcoMoon.io -->
<svg version="1.1" xmlns="http://www.w3.org/2000/svg" width="24" height="24" viewBox="0 0 24 24">
<title>add_a_photo</title>
<path d="M10.216 14.64c0-1.857 1.466-3.373 3.324-3.373s3.373 1.515 3.373 3.373-1.515 3.324-3.373 3.324-3.324-1.466-3.324-3.324zM13.54 19.821c2.884 0 5.23-2.297 5.23-5.181s-2.346-5.23-5.23-5.23-5.181 2.346-5.181 5.23 2.297 5.181 5.181 5.181zM6.257 10.436v-3.128h3.128v-3.128h7.283l1.906 2.102h3.324c1.124 0 2.102 0.978 2.102 2.102v12.513c0 1.124-0.978 2.053-2.102 2.053h-16.668c-1.124 0-2.102-0.929-2.102-2.053v-10.46h3.128zM3.128 4.179v-3.128h2.102v3.128h3.128v2.102h-3.128v3.128h-2.102v-3.128h-3.128v-2.102h3.128z"></path>
</svg>
