<!-- Generated by IcoMoon.io -->
<svg version="1.1" xmlns="http://www.w3.org/2000/svg" width="24" height="24" viewBox="0 0 24 24">
<title>add_shopping_cart</title>
<path d="M7.554 15.75c0 0.161 0.107 0.268 0.268 0.268h13.232v2.304h-13.714c-1.232 0-2.25-1.071-2.25-2.304 0-0.375 0.107-0.75 0.268-1.071l1.554-2.839-4.125-8.679h-2.304v-2.25h3.75c0.723 1.509 1.437 3.027 2.143 4.554 0.912 1.909 1.811 3.832 2.732 5.732h8.036c1.467-2.675 2.961-5.325 4.393-8.036l1.982 1.125-4.393 7.982c-0.375 0.696-1.125 1.179-1.982 1.179h-8.518l-1.018 1.875zM18.804 19.446c1.232 0 2.25 1.071 2.25 2.304s-1.018 2.25-2.25 2.25-2.304-1.018-2.304-2.25 1.071-2.304 2.304-2.304zM7.339 19.446c1.232 0 2.304 1.071 2.304 2.304s-1.071 2.25-2.304 2.25-2.25-1.018-2.25-2.25 1.018-2.304 2.25-2.304zM11.946 9.161v-3.429h-3.429v-2.304h3.429v-3.429h2.25v3.429h3.429v2.304h-3.429v3.429h-2.25z"></path>
</svg>
