<!-- Generated by IcoMoon.io -->
<svg version="1.1" xmlns="http://www.w3.org/2000/svg" width="24" height="24" viewBox="0 0 24 24">
<title>alarm_add</title>
<path d="M13.175 8.503v3.58h3.58v2.406h-3.58v3.58h-2.35v-3.58h-3.58v-2.406h3.58v-3.58h2.35zM12 21.65c4.643 0 8.336-3.748 8.336-8.392s-3.692-8.336-8.336-8.336-8.336 3.692-8.336 8.336 3.692 8.392 8.336 8.392zM12 2.517c5.93 0 10.741 4.811 10.741 10.741s-4.811 10.741-10.741 10.741-10.741-4.811-10.741-10.741 4.811-10.741 10.741-10.741zM23.916 4.587l-1.51 1.846-5.483-4.643 1.511-1.79zM7.077 1.79l-5.483 4.587-1.51-1.79 5.483-4.587z"></path>
</svg>
