<!-- Generated by IcoMoon.io -->
<svg version="1.1" xmlns="http://www.w3.org/2000/svg" width="24" height="24" viewBox="0 0 24 24">
<title>alarm_off</title>
<path d="M8.016 3.281l-0.844 0.703-1.453-1.406 0.891-0.703zM16.453 18.375l-9.844-9.844c-0.984 1.219-1.594 2.766-1.594 4.453 0 3.891 3.094 7.031 6.984 7.031 1.688 0 3.234-0.656 4.453-1.641zM2.906 2.297c6.154 6.143 12.313 12.281 18.469 18.422l-1.266 1.266-2.203-2.203c-1.594 1.359-3.656 2.203-5.906 2.203-4.969 0-9-4.031-9-9 0-2.25 0.844-4.266 2.203-5.859l-0.797-0.797-1.125 0.938-1.406-1.453 1.125-0.891-1.359-1.359zM21.984 5.719l-1.266 1.547-4.594-3.891 1.266-1.5zM12 6c-0.844 0-1.641 0.141-2.391 0.422l-1.547-1.5c1.172-0.563 2.531-0.938 3.938-0.938 4.969 0 9 4.031 9 9 0 1.406-0.328 2.766-0.891 3.938l-1.547-1.5c0.281-0.75 0.422-1.594 0.422-2.438 0-3.891-3.094-6.984-6.984-6.984z"></path>
</svg>
