<!-- Generated by IcoMoon.io -->
<svg version="1.1" xmlns="http://www.w3.org/2000/svg" width="24" height="24" viewBox="0 0 24 24">
<title>alarm</title>
<path d="M12 20.016c3.891 0 6.984-3.141 6.984-7.031s-3.094-6.984-6.984-6.984-6.984 3.094-6.984 6.984 3.094 7.031 6.984 7.031zM12 3.984c4.969 0 9 4.031 9 9s-4.031 9-9 9-9-4.031-9-9 4.031-9 9-9zM12.516 8.016v5.25l3.984 2.344-0.75 1.219-4.734-2.813v-6h1.5zM7.875 3.375l-4.594 3.844-1.266-1.5 4.594-3.844zM21.984 5.719l-1.266 1.547-4.594-3.891 1.266-1.5z"></path>
</svg>
