<!-- Generated by IcoMoon.io -->
<svg version="1.1" xmlns="http://www.w3.org/2000/svg" width="24" height="24" viewBox="0 0 24 24">
<title>art_track</title>
<path d="M10.5 15l-2.25-3-1.734 2.25-1.266-1.5-1.734 2.25h6.984zM12 9v6c0 1.078-0.938 2.016-2.016 2.016h-6c-1.078 0-1.969-0.938-1.969-2.016v-6c0-1.078 0.891-2.016 1.969-2.016h6c1.078 0 2.016 0.938 2.016 2.016zM14.016 17.016v-2.016h7.969v2.016h-7.969zM21.984 6.984v2.016h-7.969v-2.016h7.969zM21.984 12.984h-7.969v-1.969h7.969v1.969z"></path>
</svg>
