<!-- Generated by IcoMoon.io -->
<svg version="1.1" xmlns="http://www.w3.org/2000/svg" width="24" height="24" viewBox="0 0 24 24">
<title>assignment_return</title>
<path d="M15.984 15v-3.984h-3.984v-3l-5.016 4.969 5.016 5.016v-3h3.984zM12 3c-0.563 0-0.984 0.422-0.984 0.984s0.422 1.031 0.984 1.031 0.984-0.469 0.984-1.031-0.422-0.984-0.984-0.984zM18.984 3c1.078 0 2.016 0.938 2.016 2.016v13.969c0 1.078-0.938 2.016-2.016 2.016h-13.969c-1.078 0-2.016-0.938-2.016-2.016v-13.969c0-1.078 0.938-2.016 2.016-2.016h4.172c0.422-1.172 1.5-2.016 2.813-2.016s2.391 0.844 2.813 2.016h4.172z"></path>
</svg>
