<!-- Generated by IcoMoon.io -->
<svg version="1.1" xmlns="http://www.w3.org/2000/svg" width="24" height="24" viewBox="0 0 24 24">
<title>attachment</title>
<path d="M2.016 12.516c0-3.047 2.438-5.531 5.484-5.531h10.5c2.203 0 3.984 1.828 3.984 4.031s-1.781 3.984-3.984 3.984h-8.484c-1.359 0-2.531-1.125-2.531-2.484s1.172-2.531 2.531-2.531h7.5v2.016h-7.594c-0.563 0-0.563 0.984 0 0.984h8.578c1.078 0 2.016-0.891 2.016-1.969s-0.938-2.016-2.016-2.016h-10.5c-1.922 0-3.516 1.594-3.516 3.516s1.594 3.469 3.516 3.469h9.516v2.016h-9.516c-3.047 0-5.484-2.438-5.484-5.484z"></path>
</svg>
