<!-- Generated by IcoMoon.io -->
<svg version="1.1" xmlns="http://www.w3.org/2000/svg" width="24" height="24" viewBox="0 0 24 24">
<title>attach_money</title>
<path d="M11.813 10.922c2.25 0.609 4.688 1.5 4.688 4.359 0 2.063-1.547 3.188-3.516 3.563v2.156h-3v-2.156c-1.922-0.422-3.516-1.641-3.656-3.844h2.203c0.094 1.172 0.891 2.109 2.953 2.109 2.203 0 2.719-1.078 2.719-1.781 0-0.938-0.516-1.828-3-2.438-2.813-0.656-4.688-1.828-4.688-4.125 0-1.922 1.547-3.188 3.469-3.609v-2.156h3v2.203c2.109 0.516 3.188 2.063 3.234 3.797h-2.203c-0.047-1.266-0.75-2.109-2.531-2.109-1.688 0-2.672 0.797-2.672 1.875 0 0.938 0.75 1.547 3 2.156z"></path>
</svg>
