<!-- Generated by IcoMoon.io -->
<svg version="1.1" xmlns="http://www.w3.org/2000/svg" width="24" height="24" viewBox="0 0 24 24">
<title>autorenew</title>
<path d="M18.75 7.734c0.797 1.219 1.266 2.719 1.266 4.266 0 4.406-3.609 8.016-8.016 8.016v3l-3.984-4.031 3.984-3.984v3c3.328 0 6-2.672 6-6 0-1.031-0.281-1.969-0.703-2.813zM12 6c-3.328 0-6 2.672-6 6 0 1.031 0.234 1.969 0.703 2.813l-1.453 1.453c-0.797-1.219-1.266-2.719-1.266-4.266 0-4.406 3.609-8.016 8.016-8.016v-3l3.984 4.031-3.984 3.984v-3z"></path>
</svg>
