<!-- Generated by IcoMoon.io -->
<svg version="1.1" xmlns="http://www.w3.org/2000/svg" width="24" height="24" viewBox="0 0 24 24">
<title>av_timer</title>
<path d="M6 12c0-0.563 0.422-0.984 0.984-0.984s1.031 0.422 1.031 0.984-0.469 0.984-1.031 0.984-0.984-0.422-0.984-0.984zM18 12c0 0.563-0.422 0.984-0.984 0.984s-1.031-0.422-1.031-0.984 0.469-0.984 1.031-0.984 0.984 0.422 0.984 0.984zM11.016 3h0.984c4.969 0 9 4.031 9 9s-4.031 9-9 9-9-4.031-9-9c0-2.953 1.406-5.531 3.609-7.172v-0.047l6.797 6.797-1.406 1.406-5.438-5.391c-0.984 1.219-1.547 2.719-1.547 4.406 0 3.891 3.094 6.984 6.984 6.984s6.984-3.094 6.984-6.984c0-3.516-2.625-6.469-6-6.938v1.922h-1.969v-3.984zM11.016 17.016c0-0.563 0.422-1.031 0.984-1.031s0.984 0.469 0.984 1.031-0.422 0.984-0.984 0.984-0.984-0.422-0.984-0.984z"></path>
</svg>
