<!-- Generated by IcoMoon.io -->
<svg version="1.1" xmlns="http://www.w3.org/2000/svg" width="26" height="24" viewBox="0 0 26 24">
<title>backup</title>
<path d="M14.857 0.857c6.152 0 11.143 4.991 11.143 11.143s-4.991 11.143-11.143 11.143c-2.554 0-4.933-0.871-6.79-2.321l1.741-1.741c1.451 0.987 3.192 1.567 5.049 1.567 4.817 0 8.647-3.83 8.647-8.647s-3.83-8.647-8.647-8.647-8.647 3.83-8.647 8.647h3.714l-4.991 4.933-4.933-4.933h3.714c0-6.152 4.991-11.143 11.143-11.143zM17.353 12c0 1.335-1.161 2.496-2.496 2.496s-2.496-1.161-2.496-2.496 1.161-2.496 2.496-2.496 2.496 1.161 2.496 2.496z"></path>
</svg>
