<!-- Generated by IcoMoon.io -->
<svg version="1.1" xmlns="http://www.w3.org/2000/svg" width="32" height="32" viewBox="0 0 32 32">
<title>barcode-scan</title>
<path d="M24.667 21.333c-0.369 0-0.667 0.298-0.667 0.667v1.333c0 0.369 0.298 0.667 0.667 0.667s0.667-0.298 0.667-0.667v-1.333c-0-0.369-0.298-0.667-0.667-0.667z"></path>
<path d="M20.667 21.333c-0.369 0-0.667 0.298-0.667 0.667v1.333c0 0.369 0.298 0.667 0.667 0.667s0.667-0.298 0.667-0.667v-1.333c-0-0.369-0.298-0.667-0.667-0.667z"></path>
<path d="M14 21.333c-0.368 0-0.667 0.298-0.667 0.667v1.333c0 0.369 0.298 0.667 0.667 0.667s0.667-0.298 0.667-0.667v-1.333c0-0.369-0.298-0.667-0.667-0.667z"></path>
<path d="M11.333 21.333c-0.368 0-0.667 0.298-0.667 0.667v1.333c0 0.369 0.298 0.667 0.667 0.667s0.667-0.298 0.667-0.667v-1.333c0-0.369-0.298-0.667-0.667-0.667z"></path>
<path d="M8.667 21.333c-0.368 0-0.667 0.298-0.667 0.667v1.333c0 0.369 0.298 0.667 0.667 0.667s0.667-0.298 0.667-0.667v-1.333c-0-0.369-0.298-0.667-0.667-0.667z"></path>
<path d="M29.333 4h-2c-0.369 0-0.667 0.298-0.667 0.667s0.298 0.667 0.667 0.667h2c0.736 0 1.333 0.598 1.333 1.333v2c0 0.368 0.298 0.667 0.667 0.667s0.667-0.298 0.667-0.667v-2c0-1.471-1.197-2.667-2.667-2.667z"></path>
<path d="M0.667 9.333c0.369 0 0.667-0.298 0.667-0.667v-2c0-0.735 0.598-1.333 1.333-1.333h2c0.369 0 0.667-0.298 0.667-0.667s-0.298-0.667-0.667-0.667h-2c-1.47 0-2.667 1.196-2.667 2.667v2c0 0.368 0.298 0.667 0.667 0.667z"></path>
<path d="M31.333 22.667c-0.369 0-0.667 0.298-0.667 0.667v2c0 0.735-0.598 1.333-1.333 1.333h-2c-0.369 0-0.667 0.298-0.667 0.667s0.298 0.667 0.667 0.667h2c1.47-0 2.667-1.196 2.667-2.667v-2c0-0.368-0.298-0.667-0.667-0.667z"></path>
<path d="M4.667 26.667h-2c-0.736 0-1.333-0.598-1.333-1.333v-2c0-0.369-0.298-0.667-0.667-0.667s-0.667 0.298-0.667 0.667v2c0 1.471 1.197 2.667 2.667 2.667h2c0.369 0 0.667-0.298 0.667-0.667s-0.298-0.667-0.667-0.667z"></path>
<path d="M31.333 14.667h-30.667c-0.368 0-0.667 0.298-0.667 0.667s0.298 0.667 0.667 0.667h3.333v7.333c0 0.369 0.298 0.667 0.667 0.667s0.667-0.298 0.667-0.667v-7.333h2.667v3.333c0 0.369 0.298 0.667 0.667 0.667s0.667-0.298 0.667-0.667v-3.333h1.333v3.333c0 0.369 0.298 0.667 0.667 0.667s0.667-0.298 0.667-0.667v-3.333h1.333v3.333c0 0.369 0.298 0.667 0.667 0.667s0.667-0.298 0.667-0.667v-3.333h2.667v7.333c0 0.369 0.298 0.667 0.667 0.667s0.667-0.298 0.667-0.667v-7.333h1.333v3.333c0 0.369 0.298 0.667 0.667 0.667s0.667-0.298 0.667-0.667v-3.333h2.667v3.333c0 0.369 0.298 0.667 0.667 0.667s0.667-0.298 0.667-0.667v-3.333h1.333v7.333c0 0.369 0.298 0.667 0.667 0.667s0.667-0.298 0.667-0.667v-7.333h3.333c0.369 0 0.667-0.298 0.667-0.667s-0.298-0.667-0.667-0.667z"></path>
<path d="M4.667 8c-0.369 0-0.667 0.298-0.667 0.667v4c0 0.368 0.298 0.667 0.667 0.667s0.667-0.298 0.667-0.667v-4c-0-0.368-0.298-0.667-0.667-0.667z"></path>
<path d="M8.667 13.333c0.368 0 0.667-0.298 0.667-0.667v-4c0-0.368-0.298-0.667-0.667-0.667s-0.667 0.298-0.667 0.667v4c0 0.369 0.298 0.667 0.667 0.667z"></path>
<path d="M11.333 13.333c0.368 0 0.667-0.298 0.667-0.667v-4c0-0.368-0.298-0.667-0.667-0.667s-0.667 0.298-0.667 0.667v4c0 0.369 0.298 0.667 0.667 0.667z"></path>
<path d="M14 13.333c0.368 0 0.667-0.298 0.667-0.667v-4c0-0.368-0.298-0.667-0.667-0.667s-0.667 0.298-0.667 0.667v4c0 0.369 0.298 0.667 0.667 0.667z"></path>
<path d="M18 13.333c0.369 0 0.667-0.298 0.667-0.667v-4c0-0.368-0.298-0.667-0.667-0.667s-0.667 0.298-0.667 0.667v4c0 0.369 0.298 0.667 0.667 0.667z"></path>
<path d="M20.667 13.333c0.369 0 0.667-0.298 0.667-0.667v-4c0-0.368-0.298-0.667-0.667-0.667s-0.667 0.298-0.667 0.667v4c0 0.369 0.298 0.667 0.667 0.667z"></path>
<path d="M24.667 13.333c0.369 0 0.667-0.298 0.667-0.667v-4c0-0.368-0.298-0.667-0.667-0.667s-0.667 0.298-0.667 0.667v4c0 0.368 0.298 0.667 0.667 0.667z"></path>
<path d="M27.333 13.333c0.369 0 0.667-0.298 0.667-0.667v-4c0-0.368-0.298-0.667-0.667-0.667s-0.667 0.298-0.667 0.667v4c0 0.369 0.298 0.667 0.667 0.667z"></path>
</svg>
