<!-- Generated by IcoMoon.io -->
<svg version="1.1" xmlns="http://www.w3.org/2000/svg" width="24" height="24" viewBox="0 0 24 24">
<title>battery_unknown</title>
<path d="M14.297 12.703c0.422-0.422 0.703-1.031 0.703-1.688 0-1.641-1.359-3-3-3s-3 1.359-3 3h1.5c0-0.844 0.656-1.5 1.5-1.5s1.5 0.656 1.5 1.5c0 0.422-0.141 0.75-0.422 1.031l-0.938 0.938c-0.469 0.469-0.938 1.172-0.938 2.016h1.594c0-0.469 0.375-1.125 0.844-1.594 0.281-0.281 0.656-0.703 0.656-0.703zM12.938 17.953v-1.922h-1.875v1.922h1.875zM15.656 3.984c0.75 0 1.359 0.609 1.359 1.359v15.328c0 0.75-0.609 1.313-1.359 1.313h-7.313c-0.75 0-1.359-0.563-1.359-1.313v-15.328c0-0.75 0.609-1.359 1.359-1.359h1.641v-1.969h4.031v1.969h1.641z"></path>
</svg>
