<!-- Generated by IcoMoon.io -->
<svg version="1.1" xmlns="http://www.w3.org/2000/svg" width="32" height="32" viewBox="0 0 32 32">
<title>business</title>
<path fill="#f7b081" d="M23.268 14.887c-0.166-1.013-0.701-2.221-2.307-2.221-0.229 0-0.424 0.165-0.463 0.391l-0.308 1.813c-0.122 0.716-0.289 1.399-0.496 2.028-0.575 1.743-1.3 2.636-2.587 3.187-0.618 0.264-1.12 0.491-1.321 0.582h-2.406c-0.259 0-0.47 0.21-0.47 0.47v8.504c0 0.259 0.21 0.47 0.47 0.47h2.342l1.009 0.817c0.847 0.686 1.914 1.063 3.003 1.063h2.86c0.259 0 0.47-0.21 0.47-0.47 0-0.175-0.096-0.328-0.239-0.409v-9.376h-0.584l0.983-4.953c0.129-0.649 0.144-1.287 0.044-1.896z"></path>
<path fill="#efe7e4" d="M13.38 19.822h-3.648c-0.259 0-0.47 0.21-0.47 0.47v10.039c0 0.259 0.21 0.47 0.47 0.47h3.648c0.259 0 0.47-0.21 0.47-0.47v-10.039c0-0.259-0.21-0.47-0.47-0.47z"></path>
<path fill="#d8d1d0" d="M9.263 28.929v1.401c0 0.259 0.21 0.47 0.47 0.47h3.648c0.259 0 0.47-0.21 0.47-0.47v-1.401h-4.587z"></path>
<path fill="#dd9a76" d="M21.561 30.647c0-0.747 0.606-1.353 1.353-1.353-0.747 0-1.353-0.606-1.353-1.353s0.606-1.353 1.353-1.353c-0.747 0-1.353-0.606-1.353-1.353s0.606-1.353 1.353-1.353c-0.747 0-1.353-0.606-1.353-1.353s0.606-1.353 1.353-1.353h-1.535c-0.747 0-1.353 0.606-1.353 1.353s0.606 1.353 1.353 1.353c-0.747 0-1.353 0.606-1.353 1.353s0.606 1.353 1.353 1.353c-0.747 0-1.353 0.606-1.353 1.353s0.606 1.353 1.353 1.353c-0.747 0-1.353 0.606-1.353 1.353s0.606 1.353 1.353 1.353h1.535c-0.747-0-1.353-0.606-1.353-1.353z"></path>
<path fill="#f7cb4f" d="M10.79 6.775c-0.104-0.32-0.376-0.549-0.709-0.598l-2.135-0.31-0.955-1.935c-0.149-0.302-0.451-0.49-0.788-0.49s-0.638 0.188-0.787 0.49l-0.955 1.935-2.135 0.31c-0.333 0.048-0.605 0.277-0.709 0.598s-0.019 0.665 0.222 0.9l1.545 1.506-0.365 2.126c-0.057 0.332 0.077 0.661 0.349 0.859 0.154 0.112 0.334 0.169 0.515 0.169 0.14 0 0.28-0.034 0.409-0.102l1.909-1.004 1.909 1.004c0.298 0.157 0.652 0.131 0.925-0.067s0.406-0.527 0.349-0.859l-0.365-2.126 1.545-1.506c0.241-0.235 0.326-0.58 0.222-0.9z"></path>
<path fill="#fbab00" d="M10.081 6.177l-0.047-0.007-2.414 2.383c-0.124 0.121-0.181 0.295-0.151 0.466l0.569 3.174 0.076 0.040c0.298 0.157 0.652 0.131 0.925-0.067s0.406-0.527 0.349-0.859l-0.365-2.126 1.545-1.506c0.241-0.235 0.326-0.58 0.222-0.9s-0.376-0.549-0.709-0.597z"></path>
<path fill="#f7cb4f" d="M20.667 3.332c-0.104-0.32-0.376-0.549-0.709-0.598l-2.135-0.31-0.955-1.935c-0.149-0.302-0.451-0.489-0.788-0.489s-0.638 0.188-0.787 0.489l-0.955 1.935-2.135 0.31c-0.333 0.048-0.605 0.277-0.709 0.598s-0.019 0.665 0.222 0.9l1.545 1.506-0.365 2.126c-0.057 0.332 0.077 0.661 0.349 0.859s0.627 0.223 0.925 0.067l1.91-1.004 1.91 1.004c0.13 0.068 0.27 0.102 0.41 0.102 0.181 0 0.361-0.057 0.515-0.169 0.272-0.198 0.406-0.527 0.349-0.859l-0.365-2.126 1.545-1.506c0.241-0.235 0.326-0.58 0.222-0.9z"></path>
<path fill="#fbab00" d="M18.915 8.723c0.272-0.198 0.406-0.527 0.349-0.859l-0.365-2.126 1.545-1.506c0.241-0.235 0.326-0.58 0.222-0.9s-0.376-0.549-0.709-0.598l-0.020-0.003-2.442 2.379c-0.124 0.121-0.181 0.295-0.151 0.466l0.442 2.577 0.106 0.586 0.097 0.051c0.13 0.068 0.27 0.102 0.41 0.102 0.181 0 0.361-0.057 0.515-0.168z"></path>
<path fill="#f7cb4f" d="M30.525 6.775c-0.104-0.32-0.376-0.549-0.709-0.598l-2.135-0.31-0.955-1.935c-0.149-0.302-0.451-0.49-0.788-0.49s-0.638 0.188-0.788 0.49l-0.955 1.935-2.135 0.31c-0.333 0.048-0.605 0.277-0.709 0.598s-0.019 0.665 0.222 0.9l1.545 1.506-0.365 2.126c-0.057 0.332 0.077 0.661 0.349 0.859s0.627 0.224 0.925 0.067l1.91-1.004 1.91 1.004c0.13 0.068 0.27 0.102 0.41 0.102 0.181 0 0.361-0.057 0.515-0.169 0.272-0.198 0.406-0.527 0.349-0.859l-0.365-2.126 1.545-1.506c0.241-0.235 0.326-0.58 0.222-0.9z"></path>
<path fill="#fbab00" d="M30.525 6.775c-0.104-0.32-0.376-0.549-0.709-0.598l-0.038-0.005-2.424 2.381c-0.124 0.121-0.181 0.295-0.151 0.466l0.513 3.145 0.132 0.069c0.13 0.068 0.27 0.102 0.41 0.102 0.181 0 0.361-0.057 0.515-0.169 0.272-0.198 0.406-0.527 0.349-0.859l-0.365-2.126 1.545-1.506c0.241-0.235 0.326-0.58 0.222-0.9z"></path>
<path fill="#546f7a" d="M9.733 18.846h-7.892c-0.259 0-0.47 0.21-0.47 0.47v11.991c0 0.259 0.21 0.47 0.47 0.47h7.892c0.259 0 0.47-0.21 0.47-0.47v-11.991c0-0.259-0.21-0.47-0.47-0.47z"></path>
<path fill="#465a65" d="M1.371 29.975v1.331c0 0.259 0.21 0.47 0.47 0.47h7.892c0.259 0 0.47-0.21 0.47-0.47v-1.331h-8.831z"></path>
<path fill="#353535" d="M7.987 28.893c0 0.413-0.335 0.748-0.748 0.748s-0.748-0.335-0.748-0.748c0-0.413 0.335-0.748 0.748-0.748s0.748 0.335 0.748 0.748z"></path>
<path fill="#ffc89f" d="M27.548 21.179h-4.891c-0.867 0-1.573 0.706-1.573 1.573v0.263c0 0.867 0.706 1.573 1.573 1.573h4.891c0.867 0 1.573-0.706 1.573-1.573v-0.263c0-0.867-0.706-1.573-1.573-1.573z"></path>
<path fill="#f7b081" d="M27.548 23.071h-4.891c-0.645 0-1.2-0.39-1.442-0.946-0.084 0.192-0.131 0.404-0.131 0.627v0.263c0 0.867 0.706 1.573 1.573 1.573h4.891c0.867 0 1.573-0.706 1.573-1.573v-0.263c0-0.223-0.047-0.435-0.131-0.627-0.243 0.556-0.798 0.946-1.442 0.946z"></path>
<path fill="#ffc89f" d="M28.119 23.649h-5.462c-0.867 0-1.573 0.706-1.573 1.573v0.263c0 0.867 0.706 1.573 1.573 1.573h5.462c0.867 0 1.573-0.706 1.573-1.573v-0.263c0-0.867-0.706-1.573-1.573-1.573z"></path>
<path fill="#f7b081" d="M28.119 25.556h-5.462c-0.648 0-1.205-0.393-1.446-0.953-0.082 0.19-0.127 0.4-0.127 0.62v0.263c0 0.867 0.706 1.573 1.573 1.573h5.462c0.867 0 1.573-0.706 1.573-1.573v-0.263c0-0.22-0.046-0.429-0.127-0.62-0.241 0.56-0.798 0.953-1.446 0.953z"></path>
<path fill="#ffc89f" d="M27.417 26.12h-4.628c-0.94 0-1.705 0.765-1.705 1.705s0.765 1.705 1.705 1.705h4.628c0.94 0 1.705-0.765 1.705-1.705s-0.765-1.705-1.705-1.705z"></path>
<path fill="#f7b081" d="M27.417 27.997h-4.628c-0.665 0-1.241-0.382-1.522-0.939-0.117 0.231-0.183 0.491-0.183 0.766 0 0.94 0.765 1.705 1.705 1.705h4.628c0.94 0 1.705-0.765 1.705-1.705 0-0.276-0.066-0.536-0.183-0.766-0.281 0.556-0.858 0.939-1.522 0.939z"></path>
<path fill="#ffc89f" d="M26.143 28.59h-3.354c-0.94 0-1.705 0.765-1.705 1.705s0.765 1.705 1.705 1.705h3.354c0.94 0 1.705-0.765 1.705-1.705s-0.765-1.705-1.705-1.705z"></path>
<path fill="#f7b081" d="M26.143 30.468h-3.354c-0.665 0-1.241-0.383-1.522-0.939-0.116 0.23-0.182 0.49-0.182 0.766 0 0.94 0.765 1.705 1.705 1.705h3.354c0.94 0 1.705-0.765 1.705-1.705 0-0.275-0.066-0.535-0.182-0.766-0.281 0.556-0.858 0.939-1.522 0.939z"></path>
</svg>
