<!-- Generated by IcoMoon.io -->
<svg version="1.1" xmlns="http://www.w3.org/2000/svg" width="32" height="32" viewBox="0 0 32 32">
<title>business-card</title>
<path d="M15.61 18.366h-0.778c-0.404 0-0.731-0.327-0.731-0.73 0-0.149 0.060-0.294 0.167-0.398 0.453-0.44 0.834-1.032 1.109-1.67 0.056 0.041 0.116 0.071 0.184 0.071 0.437 0 0.952-0.966 0.952-1.624s-0.061-1.192-0.499-1.192c-0.052 0-0.106 0.009-0.162 0.023-0.031-1.785-0.482-4.013-3.208-4.013-2.844 0-3.176 2.223-3.208 4.007-0.040-0.008-0.080-0.017-0.117-0.017-0.438 0-0.498 0.534-0.498 1.192s0.513 1.624 0.951 1.624c0.054 0 0.104-0.015 0.151-0.042 0.275 0.628 0.65 1.208 1.096 1.644 0.107 0.104 0.167 0.246 0.167 0.397 0 0.404-0.328 0.731-0.731 0.731h-0.78c-1.665 0-3.015 1.35-3.015 3.015v0.836c0 0.525 0.426 0.952 0.952 0.952h10.061c0.525 0 0.951-0.427 0.951-0.952v-0.836c0.001-1.667-1.349-3.018-3.014-3.018z"></path>
<path d="M24.636 10.096h-8.437c0.243 0.539 0.418 1.202 0.49 2.023 0.18 0.111 0.316 0.291 0.426 0.507h7.521c0.391 0 0.705-0.316 0.705-0.705v-1.119c0-0.389-0.315-0.705-0.705-0.705z"></path>
<path d="M24.636 14.706h-7.349c-0.199 0.753-0.69 1.542-1.371 1.752-0.020 0.037-0.043 0.069-0.064 0.106v0.671h8.783c0.39 0 0.705-0.316 0.705-0.706v-1.118c0.001-0.39-0.314-0.705-0.704-0.705z"></path>
<path d="M24.636 19.315h-5.737c0.379 0.599 0.601 1.305 0.601 2.066v0.464h5.136c0.391 0 0.705-0.316 0.705-0.705v-1.119c0-0.39-0.315-0.705-0.705-0.705z"></path>
<path d="M27.668 3.062h-23.334c-2.394 0-4.333 1.94-4.333 4.333v17.209c0 2.395 1.94 4.333 4.333 4.333h23.334c2.394 0 4.332-1.94 4.332-4.333v-17.209c0-2.394-1.939-4.333-4.332-4.333zM29.955 24.604c0 1.261-1.026 2.287-2.287 2.287h-23.334c-1.261 0-2.287-1.026-2.287-2.287v-17.209c0-1.261 1.026-2.287 2.287-2.287h23.334c1.261 0 2.287 1.026 2.287 2.287v17.209z"></path>
</svg>
