<!-- Generated by IcoMoon.io -->
<svg version="1.1" xmlns="http://www.w3.org/2000/svg" width="24" height="24" viewBox="0 0 24 24">
<title>business_center</title>
<path d="M14.016 6.984v-1.969h-4.031v1.969h4.031zM20.016 6.984c1.078 0 1.969 0.938 1.969 2.016v3c0 1.078-0.891 2.016-1.969 2.016h-6v-2.016h-4.031v2.016h-6c-1.125 0-1.969-0.891-1.969-2.016v-3c0-1.078 0.891-2.016 1.969-2.016h3.984v-1.969l2.016-2.016h3.984l2.016 2.016v1.969h4.031zM9.984 15.984h4.031v-0.984h6.984v3.984c0 1.125-0.891 2.016-2.016 2.016h-13.969c-1.125 0-2.016-0.891-2.016-2.016v-3.984h6.984v0.984z"></path>
</svg>
