<!-- Generated by IcoMoon.io -->
<svg version="1.1" xmlns="http://www.w3.org/2000/svg" width="24" height="24" viewBox="0 0 24 24">
<title>cached</title>
<path d="M6 12h3l-3.984 3.984-4.031-3.984h3c0-4.406 3.609-8.016 8.016-8.016 1.547 0 3.047 0.469 4.266 1.266l-1.453 1.453c-0.844-0.469-1.781-0.703-2.813-0.703-3.328 0-6 2.672-6 6zM18.984 8.016l4.031 3.984h-3c0 4.406-3.609 8.016-8.016 8.016-1.547 0-3.047-0.469-4.266-1.266l1.453-1.453c0.844 0.469 1.781 0.703 2.813 0.703 3.328 0 6-2.672 6-6h-3z"></path>
</svg>
