<!-- Generated by IcoMoon.io -->
<svg version="1.1" xmlns="http://www.w3.org/2000/svg" width="24" height="24" viewBox="0 0 24 24">
<title>cake</title>
<path d="M18 9c1.641 0 3 1.359 3 3v1.547c0 1.078-0.891 1.969-1.969 1.969-0.516 0-0.984-0.188-1.359-0.563l-2.156-2.156-2.156 2.156c-0.75 0.75-2.016 0.75-2.766 0l-2.109-2.156-2.156 2.156c-0.375 0.375-0.844 0.563-1.359 0.563-1.078 0-1.969-0.891-1.969-1.969v-1.547c0-1.641 1.359-3 3-3h5.016v-2.016h1.969v2.016h5.016zM16.594 15.984c0.656 0.656 1.5 1.031 2.438 1.031 0.75 0 1.406-0.234 1.969-0.609v4.594c0 0.563-0.422 0.984-0.984 0.984h-16.031c-0.563 0-0.984-0.422-0.984-0.984v-4.594c0.563 0.375 1.219 0.609 1.969 0.609 0.938 0 1.781-0.375 2.438-1.031l1.078-1.078 1.078 1.078c1.313 1.313 3.563 1.313 4.875 0l1.078-1.078zM12 6c-1.078 0-2.016-0.938-2.016-2.016 0-0.375 0.141-0.75 0.328-1.031l1.688-2.953 1.688 2.953c0.188 0.281 0.328 0.656 0.328 1.031 0 1.078-0.891 2.016-2.016 2.016z"></path>
</svg>
