<!-- Generated by IcoMoon.io -->
<svg version="1.1" xmlns="http://www.w3.org/2000/svg" width="24" height="24" viewBox="0 0 24 24">
<title>call_end</title>
<path d="M12 9c-1.594 0-3.141 0.234-4.594 0.703v3.094c0 0.375-0.234 0.797-0.563 0.938-0.984 0.469-1.875 1.078-2.672 1.828-0.188 0.188-0.422 0.281-0.703 0.281s-0.516-0.094-0.703-0.281l-2.484-2.484c-0.188-0.188-0.281-0.422-0.281-0.703s0.094-0.516 0.281-0.703c3.047-2.906 7.172-4.688 11.719-4.688s8.672 1.781 11.719 4.688c0.188 0.188 0.281 0.422 0.281 0.703s-0.094 0.516-0.281 0.703l-2.484 2.484c-0.188 0.188-0.422 0.281-0.703 0.281s-0.516-0.094-0.703-0.281c-0.797-0.75-1.688-1.359-2.672-1.828-0.328-0.141-0.563-0.469-0.563-0.891v-3.094c-1.453-0.469-3-0.75-4.594-0.75z"></path>
</svg>
