<!-- Generated by IcoMoon.io -->
<svg version="1.1" xmlns="http://www.w3.org/2000/svg" width="24" height="24" viewBox="0 0 24 24">
<title>camera_enhance</title>
<path d="M12 17.016l-1.266-2.766-2.719-1.266 2.719-1.219 1.266-2.766 1.266 2.766 2.719 1.219-2.719 1.266zM12 18c2.766 0 5.016-2.25 5.016-5.016s-2.25-4.969-5.016-4.969-5.016 2.203-5.016 4.969 2.25 5.016 5.016 5.016zM9 3h6l1.828 2.016h3.188c1.078 0 1.969 0.891 1.969 1.969v12c0 1.078-0.891 2.016-1.969 2.016h-16.031c-1.078 0-1.969-0.938-1.969-2.016v-12c0-1.078 0.891-1.969 1.969-1.969h3.188z"></path>
</svg>
