<!-- Generated by IcoMoon.io -->
<svg version="1.1" xmlns="http://www.w3.org/2000/svg" width="24" height="24" viewBox="0 0 24 24">
<title>card_travel</title>
<path d="M20.016 14.016v-6h-3v1.969h-2.016v-1.969h-6v1.969h-2.016v-1.969h-3v6h16.031zM20.016 18.984v-1.969h-16.031v1.969h16.031zM9 3.984v2.016h6v-2.016h-6zM20.016 6c1.125 0 1.969 0.891 1.969 2.016v10.969c0 1.125-0.844 2.016-1.969 2.016h-16.031c-1.125 0-1.969-0.891-1.969-2.016v-10.969c0-1.125 0.844-2.016 1.969-2.016h3v-2.016c0-1.125 0.891-1.969 2.016-1.969h6c1.125 0 2.016 0.844 2.016 1.969v2.016h3z"></path>
</svg>
