<!-- Generated by IcoMoon.io -->
<svg version="1.1" xmlns="http://www.w3.org/2000/svg" width="24" height="24" viewBox="0 0 24 24">
<title>cloud_off</title>
<path d="M7.734 9.984h-1.734c-2.203 0-3.984 1.828-3.984 4.031s1.781 3.984 3.984 3.984h9.75zM3 5.25l1.266-1.266 16.734 16.734-1.266 1.266-2.016-1.969h-11.719c-3.328 0-6-2.672-6-6 0-3.234 2.578-5.859 5.766-6zM19.359 10.031c2.578 0.188 4.641 2.344 4.641 4.969 0 1.688-0.844 3.188-2.109 4.078l-1.453-1.453c0.938-0.516 1.547-1.5 1.547-2.625 0-1.641-1.359-3-3-3h-1.5v-0.516c0-3.047-2.438-5.484-5.484-5.484-0.938 0-1.781 0.188-2.531 0.609l-1.5-1.453c1.172-0.75 2.531-1.172 4.031-1.172 3.656 0 6.656 2.578 7.359 6.047z"></path>
</svg>
