<!-- Generated by IcoMoon.io -->
<svg version="1.1" xmlns="http://www.w3.org/2000/svg" width="24" height="24" viewBox="0 0 24 24">
<title>cloud_queue</title>
<path d="M18.984 18c1.641 0 3-1.359 3-3s-1.359-3-3-3h-1.5v-0.516c0-3.047-2.438-5.484-5.484-5.484-2.531 0-4.641 1.688-5.297 3.984h-0.703c-2.203 0-3.984 1.828-3.984 4.031s1.781 3.984 3.984 3.984h12.984zM19.359 10.031c2.578 0.188 4.641 2.344 4.641 4.969 0 2.766-2.25 5.016-5.016 5.016h-12.984c-3.328 0-6-2.672-6-6 0-3.094 2.344-5.625 5.344-5.953 1.266-2.391 3.75-4.078 6.656-4.078 3.656 0 6.656 2.578 7.359 6.047z"></path>
</svg>
