<!-- Generated by IcoMoon.io -->
<svg version="1.1" xmlns="http://www.w3.org/2000/svg" width="32" height="32" viewBox="0 0 32 32">
<title>coin</title>
<path fill="#f4bf1a" d="M24.231 24.388c-5.58 5.58-13.841 6.518-19.227 2.451 0.33 0.438 0.69 0.858 1.086 1.255 5.278 5.278 14.449 4.667 20.482-1.366s6.644-15.203 1.365-20.482c-0.396-0.397-0.817-0.756-1.255-1.086 4.066 5.386 3.128 13.647-2.451 19.227z"></path>
<path fill="#ffd949" d="M25.596 3.906c5.279 5.279 4.668 14.449-1.366 20.482s-15.203 6.644-20.482 1.366c-5.279-5.279-4.668-14.449 1.366-20.482s15.203-6.644 20.482-1.366z"></path>
<path fill="#f4bf1a" d="M12.74 27.138c-2.893 0-5.531-1.046-7.431-2.945-4.41-4.41-3.798-12.198 1.366-17.361 2.739-2.74 6.359-4.311 9.93-4.311 2.893 0 5.531 1.046 7.431 2.945 4.41 4.41 3.798 12.198-1.366 17.361-2.739 2.739-6.358 4.311-9.93 4.311z"></path>
<path fill="#dca815" d="M24.605 23.982l2.348 2.348c0.254-0.27 0.5-0.546 0.733-0.827l-2.344-2.344c-0.233 0.281-0.483 0.553-0.737 0.823z"></path>
<path fill="#dca815" d="M22.563 25.841l2.349 2.349c0.29-0.225 0.573-0.462 0.852-0.708l-2.345-2.345c-0.28 0.247-0.566 0.479-0.856 0.705z"></path>
<path fill="#dca815" d="M26.343 21.818l2.348 2.348c0.213-0.314 0.415-0.633 0.604-0.956l-2.343-2.343c-0.19 0.323-0.397 0.638-0.609 0.951z"></path>
<path fill="#dca815" d="M27.746 19.32l2.35 2.35c0.166-0.365 0.316-0.734 0.454-1.106l-2.347-2.347c-0.137 0.371-0.291 0.739-0.457 1.103z"></path>
<path fill="#dca815" d="M20.204 27.384l2.348 2.348c0.333-0.18 0.663-0.369 0.987-0.574l-2.35-2.349c-0.324 0.205-0.653 0.395-0.985 0.575z"></path>
<path fill="#dca815" d="M17.48 28.561l2.348 2.348c0.382-0.126 0.764-0.264 1.141-0.42l-2.347-2.346c-0.377 0.156-0.758 0.294-1.142 0.419z"></path>
<path fill="#dca815" d="M13.548 29.31l2.35 2.35c0.47-0.026 0.941-0.076 1.413-0.147l-2.351-2.351c-0.472 0.071-0.942 0.122-1.412 0.148z"></path>
<path fill="#dca815" d="M9.207 28.871l2.356 2.356c0.629 0.169 1.272 0.291 1.926 0.366l-2.355-2.355c-0.654-0.076-1.297-0.196-1.927-0.366z"></path>
<path fill="#dca815" d="M28.893 15.785l2.346 2.346c0.089-0.451 0.158-0.903 0.206-1.354l-2.349-2.349c-0.047 0.452-0.114 0.905-0.203 1.357z"></path>
<path fill="#dca815" d="M31.505 14.497c-0.031-0.595-0.097-1.185-0.204-1.764l-2.362-2.362c0.11 0.588 0.194 1.182 0.226 1.786l2.34 2.34z"></path>
<path fill="#d1d4d2" d="M3.153 31.448c-1.521 0-2.759-1.238-2.759-2.759 0-0.305 0.247-0.552 0.552-0.552s0.552 0.247 0.552 0.552c0 0.913 0.743 1.655 1.655 1.655 0.305 0 0.552 0.247 0.552 0.552s-0.247 0.552-0.552 0.552z"></path>
<path fill="#d1d4d2" d="M30.739 3.862c-0.305 0-0.552-0.247-0.552-0.552 0-1.217-0.743-2.207-1.655-2.207-0.305 0-0.552-0.247-0.552-0.552s0.247-0.552 0.552-0.552c1.521 0 2.759 1.485 2.759 3.31 0 0.305-0.247 0.552-0.552 0.552z"></path>
<path fill="#d1d4d2" d="M25.222 30.897c-0.305 0-0.552-0.247-0.552-0.552s0.247-0.552 0.552-0.552c2.738 0 4.966-2.228 4.966-4.966 0-0.305 0.247-0.552 0.552-0.552s0.552 0.247 0.552 0.552c0 3.346-2.723 6.069-6.069 6.069z"></path>
<path fill="#d1d4d2" d="M29.084 32c-0.305 0-0.552-0.247-0.552-0.552s0.247-0.552 0.552-0.552c0.897 0 1.655-0.505 1.655-1.103 0-0.305 0.247-0.552 0.552-0.552s0.552 0.247 0.552 0.552c0 1.217-1.238 2.207-2.759 2.207z"></path>
<path fill="#ffd949" d="M21.090 12.621c-0.132-3.212-2.498-4.452-6.123-4.456-0.161 0-0.318 0.005-0.473 0.015-1.129 0.074-2.181-0.105-2.941-0.619-0.307-0.208-0.552-0.426-0.707-0.654-0.070-0.104-0.265-0.032-0.275 0.1-0.018 0.228-0.030 0.496-0.025 0.791 0.015 1.116-0.095 0.95-0.775 2.003-0.376 0.583-0.676 1.236-0.899 1.938-0.494 0.202-0.897 0.635-1.012 1.168l-0.152 0.707c-0.138 0.639 0.167 1.24 0.712 1.508 0.083 1.59 0.671 3.012 2.082 4.008l-0.177 0.961c-0.046 0.248-0.225 0.442-0.461 0.5l-3.294 0.803c-0.856 0.252-1.511 1.005-1.727 1.981l-0.051 0.232c0.168 0.198 0.333 0.398 0.519 0.584 1.899 1.9 4.538 2.946 7.431 2.946 2.465 0 4.952-0.749 7.158-2.114l-3.757-2.899c-0.246-0.19-0.376-0.481-0.337-0.755l0.151-1.080c2.109-0.371 3.5-1.687 4.311-3.498 0.946-0.109 1.709-0.729 1.789-1.567l0.088-0.924c0.067-0.698-0.376-1.331-1.052-1.681z"></path>
</svg>
