<!-- Generated by IcoMoon.io -->
<svg version="1.1" xmlns="http://www.w3.org/2000/svg" width="24" height="24" viewBox="0 0 24 24">
<title>confirmation_number</title>
<path d="M12.984 8.484v-1.969h-1.969v1.969h1.969zM12.984 12.984v-1.969h-1.969v1.969h1.969zM12.984 17.484v-1.969h-1.969v1.969h1.969zM21.984 9.984c-1.078 0-1.969 0.938-1.969 2.016s0.891 2.016 1.969 2.016v3.984c0 1.078-0.891 2.016-1.969 2.016h-16.031c-1.078 0-1.969-0.938-1.969-2.016v-3.984c1.125 0 1.969-0.938 1.969-2.016s-0.891-2.016-1.969-2.016v-3.984c0-1.125 0.891-2.016 1.969-2.016h16.031c1.078 0 1.969 0.891 1.969 2.016v3.984z"></path>
</svg>
