<!-- Generated by IcoMoon.io -->
<svg version="1.1" xmlns="http://www.w3.org/2000/svg" width="24" height="24" viewBox="0 0 24 24">
<title>control_point_duplicate</title>
<path d="M15 18.984c3.844 0 6.984-3.141 6.984-6.984s-3.141-6.984-6.984-6.984-6.984 3.141-6.984 6.984 3.141 6.984 6.984 6.984zM15 3c4.969 0 9 4.031 9 9s-4.031 9-9 9-9-4.031-9-9 4.031-9 9-9zM2.016 12c0 2.813 1.594 5.203 3.984 6.328v2.156c-3.469-1.219-6-4.594-6-8.484s2.531-7.266 6-8.484v2.156c-2.391 1.125-3.984 3.516-3.984 6.328zM15.984 8.016v3h3v1.969h-3v3h-1.969v-3h-3v-1.969h3v-3h1.969z"></path>
</svg>
