<!-- Generated by IcoMoon.io -->
<svg version="1.1" xmlns="http://www.w3.org/2000/svg" width="24" height="24" viewBox="0 0 24 24">
<title>contact_phone</title>
<path d="M17.859 14.016c-0.234-0.609-0.375-1.313-0.375-2.016s0.141-1.406 0.375-2.016h1.641l1.5-1.969-1.969-2.016c-1.313 0.984-2.297 2.344-2.766 3.984-0.188 0.656-0.281 1.313-0.281 2.016s0.094 1.359 0.281 2.016c0.469 1.594 1.453 3 2.766 3.984l1.969-2.016-1.5-1.969h-1.641zM14.016 18v-0.984c0-2.016-3.984-3.094-6-3.094s-6 1.078-6 3.094v0.984h12zM8.016 6c-1.641 0-3 1.359-3 3s1.359 3 3 3 3-1.359 3-3-1.359-3-3-3zM21.984 3c1.078 0 2.016 0.938 2.016 2.016v13.969c0 1.078-0.938 2.016-2.016 2.016h-19.969c-1.078 0-2.016-0.938-2.016-2.016v-13.969c0-1.078 0.938-2.016 2.016-2.016h19.969z"></path>
</svg>
