<!-- Generated by IcoMoon.io -->
<svg version="1.1" xmlns="http://www.w3.org/2000/svg" width="24" height="24" viewBox="0 0 24 24">
<title>contacts</title>
<path d="M17.016 17.016v-1.5c0-1.688-3.328-2.531-5.016-2.531s-5.016 0.844-5.016 2.531v1.5h10.031zM12 6.75c-1.219 0-2.25 1.031-2.25 2.25s1.031 2.25 2.25 2.25 2.25-1.031 2.25-2.25-1.031-2.25-2.25-2.25zM20.016 3.984c1.078 0 1.969 0.938 1.969 2.016v12c0 1.078-0.891 2.016-1.969 2.016h-16.031c-1.078 0-1.969-0.938-1.969-2.016v-12c0-1.078 0.891-2.016 1.969-2.016h16.031zM3.984 24v-2.016h16.031v2.016h-16.031zM20.016 0v2.016h-16.031v-2.016h16.031z"></path>
</svg>
