<!-- Generated by IcoMoon.io -->
<svg version="1.1" xmlns="http://www.w3.org/2000/svg" width="24" height="24" viewBox="0 0 24 24">
<title>content_cut</title>
<path d="M18.984 3h3v0.984l-6.984 7.031-2.016-2.016zM12 12.516c0.281 0 0.516-0.234 0.516-0.516s-0.234-0.516-0.516-0.516-0.516 0.234-0.516 0.516 0.234 0.516 0.516 0.516zM6 20.016c1.078 0 2.016-0.891 2.016-2.016s-0.938-2.016-2.016-2.016-2.016 0.891-2.016 2.016 0.938 2.016 2.016 2.016zM6 8.016c1.078 0 2.016-0.891 2.016-2.016s-0.938-2.016-2.016-2.016-2.016 0.891-2.016 2.016 0.938 2.016 2.016 2.016zM9.656 7.641l12.328 12.375v0.984h-3l-6.984-6.984-2.344 2.344c0.234 0.516 0.328 1.031 0.328 1.641 0 2.203-1.781 3.984-3.984 3.984s-3.984-1.781-3.984-3.984 1.781-3.984 3.984-3.984c0.609 0 1.125 0.094 1.641 0.328l2.344-2.344-2.344-2.344c-0.516 0.234-1.031 0.328-1.641 0.328-2.203 0-3.984-1.781-3.984-3.984s1.781-3.984 3.984-3.984 3.984 1.781 3.984 3.984c0 0.609-0.094 1.125-0.328 1.641z"></path>
</svg>
