<!-- Generated by IcoMoon.io -->
<svg version="1.1" xmlns="http://www.w3.org/2000/svg" width="24" height="24" viewBox="0 0 24 24">
<title>copyright</title>
<path d="M12 20.016c4.406 0 8.016-3.609 8.016-8.016s-3.609-8.016-8.016-8.016-8.016 3.609-8.016 8.016 3.609 8.016 8.016 8.016zM12 2.016c5.531 0 9.984 4.453 9.984 9.984s-4.453 9.984-9.984 9.984-9.984-4.453-9.984-9.984 4.453-9.984 9.984-9.984zM11.859 9.141c-1.442 0-1.875 1.276-1.875 2.719v0.281c0 1.442 0.434 2.719 1.875 2.719 0.88 0 1.641-0.537 1.641-1.406h1.781c0 0.915-0.495 1.603-1.031 2.063-0.604 0.518-1.308 0.844-2.391 0.844-2.559 0-3.844-1.691-3.844-4.219v-0.281c0-1.212 0.34-2.318 0.938-3 0.619-0.707 1.61-1.266 2.906-1.266 1.038 0 1.904 0.358 2.438 0.891 0.516 0.516 0.984 1.312 0.984 2.297h-1.781c0-0.234-0.047-0.422-0.141-0.609s-0.188-0.422-0.328-0.563c-0.254-0.254-0.688-0.469-1.172-0.469z"></path>
</svg>
