<!-- Generated by IcoMoon.io -->
<svg version="1.1" xmlns="http://www.w3.org/2000/svg" width="24" height="24" viewBox="0 0 24 24">
<title>crop_rotate</title>
<path d="M8.016 15.984h12v2.016h-2.016v2.016h-2.016v-2.016h-7.969c-1.125 0-2.016-0.938-2.016-2.016v-7.969h-2.016v-2.016h2.016v-2.016h2.016v12zM15.984 14.016v-6h-6v-2.016h6c1.078 0 2.016 0.891 2.016 2.016v6h-2.016zM12.047 0c6.281 0 11.438 4.875 11.953 11.016h-1.5c-0.375-3.75-2.672-6.938-5.953-8.484l-1.359 1.313-3.797-3.797c0.234 0 0.422-0.047 0.656-0.047zM7.453 21.469l1.359-1.313 3.797 3.797c-0.234 0-0.422 0.047-0.656 0.047-6.281 0-11.438-4.875-11.953-11.016h1.5c0.375 3.75 2.672 6.938 5.953 8.484z"></path>
</svg>
