<!-- Generated by IcoMoon.io -->
<svg version="1.1" xmlns="http://www.w3.org/2000/svg" width="32" height="32" viewBox="0 0 32 32">
<title>dag-symbol</title>
<path d="M10.956 22.032l-3.142 0.018 3.318-1.071 2.128-10.613-3.049-0.987 3.242 0.021h3.314c1.522 0 2.741 0.48 3.658 1.439s1.376 2.219 1.376 3.783c0 1.417-0.298 2.689-0.891 3.815s-1.407 2.006-2.438 2.642c-1.032 0.636-2.163 0.954-3.392 0.954h-4.124zM15.775 31.999l1.135-5.582c1.46-0.254 2.83-0.709 4.109-1.368 2.084-1.073 3.721-2.574 4.908-4.503 1.188-1.927 1.782-4.111 1.782-6.55 0-1.833-0.412-3.449-1.235-4.846-0.824-1.396-2.001-2.48-3.533-3.251-0.54-0.272-1.124-0.478-1.728-0.654l1.066-5.245h-5.132l-0.964 4.742h-7.547l-4.346 21.918h7.438l-1.085 5.34h5.132z"></path>
</svg>
