<!-- Generated by IcoMoon.io -->
<svg version="1.1" xmlns="http://www.w3.org/2000/svg" width="107" height="32" viewBox="0 0 107 32">
<title>Dagcoin_logo_color_text</title>
<path fill="#272422" d="M47.583 13.018c-0.321-0.577-0.834-1.090-1.539-1.411-0.641-0.321-1.411-0.513-2.309-0.513h-3.784l-1.86 9.427h4.168c1.090 0 2.116-0.256 2.95-0.705 0.898-0.449 1.603-1.090 2.116-1.924s0.77-1.731 0.77-2.822c0-0.77-0.192-1.411-0.513-2.052zM45.21 16.994c-0.257 0.513-0.577 0.834-1.026 1.154-0.449 0.256-0.898 0.385-1.475 0.385h-1.796l1.090-5.387h1.411c0.641 0 1.154 0.192 1.539 0.641 0.385 0.385 0.577 0.962 0.577 1.603 0.064 0.577-0.064 1.154-0.321 1.603zM55.214 11.158h-2.501l-5.579 9.363h2.501l0.898-1.667h4.040l0.385 1.667h2.629l-2.373-9.363zM51.559 16.994l1.86-3.399 0.705 3.399h-2.565zM65.090 15.711h2.116l-0.705 3.719c-0.577 0.385-1.154 0.641-1.86 0.898-0.705 0.192-1.347 0.321-1.988 0.321-0.898 0-1.667-0.192-2.373-0.577s-1.218-0.898-1.603-1.603c-0.385-0.641-0.577-1.411-0.577-2.244 0-0.962 0.257-1.86 0.77-2.629s1.218-1.411 2.052-1.924c0.834-0.449 1.796-0.705 2.886-0.705 0.705 0 1.347 0.128 2.052 0.385 0.641 0.257 1.218 0.577 1.667 1.026l-1.539 1.731c-0.321-0.321-0.641-0.577-1.090-0.77s-0.834-0.257-1.283-0.257c-0.513 0-1.026 0.128-1.475 0.385s-0.834 0.641-1.090 1.090c-0.257 0.449-0.385 0.962-0.385 1.539 0 0.449 0.128 0.898 0.321 1.283s0.513 0.705 0.834 0.898c0.385 0.192 0.77 0.321 1.218 0.321s1.026-0.128 1.603-0.449l0.449-2.437zM75.992 11.415c0.641 0.257 1.154 0.705 1.603 1.154l-1.603 1.731c-0.257-0.385-0.577-0.705-0.962-0.898-0.385-0.257-0.77-0.321-1.218-0.321-0.513 0-0.962 0.128-1.411 0.385s-0.77 0.641-1.026 1.090c-0.257 0.449-0.385 0.962-0.385 1.475 0 0.449 0.128 0.898 0.321 1.283s0.449 0.641 0.834 0.898c0.321 0.192 0.77 0.321 1.154 0.321s0.77-0.128 1.218-0.321c0.449-0.192 0.834-0.449 1.218-0.77l1.283 1.539c-0.577 0.513-1.218 0.962-1.924 1.283s-1.411 0.449-2.116 0.449c-0.834 0-1.603-0.192-2.309-0.577s-1.218-0.898-1.603-1.603c-0.385-0.641-0.577-1.411-0.577-2.244 0-0.962 0.257-1.86 0.705-2.693 0.513-0.77 1.154-1.411 1.988-1.86s1.796-0.705 2.757-0.705c0.77 0 1.411 0.128 2.052 0.385zM87.471 13.146c-0.385-0.641-0.962-1.218-1.603-1.539-0.705-0.385-1.475-0.577-2.373-0.577-1.026 0-1.924 0.257-2.822 0.705-0.834 0.449-1.539 1.090-2.052 1.86s-0.77 1.667-0.77 2.693c0 0.834 0.192 1.603 0.577 2.244s0.898 1.218 1.603 1.603c0.705 0.385 1.475 0.577 2.373 0.577 1.026 0 1.924-0.256 2.822-0.705 0.834-0.449 1.539-1.090 2.052-1.924s0.77-1.667 0.77-2.693c0.064-0.834-0.192-1.603-0.577-2.245zM85.162 17.058c-0.257 0.449-0.577 0.834-1.026 1.090s-0.898 0.385-1.411 0.385c-0.449 0-0.834-0.128-1.154-0.321-0.385-0.192-0.641-0.513-0.834-0.898s-0.321-0.834-0.321-1.283c0-0.513 0.128-1.026 0.385-1.539 0.257-0.449 0.641-0.834 1.090-1.090s0.898-0.385 1.411-0.385c0.449 0 0.77 0.128 1.154 0.321 0.321 0.192 0.641 0.513 0.834 0.898s0.321 0.834 0.321 1.283c-0.064 0.577-0.192 1.090-0.449 1.539zM92.665 11.158l-1.86 9.363h-2.437l1.86-9.363h2.437zM100.874 11.158h2.245l-1.86 9.363h-2.116l-3.078-5.579-1.154 5.579h-2.309l1.86-9.363h2.116l3.142 5.643 1.154-5.643zM105.748 7.888c-0.577 0-1.090 0.513-1.090 1.090s0.513 1.090 1.090 1.090c0.577 0 1.090-0.513 1.090-1.090s-0.513-1.090-1.090-1.090zM105.748 9.94c-0.513 0-0.962-0.449-0.962-0.962s0.449-0.962 0.962-0.962c0.513 0 0.962 0.449 0.962 0.962s-0.449 0.962-0.962 0.962zM105.876 9.106c0 0 0-0.064 0 0 0-0.064 0.064-0.064 0.064-0.128 0.064 0 0.064-0.064 0.064-0.064s0.064-0.064 0.064-0.128c0-0.064 0-0.064 0-0.128s0-0.128 0-0.128-0.064-0.064-0.064-0.128c-0.064 0-0.064-0.064-0.128-0.064s-0.128 0-0.192 0h-0.321v1.218h0.128v-0.513h0.128c0 0 0.064 0 0.064 0s0 0 0 0l0.321 0.449c0 0 0.064 0.064 0.064 0.064h0.128l-0.321-0.449zM105.683 8.978h-0.192v-0.449h0.192c0.064 0 0.192 0 0.192 0.064 0.064 0.064 0.064 0.064 0.064 0.192 0 0.064 0 0.064 0 0.064s0 0.064-0.064 0.064c0 0-0.064 0.064-0.064 0.064-0.064 0-0.064 0-0.128 0z"></path>
<path fill="#e51e25" d="M31.936 16.032c0 8.854-7.149 16.032-15.968 16.032s-15.968-7.178-15.968-16.032c0-8.854 7.149-16.032 15.968-16.032s15.968 7.178 15.968 16.032z"></path>
<path fill="#fff" d="M15.647 24.112l0.577-2.822c0.77-0.128 1.411-0.385 2.116-0.705 1.026-0.513 1.86-1.283 2.501-2.309 0.577-0.962 0.898-2.116 0.898-3.335 0-0.962-0.192-1.731-0.641-2.437s-1.026-1.283-1.796-1.667c-0.256-0.128-0.577-0.257-0.898-0.321l0.513-2.693h-2.629l-0.449 2.437h-3.848l-2.18 11.094h3.784l-0.577 2.693h2.629zM13.146 19.046v0h-1.603l1.667-0.513 1.090-5.387-1.475-0.513h3.335c0.77 0 1.411 0.257 1.86 0.705 0.449 0.513 0.705 1.154 0.705 1.924 0 0.705-0.128 1.347-0.449 1.924s-0.705 1.026-1.218 1.347c-0.513 0.321-1.090 0.513-1.731 0.513h-2.18z"></path>
</svg>
