<!-- Generated by IcoMoon.io -->
<svg version="1.1" xmlns="http://www.w3.org/2000/svg" width="32" height="32" viewBox="0 0 32 32">
<title>Dagcoin_logo_color</title>
<path fill="#e51e25" d="M31.936 16.032c0 8.854-7.149 16.032-15.968 16.032s-15.968-7.178-15.968-16.032c0-8.854 7.149-16.032 15.968-16.032s15.968 7.178 15.968 16.032z"></path>
<path fill="#fff" d="M15.647 24.112l0.577-2.822c0.77-0.128 1.411-0.385 2.116-0.705 1.026-0.513 1.86-1.283 2.501-2.309 0.577-0.962 0.898-2.116 0.898-3.335 0-0.962-0.192-1.731-0.641-2.437s-1.026-1.283-1.796-1.667c-0.256-0.128-0.577-0.257-0.898-0.321l0.513-2.693h-2.629l-0.449 2.437h-3.848l-2.18 11.094h3.784l-0.577 2.693 2.629 0.064zM13.146 19.046v0h-1.603l1.667-0.513 1.090-5.387-1.475-0.513h3.335c0.77 0 1.411 0.257 1.86 0.705 0.449 0.513 0.705 1.154 0.705 1.924 0 0.705-0.128 1.347-0.449 1.924s-0.705 1.026-1.218 1.347-1.090 0.513-1.731 0.513h-2.18z"></path>
</svg>
