<!-- Generated by IcoMoon.io -->
<svg version="1.1" xmlns="http://www.w3.org/2000/svg" width="172" height="32" viewBox="0 0 172 32">
<title>Dagcoin_logo</title>
<path d="M24.108 12.8c-0.8-1.44-2.080-2.72-3.84-3.52-1.6-0.8-3.52-1.28-5.76-1.28h-9.44l-4.64 23.52h10.4c2.72 0 5.28-0.64 7.36-1.76 2.24-1.12 4-2.72 5.28-4.8s1.92-4.32 1.92-7.040c0-1.92-0.48-3.52-1.28-5.12zM18.188 22.72c-0.64 1.28-1.44 2.080-2.56 2.88-1.12 0.64-2.24 0.96-3.68 0.96h-4.48l2.72-13.44h3.52c1.6 0 2.88 0.48 3.84 1.6 0.96 0.96 1.44 2.4 1.44 4 0 1.44-0.16 2.88-0.8 4zM42.988 8.16h-6.24l-13.92 23.36h6.24l2.24-4.16h10.080l0.96 4.16h6.56l-5.92-23.36zM34.028 22.72l4.64-8.48 1.76 8.48h-6.4zM67.788 19.52h5.28l-1.92 9.28c-1.44 0.96-2.88 1.6-4.64 2.24-1.76 0.48-3.36 0.8-4.96 0.8-2.24 0-4.16-0.48-5.92-1.44s-3.040-2.24-4-4c-0.96-1.6-1.44-3.52-1.44-5.6 0-2.4 0.64-4.64 1.92-6.56s3.040-3.52 5.12-4.8c2.080-1.12 4.48-1.76 7.2-1.76 1.76 0 3.36 0.32 5.12 0.96 1.6 0.64 3.040 1.44 4.16 2.56l-3.84 4.32c-0.8-0.8-1.6-1.44-2.72-1.92s-2.080-0.64-3.2-0.64c-1.28 0-2.56 0.32-3.68 0.96s-2.080 1.6-2.72 2.72c-0.64 1.12-0.96 2.4-0.96 3.84 0 1.12 0.32 2.24 0.8 3.2s1.28 1.76 2.080 2.24c0.96 0.48 1.92 0.8 3.040 0.8s2.56-0.32 4-1.12l1.28-6.080zM94.987 8.8c1.6 0.64 2.88 1.76 4 2.88l-4 4.32c-0.64-0.96-1.44-1.76-2.4-2.24-0.96-0.64-1.92-0.8-3.040-0.8-1.28 0-2.4 0.32-3.52 0.96s-1.92 1.6-2.56 2.72c-0.64 1.12-0.96 2.4-0.96 3.68 0 1.12 0.32 2.24 0.8 3.2s1.12 1.6 2.080 2.24c0.8 0.48 1.92 0.8 2.88 0.8s1.92-0.32 3.040-0.8c1.12-0.48 2.080-1.12 3.040-1.92l3.2 3.84c-1.44 1.28-3.040 2.4-4.8 3.2s-3.52 1.12-5.28 1.12c-2.080 0-4-0.48-5.76-1.44s-3.040-2.24-4-4c-0.96-1.6-1.44-3.52-1.44-5.6 0-2.4 0.64-4.64 1.76-6.72 1.28-1.92 2.88-3.52 4.96-4.64s4.48-1.76 6.88-1.76c1.76 0 3.52 0.32 5.12 0.96zM123.627 13.12c-0.96-1.6-2.4-3.040-4-3.84-1.76-0.96-3.68-1.44-5.92-1.44-2.56 0-4.8 0.64-7.040 1.76-2.080 1.12-3.84 2.72-5.12 4.64s-1.92 4.16-1.92 6.72c0 2.080 0.48 4 1.44 5.6s2.24 3.040 4 4c1.76 0.96 3.68 1.44 5.92 1.44 2.56 0 4.8-0.64 7.040-1.76 2.080-1.12 3.84-2.72 5.12-4.8s1.92-4.16 1.92-6.72c0-2.080-0.48-4-1.44-5.6zM117.867 22.88c-0.64 1.12-1.44 2.080-2.56 2.72s-2.24 0.96-3.52 0.96c-1.12 0-2.080-0.32-2.88-0.8-0.96-0.48-1.6-1.28-2.080-2.24s-0.8-2.080-0.8-3.2c0-1.28 0.32-2.56 0.96-3.84 0.64-1.12 1.6-2.080 2.72-2.72s2.24-0.96 3.52-0.96c1.12 0 1.92 0.32 2.88 0.8 0.8 0.48 1.6 1.28 2.080 2.24s0.8 2.080 0.8 3.2c-0.16 1.44-0.48 2.72-1.12 3.84zM136.587 8.16l-4.64 23.36h-6.080l4.64-23.36h6.080zM157.067 8.16h5.6l-4.64 23.36h-5.28l-7.68-13.92-2.88 13.92h-5.76l4.64-23.36h5.28l7.84 14.080 2.88-14.080zM169.067-0c-1.44 0-2.72 1.28-2.72 2.72s1.28 2.72 2.72 2.72c1.44 0 2.72-1.28 2.72-2.72 0.16-1.44-1.12-2.72-2.72-2.72zM169.067 5.12c-1.28 0-2.4-1.12-2.4-2.4s1.12-2.4 2.4-2.4c1.28 0 2.4 1.12 2.4 2.4s-1.12 2.4-2.4 2.4zM169.547 3.040c0 0-0.16-0.16 0 0 0-0.16 0.16-0.16 0.16-0.32 0.16 0 0.16-0.16 0.16-0.16s0.16-0.16 0.16-0.32c0-0.16 0-0.16 0-0.32s0-0.32 0-0.32-0.16-0.16-0.16-0.32c-0.16 0-0.16-0.16-0.32-0.16s-0.32 0-0.48 0h-0.8v3.040h0.32v-1.12h0.32c0 0 0.16 0 0.16 0s0 0 0 0l0.8 1.12c0 0 0.16 0.16 0.16 0.16h0.32l-0.8-1.28zM169.067 2.72h-0.48v-1.12h0.48c0.16 0 0.48 0 0.48 0.16 0.16 0.16 0.16 0.16 0.16 0.48 0 0.16 0 0.16 0 0.16s0 0.16-0.16 0.16c0 0-0.16 0.16-0.16 0.16-0.16 0-0.32 0-0.32 0z"></path>
</svg>
