<!-- Generated by IcoMoon.io -->
<svg version="1.1" xmlns="http://www.w3.org/2000/svg" width="24" height="24" viewBox="0 0 24 24">
<title>data_usage</title>
<path d="M12 18.984c2.203 0 4.172-1.031 5.438-2.625l2.625 1.547c-1.828 2.484-4.734 4.078-8.063 4.078-5.531 0-9.984-4.453-9.984-9.984 0-5.203 3.938-9.422 9-9.938v3c-3.375 0.469-6 3.422-6 6.938 0 3.891 3.094 6.984 6.984 6.984zM12.984 2.063c5.063 0.516 9 4.734 9 9.938 0 1.453-0.281 2.859-0.844 4.078l-2.625-1.547c0.281-0.797 0.469-1.641 0.469-2.531 0-3.516-2.625-6.469-6-6.938v-3z"></path>
</svg>
