<!-- Generated by IcoMoon.io -->
<svg version="1.1" xmlns="http://www.w3.org/2000/svg" width="26" height="24" viewBox="0 0 26 24">
<title>devices_other2</title>
<path d="M24.076 19.217v-9.642h-4.793v9.642h4.793zM25.26 7.207c0.62 0 1.24 0.564 1.24 1.184v12.010c0 0.62-0.62 1.24-1.24 1.24h-7.217c-0.62 0-1.184-0.62-1.184-1.24v-12.010c0-0.62 0.564-1.184 1.184-1.184h7.217zM12.066 18.597c1.015 0 1.804-0.789 1.804-1.804s-0.789-1.804-1.804-1.804-1.804 0.789-1.804 1.804 0.789 1.804 1.804 1.804zM14.434 12v2.143c0.733 0.677 1.24 1.579 1.24 2.65s-0.507 2.030-1.24 2.706v2.143h-4.793v-2.143c-0.733-0.677-1.184-1.635-1.184-2.706s0.451-1.973 1.184-2.65v-2.143h4.793zM2.424 4.783v14.434h4.793v2.424h-4.793c-1.297 0-2.424-1.128-2.424-2.424v-14.434c0-1.297 1.128-2.424 2.424-2.424h21.651v2.424h-21.651z"></path>
</svg>
