<!-- Generated by IcoMoon.io -->
<svg version="1.1" xmlns="http://www.w3.org/2000/svg" width="24" height="24" viewBox="0 0 24 24">
<title>dialer_sip</title>
<path d="M20.016 15.516c0.563 0 0.984 0.422 0.984 0.984v3.516c0 0.563-0.422 0.984-0.984 0.984-9.375 0-17.016-7.641-17.016-17.016 0-0.563 0.422-0.984 0.984-0.984h3.516c0.563 0 0.984 0.422 0.984 0.984 0 1.266 0.188 2.438 0.563 3.563 0.094 0.328 0.047 0.75-0.234 1.031l-2.203 2.203c1.453 2.859 3.797 5.156 6.609 6.609l2.203-2.203c0.281-0.281 0.703-0.328 1.031-0.234 1.125 0.375 2.297 0.563 3.563 0.563zM20.016 5.016v-1.031h-1.031v1.031h1.031zM18 3h3v3h-2.016v2.016h-0.984v-5.016zM15 5.016v3h-3v-1.031h2.016v-0.984h-2.016v-3h3v0.984h-2.016v1.031h2.016zM17.016 3v5.016h-1.031v-5.016h1.031z"></path>
</svg>
