<!-- Generated by IcoMoon.io -->
<svg version="1.1" xmlns="http://www.w3.org/2000/svg" width="24" height="24" viewBox="0 0 24 24">
<title>dns</title>
<path d="M6.984 9c1.078 0 2.016-0.938 2.016-2.016s-0.938-1.969-2.016-1.969-1.969 0.891-1.969 1.969 0.891 2.016 1.969 2.016zM20.016 3c0.563 0 0.984 0.422 0.984 0.984v6c0 0.563-0.422 1.031-0.984 1.031h-16.031c-0.563 0-0.984-0.469-0.984-1.031v-6c0-0.563 0.422-0.984 0.984-0.984h16.031zM6.984 18.984c1.078 0 2.016-0.891 2.016-1.969s-0.938-2.016-2.016-2.016-1.969 0.938-1.969 2.016 0.891 1.969 1.969 1.969zM20.016 12.984c0.563 0 0.984 0.469 0.984 1.031v6c0 0.563-0.422 0.984-0.984 0.984h-16.031c-0.563 0-0.984-0.422-0.984-0.984v-6c0-0.563 0.422-1.031 0.984-1.031h16.031z"></path>
</svg>
