<!-- Generated by IcoMoon.io -->
<svg version="1.1" xmlns="http://www.w3.org/2000/svg" width="24" height="24" viewBox="0 0 24 24">
<title>do_not_disturb_off</title>
<path d="M6.984 12.984h3.469l-2.016-1.969h-1.453v1.969zM2.25 2.25l19.5 19.5-1.313 1.266-2.766-2.813c-1.594 1.125-3.563 1.781-5.672 1.781-5.531 0-9.984-4.453-9.984-9.984 0-2.109 0.656-4.078 1.781-5.672l-2.813-2.766zM17.016 11.016h-3.469l-7.219-7.219c1.594-1.125 3.563-1.781 5.672-1.781 5.531 0 9.984 4.453 9.984 9.984 0 2.109-0.656 4.078-1.781 5.672l-4.641-4.688h1.453v-1.969z"></path>
</svg>
