<!-- Generated by IcoMoon.io -->
<svg version="1.1" xmlns="http://www.w3.org/2000/svg" width="20" height="20" viewBox="0 0 20 20">
<title>download</title>
<path d="M14.952 7.029h-2.971v-5.943h-3.962v5.943h-2.971l4.952 4.952 4.952-4.952zM19.249 13.498c-0.208-0.222-1.596-1.707-1.992-2.094-0.262-0.257-0.638-0.414-1.032-0.414h-1.74l3.035 2.966h-3.51c-0.101 0-0.192 0.052-0.238 0.132l-0.808 1.855h-5.927l-0.808-1.855c-0.046-0.080-0.138-0.132-0.238-0.132h-3.51l3.034-2.966h-1.739c-0.393 0-0.769 0.157-1.032 0.414-0.396 0.388-1.784 1.873-1.992 2.094-0.484 0.516-0.751 0.927-0.624 1.435l0.556 3.045c0.127 0.509 0.684 0.927 1.24 0.927h16.157c0.556 0 1.113-0.418 1.24-0.927l0.556-3.045c0.125-0.508-0.141-0.919-0.626-1.435z"></path>
</svg>
