<!-- Generated by IcoMoon.io -->
<svg version="1.1" xmlns="http://www.w3.org/2000/svg" width="24" height="24" viewBox="0 0 24 24">
<title>download2</title>
<path d="M21.818 16.364c-0.6 0-1.091 0.491-1.091 1.091v3.273c0 0.6-0.491 1.091-1.091 1.091h-15.273c-0.6 0-1.091-0.491-1.091-1.091v-3.273c0-0.6-0.491-1.091-1.091-1.091s-1.091 0.491-1.091 1.091v3.273c0 1.807 1.466 3.273 3.273 3.273h15.273c1.807 0 3.273-1.466 3.273-3.273v-3.273c0-0.6-0.491-1.091-1.091-1.091z"></path>
<path d="M11.223 17.134c0.014 0.014 0.027 0.027 0.041 0.041 0 0 0 0 0 0s0.007 0.007 0.007 0.007c0 0 0 0 0.007 0.007 0 0 0 0 0.007 0.007 0 0 0.007 0.007 0.007 0.007s0 0 0 0 0.007 0.007 0.007 0.007c0 0 0 0 0 0 0.082 0.068 0.164 0.116 0.252 0.157 0 0 0 0 0.007 0 0 0 0 0 0.007 0 0.116 0.048 0.245 0.082 0.382 0.089 0 0 0 0 0 0 0.007 0 0.007 0 0.014 0 0 0 0 0 0 0s0.007 0 0.007 0c0 0 0.007 0 0.007 0s0.007 0 0.007 0 0.007 0 0.014 0 0.007 0 0.014 0c0 0 0.007 0 0.007 0s0.007 0 0.007 0c0 0 0.007 0 0.007 0s0 0 0 0c0.007 0 0.007 0 0.014 0 0 0 0 0 0 0 0.136-0.007 0.266-0.034 0.382-0.089 0 0 0 0 0 0s0.007 0 0.007 0c0 0 0.007 0 0.007 0s0 0 0 0c0.082-0.034 0.157-0.082 0.232-0.143 0 0 0 0 0 0s0.007-0.007 0.007-0.007c0 0 0 0 0 0s0.007-0.007 0.007-0.007c0 0 0 0 0.007-0.007 0 0 0 0 0.007-0.007 0 0 0.007-0.007 0.007-0.007s0 0 0 0c0.020-0.014 0.034-0.034 0.055-0.055l4.357-4.357c0.423-0.423 0.423-1.118 0-1.541s-1.118-0.423-1.541 0l-2.482 2.495v-12.641c0-0.6-0.491-1.091-1.091-1.091s-1.091 0.491-1.091 1.091v12.641l-2.502-2.502c-0.423-0.423-1.118-0.423-1.541 0s-0.423 1.118 0 1.541l4.357 4.364z"></path>
</svg>
