<!-- Generated by IcoMoon.io -->
<svg version="1.1" xmlns="http://www.w3.org/2000/svg" width="24" height="24" viewBox="0 0 24 24">
<title>dvr</title>
<path d="M6.984 12v2.016h-1.969v-2.016h1.969zM6.984 8.016v1.969h-1.969v-1.969h1.969zM18.984 12v2.016h-10.969v-2.016h10.969zM18.984 8.016v1.969h-10.969v-1.969h10.969zM21 17.016v-12h-18v12h18zM21 3c1.078 0 2.016 0.938 2.016 2.016l-0.047 12c0 1.078-0.891 1.969-1.969 1.969h-5.016v2.016h-7.969v-2.016h-5.016c-1.078 0-2.016-0.891-2.016-1.969v-12c0-1.078 0.938-2.016 2.016-2.016h18z"></path>
</svg>
