<!-- Generated by IcoMoon.io -->
<svg version="1.1" xmlns="http://www.w3.org/2000/svg" width="24" height="24" viewBox="0 0 24 24">
<title>euro_symbol</title>
<path d="M15 18.516c1.641 0 3.094-0.609 4.219-1.594l1.781 1.781c-1.594 1.453-3.703 2.297-6 2.297-3.938 0-7.266-2.531-8.484-6h-3.516v-2.016h3.047c-0.047-0.328-0.047-0.656-0.047-0.984s0-0.656 0.047-0.984h-3.047v-2.016h3.516c1.219-3.469 4.547-6 8.484-6 2.297 0 4.406 0.844 6 2.297l-1.781 1.781c-1.125-0.984-2.625-1.594-4.219-1.594-2.484 0-4.688 1.453-5.766 3.516h5.766v2.016h-6.422c-0.047 0.328-0.094 0.656-0.094 0.984s0.047 0.656 0.094 0.984h6.422v2.016h-5.766c1.078 2.063 3.234 3.516 5.766 3.516z"></path>
</svg>
