<!-- Generated by IcoMoon.io -->
<svg version="1.1" xmlns="http://www.w3.org/2000/svg" width="24" height="24" viewBox="0 0 24 24">
<title>exchange-arrows</title>
<path d="M0.428 9.429h18.429v2.571c0 0.116 0.042 0.216 0.127 0.301s0.185 0.127 0.301 0.127c0.125 0 0.228-0.040 0.308-0.121l4.286-4.286c0.080-0.080 0.12-0.183 0.12-0.308s-0.040-0.228-0.121-0.308l-4.272-4.272c-0.107-0.089-0.214-0.134-0.322-0.134-0.125 0-0.228 0.040-0.308 0.12s-0.12 0.183-0.12 0.308v2.571h-18.429c-0.116 0-0.216 0.042-0.301 0.127s-0.127 0.185-0.127 0.301v2.571c0 0.116 0.042 0.216 0.127 0.301s0.185 0.127 0.301 0.127z"></path>
<path d="M23.572 14.572h-18.429v-2.572c0-0.116-0.042-0.216-0.127-0.301s-0.185-0.127-0.301-0.127c-0.125 0-0.228 0.040-0.308 0.12l-4.286 4.286c-0.080 0.081-0.12 0.183-0.12 0.308 0 0.116 0.040 0.214 0.12 0.294l4.272 4.286c0.107 0.089 0.214 0.134 0.322 0.134 0.116 0 0.216-0.042 0.301-0.127s0.127-0.185 0.127-0.301v-2.571h18.429c0.116 0 0.216-0.042 0.301-0.127s0.127-0.185 0.127-0.301v-2.571c0-0.116-0.042-0.216-0.127-0.301s-0.185-0.127-0.301-0.127z"></path>
</svg>
