<!-- Generated by IcoMoon.io -->
<svg version="1.1" xmlns="http://www.w3.org/2000/svg" width="24" height="24" viewBox="0 0 24 24">
<title>fiber_new</title>
<path d="M20.484 14.016v-5.016h-1.219v4.5h-1.125v-3.516h-1.266v3.516h-1.125v-4.5h-1.266v5.016c0 0.563 0.469 0.984 1.031 0.984h3.984c0.563 0 0.984-0.422 0.984-0.984zM13.5 10.266v-1.266h-3.984v6h3.984v-1.266h-2.484v-1.078h2.484v-1.266h-2.484v-1.125h2.484zM8.484 15v-6h-1.219v3.516l-2.531-3.516h-1.219v6h1.219v-3.516l2.578 3.516h1.172zM20.016 3.984c1.125 0 1.969 0.891 1.969 2.016v12c0 1.125-0.844 2.016-1.969 2.016h-16.031c-1.125 0-1.969-0.891-1.969-2.016v-12c0-1.125 0.844-2.016 1.969-2.016h16.031z"></path>
</svg>
