<!-- Generated by IcoMoon.io -->
<svg version="1.1" xmlns="http://www.w3.org/2000/svg" width="24" height="24" viewBox="0 0 24 24">
<title>find_in_page</title>
<path d="M9 12.984c0-1.641 1.359-3 3-3s3 1.359 3 3-1.359 3-3 3-3-1.359-3-3zM20.016 19.594l-3.844-3.844c0.516-0.797 0.844-1.734 0.844-2.766 0-2.766-2.25-4.969-5.016-4.969s-5.016 2.203-5.016 4.969 2.25 5.016 5.016 5.016c1.031 0 1.969-0.328 2.766-0.844l4.406 4.453c-0.328 0.234-0.703 0.375-1.172 0.375h-12c-1.078 0-2.016-0.891-2.016-1.969l0.047-16.031c0-1.078 0.891-1.969 1.969-1.969h8.016l6 6v11.578z"></path>
</svg>
