<!-- Generated by IcoMoon.io -->
<svg version="1.1" xmlns="http://www.w3.org/2000/svg" width="24" height="24" viewBox="0 0 24 24">
<title>find_replace</title>
<path d="M16.641 15.141l4.828 4.875-1.453 1.453-4.875-4.828c-1.172 0.844-2.578 1.359-4.125 1.359-1.922 0-3.703-0.797-4.969-2.063l-2.063 2.063v-6h6l-2.531 2.531c0.891 0.891 2.203 1.453 3.563 1.453 2.438 0 4.406-1.688 4.875-3.984h2.016c-0.141 1.172-0.609 2.25-1.266 3.141zM11.016 6c-2.438 0-4.453 1.688-4.922 3.984h-2.016c0.469-3.375 3.422-6 6.938-6 1.922 0 3.656 0.797 4.922 2.063l2.063-2.063v6h-6l2.531-2.531c-0.891-0.891-2.156-1.453-3.516-1.453z"></path>
</svg>
