<!-- Generated by IcoMoon.io -->
<svg version="1.1" xmlns="http://www.w3.org/2000/svg" width="24" height="24" viewBox="0 0 24 24">
<title>fingerprint</title>
<path d="M14.906 21.984h-0.141c-1.594-0.422-2.625-1.031-3.703-2.109-1.406-1.406-2.156-3.234-2.156-5.203 0-1.641 1.359-2.953 3.047-2.953s3.094 1.313 3.094 2.953c0 1.078 0.891 1.922 2.063 1.922s2.109-0.844 2.109-1.922c0-3.75-3.281-6.844-7.266-6.844-2.859 0-5.438 1.594-6.609 4.031-0.375 0.797-0.563 1.781-0.563 2.813 0 0.797 0.047 2.016 0.656 3.609 0.215 0.644-0.725 0.859-0.938 0.328-0.469-1.313-0.75-2.578-0.75-3.938 0-1.219 0.234-2.297 0.703-3.234 1.313-2.813 4.266-4.641 7.5-4.641 4.547 0 8.25 3.563 8.25 7.875 0 1.641-1.406 2.906-3.094 2.906s-3.047-1.266-3.047-2.906c0-1.078-0.938-1.969-2.109-1.969s-2.063 0.891-2.063 1.969c0 1.688 0.656 3.281 1.875 4.5 0.938 0.938 1.875 1.453 3.281 1.828 0.281 0.047 0.375 0.328 0.328 0.609-0.047 0.234-0.281 0.375-0.469 0.375zM12.422 14.672c0 2.286 1.889 4.266 4.5 4.266 0.467 0 1.536-0.345 1.641 0.281 0.047 0.281-0.141 0.563-0.422 0.609-0.563 0.094-1.078 0.094-1.219 0.094-1.172 0-2.25-0.281-3.094-0.891-1.5-1.031-2.391-2.625-2.391-4.359 0-0.281 0.234-0.516 0.516-0.516s0.469 0.234 0.469 0.516zM9.75 21.797c-0.141 0-0.234-0.047-0.328-0.141-0.891-0.891-1.359-1.453-2.016-2.672-0.703-1.219-1.078-2.719-1.078-4.313 0-2.953 2.531-5.391 5.672-5.391s5.672 2.438 5.672 5.391c0 0.281-0.234 0.469-0.516 0.469s-0.516-0.188-0.516-0.469c0-2.438-2.063-4.406-4.641-4.406s-4.641 1.969-4.641 4.406c0 1.453 0.281 2.766 0.891 3.844 0.656 1.172 1.125 1.641 1.875 2.438 0.188 0.188 0.188 0.516 0 0.703-0.094 0.094-0.234 0.141-0.375 0.141zM3.516 9.703c-0.413 0-0.651-0.368-0.422-0.75 0.984-1.406 2.25-2.531 3.75-3.281 3.141-1.641 7.172-1.641 10.313 0 1.5 0.75 2.766 1.828 3.75 3.234 0.141 0.234 0.094 0.563-0.141 0.703s-0.563 0.094-0.703-0.141c-0.891-1.266-2.016-2.203-3.375-2.906-2.859-1.453-6.516-1.5-9.375 0-1.359 0.703-2.531 1.688-3.422 2.953-0.094 0.141-0.234 0.188-0.375 0.188zM17.813 4.453c-0.094 0-0.188 0-0.234-0.047-1.922-0.984-3.609-1.406-5.578-1.406s-3.891 0.469-5.578 1.406c-0.548 0.329-1.014-0.563-0.469-0.891 1.875-1.031 3.891-1.5 6.047-1.5 2.109 0 3.984 0.469 6.047 1.5 0.427 0.256 0.244 0.938-0.234 0.938z"></path>
</svg>
