<!-- Generated by IcoMoon.io -->
<svg version="1.1" xmlns="http://www.w3.org/2000/svg" width="24" height="24" viewBox="0 0 24 24">
<title>flip_to_back</title>
<path d="M16 18.687v-2.688h2.688v2.688h-2.688zM16 2.688v-2.688h2.688v2.688h-2.688zM2.688 5.313v16h16v2.688h-16c-1.5 0-2.688-1.25-2.688-2.688v-16h2.688zM21.312 18.687v-2.688h2.688c0 1.437-1.25 2.688-2.688 2.688zM21.312 8v-2.688h2.688v2.688h-2.688zM21.312 13.313v-2.625h2.688v2.625h-2.688zM8 18.687c-1.5 0-2.688-1.25-2.688-2.688h2.688v2.688zM13.313 0v2.688h-2.625v-2.688h2.625zM21.312 0c1.437 0 2.688 1.25 2.688 2.688h-2.688v-2.688zM13.313 16v2.688h-2.625v-2.688h2.625zM8 0v2.688h-2.688c0-1.437 1.188-2.688 2.688-2.688zM8 10.688v2.625h-2.688v-2.625h2.688zM8 5.313v2.688h-2.688v-2.688h2.688z"></path>
</svg>
