<!-- Generated by IcoMoon.io -->
<svg version="1.1" xmlns="http://www.w3.org/2000/svg" width="24" height="24" viewBox="0 0 24 24">
<title>forward_10</title>
<path d="M13.219 15.188c0 0.153 0.296 0.328 0.469 0.328 0.094 0 0.234 0 0.328-0.094l0.188-0.234s0.094-0.188 0.094-0.281v-2.016c0 0-0.094-0.188-0.094-0.281 0-0.129-0.385-0.328-0.516-0.328-0.094 0-0.188 0.047-0.281 0.141l-0.188 0.188s-0.141 0.188-0.141 0.281v2.016s0.141 0.188 0.141 0.281zM15.094 14.203c0 0.281 0 0.609-0.094 0.797l-0.281 0.609s-0.328 0.281-0.516 0.281-0.422 0.094-0.609 0.094-0.422 0-0.609-0.094-0.281-0.188-0.469-0.281c-0.316-0.158-0.422-0.926-0.422-1.406v-0.703c0-0.281 0-0.609 0.094-0.797l0.328-0.609s0.281-0.281 0.469-0.281 0.422-0.094 0.609-0.094 0.422 0 0.609 0.094 0.328 0.188 0.516 0.281 0.188 0.328 0.281 0.609 0.094 0.516 0.094 0.797v0.703zM10.922 15.984h-0.938v-3.281l-0.984 0.281v-0.703l1.781-0.563h0.141v4.266zM3.984 12.984c0-4.406 3.609-7.969 8.016-7.969v-4.031l5.016 5.016-5.016 5.016v-4.031c-3.281 0-6 2.719-6 6s2.719 6 6 6 6-2.719 6-6h2.016c0 4.406-3.609 8.016-8.016 8.016s-8.016-3.609-8.016-8.016z"></path>
</svg>
