<!-- Generated by IcoMoon.io -->
<svg version="1.1" xmlns="http://www.w3.org/2000/svg" width="24" height="24" viewBox="0 0 24 24">
<title>g_translate</title>
<path d="M21 20.016v-13.031c0-0.563-0.422-0.984-0.984-0.984h-8.813l1.172 4.031h1.922v-1.031h1.078v1.031h3.609v1.031h-1.266c-0.328 1.266-1.031 2.484-1.922 3.516l2.719 2.672-0.703 0.75-2.719-2.672-0.891 0.891 0.797 2.766-2.016 2.016h7.031c0.563 0 0.984-0.422 0.984-0.984zM13.969 12.141c0.234 0.469 0.609 1.078 1.125 1.688 1.219-1.453 1.547-2.766 1.547-2.766h-3.984l0.328 1.078h0.984zM13.219 12.891l0.609 2.203 0.563-0.516c-0.469-0.516-0.844-1.078-1.172-1.688zM11.109 10.594c0-0.231-0.007-0.529-0.094-0.703h-3.938v1.547h2.203c-0.141 0.609-0.75 1.5-2.109 1.5-1.313 0-2.391-1.125-2.391-2.438s1.078-2.438 2.391-2.438c0.75 0 1.219 0.328 1.5 0.609l0.094 0.047 1.219-1.172-0.094-0.047c-0.75-0.703-1.688-1.078-2.719-1.078-2.25 0-4.078 1.828-4.078 4.078s1.828 4.078 4.078 4.078c2.297 0 3.938-1.641 3.938-3.984zM20.016 5.016c1.078 0 1.969 0.891 1.969 1.969v13.031c0 1.078-0.891 1.969-1.969 1.969h-8.016l-0.984-3h-7.031c-1.078 0-1.969-0.891-1.969-1.969v-13.031c0-1.078 0.891-1.969 1.969-1.969h6l0.891 3h9.141z"></path>
</svg>
