<!-- Generated by IcoMoon.io -->
<svg version="1.1" xmlns="http://www.w3.org/2000/svg" width="24" height="24" viewBox="0 0 24 24">
<title>gesture</title>
<path d="M13.875 18.563c0.703 0 1.875-0.844 2.156-3.516-2.156 0.563-2.906 2.156-2.906 2.766 0 0.469 0.422 0.75 0.75 0.75zM4.594 6.891l-1.734-1.688c0.234-0.281 0.469-0.563 0.844-0.938 0.234-0.234 1.406-1.266 2.719-1.266 0.891 0 2.531 0.703 2.531 2.859 0 1.359-0.516 2.156-1.313 3.281-0.469 0.656-1.5 2.438-1.828 3.516-0.375 1.078-0.141 1.922 0.328 1.922 0.422 0 0.891-0.563 1.125-0.844 0.234-0.234 1.734-1.969 2.297-2.719 0.75-0.938 2.672-2.813 4.922-2.813 2.953 0 3.891 2.531 4.031 4.172h2.484v2.484h-2.438c-0.422 4.781-3.094 6.141-4.734 6.141-1.781 0-3.188-1.406-3.188-3.094s1.594-4.734 5.391-5.391c-0.094-0.797-0.141-1.781-1.781-1.781-1.266 0-2.859 1.922-4.078 3.422-1.125 1.359-1.969 2.438-3.047 2.766-2.333 0.737-3.984-1.324-3.984-3.422 0-2.438 2.625-5.906 2.859-6.328 0.281-0.469 0.797-1.313 0.281-1.5-0.328-0.141-0.984 0.516-1.688 1.219z"></path>
</svg>
