<!-- Generated by IcoMoon.io -->
<svg version="1.1" xmlns="http://www.w3.org/2000/svg" width="29" height="28" viewBox="0 0 29 28">
<title>globe</title>
<path d="M14.504 0c7.729 0 14 6.271 14 14s-6.271 14-14 14-14-6.271-14-14 6.271-14 14-14zM19.499 9.497c-0.146 0.109-0.237 0.31-0.419 0.346 0.091-0.018 0.182-0.346 0.237-0.419 0.109-0.128 0.255-0.201 0.401-0.273 0.31-0.128 0.62-0.164 0.948-0.219 0.31-0.073 0.693-0.073 0.93 0.201-0.055-0.055 0.383-0.438 0.438-0.456 0.164-0.091 0.438-0.055 0.547-0.219 0.036-0.055 0.036-0.401 0.036-0.401-0.31 0.036-0.419-0.255-0.438-0.51 0 0.018-0.036 0.073-0.109 0.146 0.018-0.273-0.328-0.073-0.456-0.109-0.419-0.109-0.365-0.401-0.492-0.711-0.073-0.164-0.273-0.219-0.346-0.383-0.073-0.109-0.109-0.346-0.273-0.365-0.109-0.018-0.31 0.383-0.346 0.365-0.164-0.091-0.237 0.036-0.365 0.109-0.109 0.073-0.201 0.036-0.31 0.091 0.328-0.109-0.146-0.292-0.31-0.255 0.255-0.073 0.128-0.346-0.018-0.474h0.091c-0.036-0.164-0.547-0.31-0.711-0.419s-1.039-0.292-1.221-0.182c-0.219 0.128 0.055 0.492 0.055 0.674 0.018 0.219-0.219 0.273-0.219 0.456 0 0.31 0.583 0.255 0.438 0.674-0.091 0.255-0.438 0.31-0.583 0.51-0.146 0.182 0.018 0.51 0.164 0.638 0.146 0.109-0.255 0.292-0.31 0.328-0.31 0.146-0.547-0.31-0.62-0.583-0.055-0.201-0.073-0.438-0.292-0.547-0.109-0.036-0.456-0.091-0.529 0.018-0.109-0.273-0.492-0.383-0.747-0.474-0.365-0.128-0.674-0.128-1.057-0.073 0.128-0.018-0.036-0.583-0.346-0.492 0.091-0.182 0.055-0.383 0.091-0.565 0.036-0.146 0.109-0.292 0.219-0.419 0.036-0.073 0.438-0.492 0.31-0.51 0.31 0.036 0.656 0.055 0.911-0.201 0.164-0.164 0.237-0.438 0.401-0.62 0.237-0.273 0.529 0.073 0.784 0.091 0.365 0.018 0.346-0.383 0.146-0.565 0.237 0.018 0.036-0.419-0.091-0.474-0.164-0.055-0.784 0.109-0.456 0.237-0.073-0.036-0.51 0.875-0.766 0.419-0.073-0.091-0.109-0.474-0.273-0.492-0.146 0-0.237 0.164-0.292 0.273 0.091-0.237-0.51-0.401-0.638-0.419 0.273-0.182 0.055-0.383-0.146-0.492-0.146-0.091-0.602-0.164-0.729-0.018-0.346 0.419 0.365 0.474 0.547 0.583 0.055 0.036 0.273 0.164 0.146 0.255-0.109 0.055-0.438 0.146-0.474 0.219-0.109 0.164 0.128 0.346-0.036 0.51-0.164-0.164-0.164-0.437-0.292-0.62 0.164 0.201-0.656 0.091-0.638 0.091-0.273 0-0.711 0.182-0.911-0.091-0.036-0.073-0.036-0.492 0.073-0.401-0.164-0.128-0.273-0.255-0.383-0.328-0.602 0.201-1.167 0.456-1.714 0.747 0.073 0.018 0.128 0.018 0.219-0.018 0.146-0.055 0.273-0.146 0.419-0.219 0.182-0.073 0.565-0.292 0.766-0.128 0.018-0.036 0.073-0.073 0.091-0.091 0.128 0.146 0.255 0.292 0.365 0.456-0.146-0.073-0.383-0.036-0.547-0.018-0.128 0.036-0.346 0.073-0.401 0.219 0.055 0.091 0.128 0.237 0.091 0.328-0.237-0.164-0.419-0.438-0.747-0.474-0.146 0-0.292 0-0.401 0.018-1.75 0.966-3.227 2.37-4.284 4.047 0.073 0.073 0.146 0.128 0.219 0.146 0.182 0.055 0 0.583 0.346 0.31 0.109 0.091 0.128 0.219 0.055 0.346 0.018-0.018 0.747 0.456 0.802 0.492 0.128 0.109 0.328 0.237 0.383 0.383 0.036 0.128-0.073 0.273-0.182 0.328-0.018-0.036-0.292-0.31-0.328-0.237-0.055 0.091 0 0.583 0.201 0.565-0.292 0.018-0.164 1.148-0.237 1.367 0 0.018 0.036 0.018 0.036 0.018-0.055 0.219 0.128 1.076 0.492 0.984-0.237 0.055 0.419 0.893 0.51 0.948 0.237 0.164 0.51 0.273 0.674 0.51 0.182 0.255 0.182 0.638 0.437 0.839-0.073 0.219 0.383 0.474 0.365 0.784-0.036 0.018-0.055 0.018-0.091 0.036 0.091 0.255 0.438 0.255 0.565 0.492 0.073 0.146 0 0.492 0.237 0.419 0.036-0.401-0.237-0.802-0.438-1.13-0.109-0.182-0.219-0.346-0.31-0.529-0.091-0.164-0.109-0.365-0.182-0.547 0.073 0.018 0.474 0.164 0.438 0.219-0.146 0.365 0.583 1.003 0.784 1.24 0.055 0.055 0.474 0.602 0.255 0.602 0.237 0 0.565 0.365 0.674 0.547 0.164 0.273 0.128 0.62 0.237 0.911 0.109 0.365 0.62 0.529 0.911 0.693 0.255 0.128 0.474 0.31 0.729 0.401 0.383 0.146 0.474 0.018 0.802-0.036 0.474-0.073 0.529 0.456 0.911 0.656 0.237 0.128 0.747 0.31 1.003 0.201-0.109 0.036 0.383 0.784 0.419 0.839 0.164 0.219 0.474 0.328 0.656 0.547 0.055-0.036 0.109-0.091 0.128-0.164-0.073 0.201 0.273 0.583 0.456 0.547 0.201-0.036 0.255-0.438 0.255-0.583-0.365 0.182-0.693 0.036-0.893-0.328-0.036-0.091-0.328-0.602-0.073-0.602 0.346 0 0.109-0.273 0.073-0.529s-0.292-0.419-0.419-0.638c-0.109 0.219-0.474 0.164-0.583-0.018 0 0.055-0.055 0.146-0.055 0.219-0.091 0-0.182 0.018-0.273-0.018 0.036-0.219 0.055-0.492 0.109-0.729 0.091-0.328 0.693-0.966-0.091-0.93-0.273 0.018-0.383 0.128-0.474 0.365-0.091 0.219-0.055 0.419-0.31 0.529-0.164 0.073-0.711 0.036-0.875-0.055-0.346-0.201-0.583-0.839-0.583-1.203-0.018-0.492 0.237-0.93 0-1.385 0.109-0.091 0.219-0.273 0.346-0.365 0.109-0.073 0.237 0.055 0.292-0.164-0.055-0.036-0.128-0.109-0.146-0.109 0.273 0.128 0.784-0.182 1.021 0 0.146 0.109 0.31 0.146 0.401-0.036 0.018-0.055-0.128-0.273-0.055-0.419 0.055 0.31 0.255 0.365 0.529 0.164 0.109 0.109 0.401 0.073 0.602 0.182 0.201 0.128 0.237 0.328 0.474 0.055 0.146 0.219 0.164 0.219 0.219 0.438 0.055 0.201 0.164 0.711 0.346 0.802 0.383 0.237 0.292-0.401 0.255-0.62-0.018-0.018-0.018-0.62-0.036-0.62-0.583-0.128-0.365-0.583-0.036-0.893 0.055-0.036 0.474-0.182 0.656-0.328 0.164-0.146 0.365-0.401 0.273-0.638 0.091 0 0.164-0.073 0.201-0.164-0.055-0.018-0.273-0.201-0.31-0.182 0.128-0.073 0.109-0.182 0.036-0.292 0.182-0.109 0.091-0.31 0.273-0.383 0.201 0.273 0.602-0.036 0.401-0.255 0.182-0.255 0.602-0.128 0.711-0.365 0.273 0.073 0.073-0.273 0.219-0.474 0.128-0.164 0.346-0.164 0.51-0.255 0 0.018 0.456-0.255 0.31-0.273 0.31 0.036 0.93-0.292 0.456-0.565 0.073-0.164-0.164-0.237-0.328-0.273 0.128-0.036 0.292 0.036 0.401-0.036 0.237-0.164 0.073-0.237-0.128-0.292-0.255-0.073-0.583 0.091-0.784 0.219zM16.527 25.484c2.497-0.438 4.721-1.677 6.398-3.445-0.109-0.109-0.31-0.073-0.456-0.146-0.146-0.055-0.255-0.109-0.438-0.146 0.036-0.365-0.365-0.492-0.62-0.674-0.237-0.182-0.383-0.383-0.729-0.31-0.036 0.018-0.401 0.146-0.328 0.219-0.237-0.201-0.346-0.31-0.656-0.401-0.292-0.091-0.492-0.456-0.784-0.128-0.146 0.146-0.073 0.365-0.146 0.51-0.237-0.201 0.219-0.438 0.036-0.656-0.219-0.255-0.602 0.164-0.784 0.273-0.109 0.091-0.237 0.128-0.31 0.237-0.091 0.128-0.128 0.292-0.201 0.419-0.055-0.146-0.365-0.109-0.383-0.219 0.073 0.438 0.073 0.893 0.164 1.331 0.055 0.255 0 0.674-0.219 0.875s-0.492 0.419-0.529 0.729c-0.036 0.219 0.018 0.419 0.219 0.474 0.018 0.273-0.292 0.474-0.273 0.766 0 0.018 0.018 0.201 0.036 0.292z"></path>
</svg>
