<!-- Generated by IcoMoon.io -->
<svg version="1.1" xmlns="http://www.w3.org/2000/svg" width="24" height="24" viewBox="0 0 24 24">
<title>goat</title>
<path d="M23.953 9.094c0.047 0.047 0.047 0.188 0 0.234l-1.172 1.5c-0.047 0.047-0.141 0.094-0.188 0.094l-0.703-0.141-0.328 1.031c-0.141 0.234-0.469 0.234-0.609 0l-0.656-1.406-1.078-0.234-2.203 5.25 0.797 6.375c0 0.141-0.094 0.188-0.188 0.188h-0.938c-0.094 0-0.141-0.047-0.188-0.141l-0.938-3.797-0.469-0.797-1.172 4.594c0 0.094-0.094 0.141-0.188 0.141h-0.984c-0.094 0-0.188-0.094-0.188-0.188l1.078-6.328h-6.328l-1.641 3.094 0.375 3.188c0.047 0.141-0.047 0.234-0.188 0.234h-0.938c-0.047 0-0.141 0-0.188-0.094l-1.313-4.781-1.594 1.828 0.281 2.813c0.047 0.141-0.047 0.234-0.188 0.234h-1.031c-0.094 0-0.188-0.047-0.188-0.094l-0.609-2.625 0.984-3.844v-6.75s-1.078-0.422-1.078-1.406h12.844c0 0 2.25 0.047 4.453-1.547 0 0-0.375-1.031 0.281-1.688 0 0 1.313 0.938 1.688 1.172 0.469 0.281 0.797-0.234 0.656-0.656-0.094-0.281-0.422-1.313-2.109-1.969-0.215-0.072-0.713-0.111-0.609-0.422 0-0.094 0.094-0.141 0.188-0.141 2.063 0.281 3.281 1.969 3.609 2.719 0.047 0.094 0.938 0.703 0.844 1.781 0 0.141 0 0.234 0.094 0.328z"></path>
</svg>
