<!-- Generated by IcoMoon.io -->
<svg version="1.1" xmlns="http://www.w3.org/2000/svg" width="24" height="24" viewBox="0 0 24 24">
<title>group_work</title>
<path d="M15.984 17.484c1.359 0 2.531-1.125 2.531-2.484s-1.172-2.484-2.531-2.484-2.484 1.125-2.484 2.484 1.125 2.484 2.484 2.484zM9.516 8.016c0 1.359 1.125 2.484 2.484 2.484s2.484-1.125 2.484-2.484-1.125-2.531-2.484-2.531-2.484 1.172-2.484 2.531zM8.016 17.484c1.359 0 2.484-1.125 2.484-2.484s-1.125-2.484-2.484-2.484-2.531 1.125-2.531 2.484 1.172 2.484 2.531 2.484zM12 2.016c5.531 0 9.984 4.453 9.984 9.984s-4.453 9.984-9.984 9.984-9.984-4.453-9.984-9.984 4.453-9.984 9.984-9.984z"></path>
</svg>
