<!-- Generated by IcoMoon.io -->
<svg version="1.1" xmlns="http://www.w3.org/2000/svg" width="24" height="24" viewBox="0 0 24 24">
<title>group_add</title>
<path d="M12.984 13.477c2.016 0 6 0.984 6 3v2.016h-12v-2.016c0-2.016 3.984-3 6-3zM19.641 13.664c2.016 0.328 4.359 1.266 4.359 2.813v2.016h-3v-2.016c0-1.172-0.516-2.063-1.359-2.813zM12.984 11.508c-1.641 0-3-1.359-3-3s1.359-3 3-3 3 1.359 3 3-1.359 3-3 3zM18 11.508c-0.328 0-0.609-0.047-0.891-0.141 0.563-0.797 0.891-1.781 0.891-2.859s-0.328-2.063-0.891-2.859c0.281-0.094 0.563-0.141 0.891-0.141 1.641 0 3 1.359 3 3s-1.359 3-3 3zM8.016 10.477v2.016h-3v3h-2.016v-3h-3v-2.016h3v-3h2.016v3h3z"></path>
</svg>
