<!-- Generated by IcoMoon.io -->
<svg version="1.1" xmlns="http://www.w3.org/2000/svg" width="24" height="24" viewBox="0 0 24 24">
<title>hdr_on</title>
<path d="M12.984 13.5v-3h-1.969v3h1.969zM12.984 9c0.797 0 1.5 0.703 1.5 1.5v3c0 0.797-0.703 1.5-1.5 1.5h-3.469v-6h3.469zM6.516 11.016v-2.016h1.5v6h-1.5v-2.484h-2.016v2.484h-1.5v-6h1.5v2.016h2.016zM19.5 11.484v-0.984h-2.016v0.984h2.016zM21 11.484c0 0.609-0.375 1.125-0.891 1.406l0.891 2.109h-1.5l-0.891-2.016h-1.125v2.016h-1.5v-6h3.516c0.797 0 1.5 0.703 1.5 1.5v0.984z"></path>
</svg>
