<!-- Generated by IcoMoon.io -->
<svg version="1.1" xmlns="http://www.w3.org/2000/svg" width="24" height="24" viewBox="0 0 24 24">
<title>healing</title>
<path d="M16.641 20.344l3.656-3.656-3.656-3.609-3.609 3.656zM14.016 11.016c-0.563 0-1.031 0.422-1.031 0.984s0.469 0.984 1.031 0.984 0.984-0.422 0.984-0.984-0.422-0.984-0.984-0.984zM12 15c0.563 0 0.984-0.422 0.984-0.984s-0.422-1.031-0.984-1.031-0.984 0.469-0.984 1.031 0.422 0.984 0.984 0.984zM9.984 12.984c0.563 0 1.031-0.422 1.031-0.984s-0.469-0.984-1.031-0.984-0.984 0.422-0.984 0.984 0.422 0.984 0.984 0.984zM7.313 10.969l3.609-3.656-3.609-3.609-3.656 3.656zM12 9c-0.563 0-0.984 0.422-0.984 0.984s0.422 1.031 0.984 1.031 0.984-0.469 0.984-1.031-0.422-0.984-0.984-0.984zM17.719 12l3.984 3.984c0.375 0.375 0.375 1.031 0 1.406l-4.313 4.359c-0.188 0.188-0.422 0.281-0.703 0.281s-0.563-0.094-0.75-0.281l-3.938-3.984-3.984 3.984c-0.375 0.375-1.031 0.375-1.406 0l-4.359-4.359c-0.375-0.375-0.375-1.031 0-1.406l3.984-3.984-3.984-3.938c-0.375-0.375-0.375-1.078 0-1.453l4.359-4.313c0.188-0.188 0.469-0.281 0.703-0.281 0.281 0 0.516 0.094 0.703 0.281l3.984 3.984 3.938-3.984c0.375-0.375 1.078-0.375 1.453 0l4.313 4.313c0.375 0.375 0.375 1.078 0 1.453z"></path>
</svg>
