<!-- Generated by IcoMoon.io -->
<svg version="1.1" xmlns="http://www.w3.org/2000/svg" width="24" height="24" viewBox="0 0 24 24">
<title>hearing</title>
<path d="M11.484 9c0-1.359 1.172-2.484 2.531-2.484s2.484 1.125 2.484 2.484-1.125 2.484-2.484 2.484-2.531-1.125-2.531-2.484zM7.641 2.625c-1.641 1.641-2.625 3.891-2.625 6.375s0.984 4.734 2.625 6.375l-1.406 1.406c-1.969-1.969-3.234-4.734-3.234-7.781s1.266-5.813 3.234-7.781zM17.016 20.016c1.078 0 1.969-0.938 1.969-2.016h2.016c0 2.203-1.781 3.984-3.984 3.984-0.563 0-1.125-0.094-1.641-0.328-1.359-0.703-2.156-1.734-2.766-3.563-0.328-0.984-0.891-1.453-1.688-2.063-0.891-0.656-1.969-1.5-2.859-3.141-0.703-1.266-1.078-2.625-1.078-3.891 0-3.938 3.094-6.984 7.031-6.984s6.984 3.047 6.984 6.984h-2.016c0-2.813-2.156-5.016-4.969-5.016s-5.016 2.203-5.016 5.016c0 0.938 0.281 2.016 0.797 2.953 0.703 1.313 1.547 1.922 2.344 2.531 0.938 0.703 1.875 1.453 2.391 3 0.516 1.5 0.984 1.969 1.688 2.344 0.188 0.094 0.516 0.188 0.797 0.188z"></path>
</svg>
