<!-- Generated by IcoMoon.io -->
<svg version="1.1" xmlns="http://www.w3.org/2000/svg" width="24" height="24" viewBox="0 0 24 24">
<title>high_quality</title>
<path d="M14.484 13.5v-3h2.016v3h-2.016zM18 14.016v-4.031c0-0.563-0.422-0.984-0.984-0.984h-3c-0.563 0-1.031 0.422-1.031 0.984v4.031c0 0.563 0.469 0.984 1.031 0.984h0.75v1.5h1.5v-1.5h0.75c0.563 0 0.984-0.422 0.984-0.984zM11.016 15v-6h-1.5v2.484h-2.016v-2.484h-1.5v6h1.5v-2.016h2.016v2.016h1.5zM18.984 3.984c1.078 0 2.016 0.938 2.016 2.016v12c0 1.078-0.938 2.016-2.016 2.016h-13.969c-1.125 0-2.016-0.938-2.016-2.016v-12c0-1.078 0.891-2.016 2.016-2.016h13.969z"></path>
</svg>
