<!-- Generated by IcoMoon.io -->
<svg version="1.1" xmlns="http://www.w3.org/2000/svg" width="24" height="24" viewBox="0 0 24 24">
<title>hot_tub</title>
<path d="M14.672 5.859c1.031 0.984 1.453 2.344 1.266 3.703l-0.047 0.422h-1.922l0.141-0.563c0.143-0.812-0.16-1.66-0.75-2.25-1.031-1.031-1.5-2.391-1.313-3.75l0.047-0.422h1.922l-0.094 0.609c-0.141 0.797 0.094 1.594 0.656 2.203zM18.656 5.859c1.031 0.984 1.5 2.344 1.313 3.703l-0.094 0.422h-1.875l0.094-0.563c0.141-0.797-0.094-1.594-0.656-2.203l-0.094-0.047c-1.031-1.031-1.5-2.391-1.313-3.75l0.094-0.422h1.875l-0.094 0.609c-0.141 0.797 0.094 1.594 0.656 2.203zM18.984 20.016v-6h-1.969v6h1.969zM15 20.016v-6h-2.016v6h2.016zM11.016 20.016v-6h-2.016v6h2.016zM6.984 20.016v-6h-1.969v6h1.969zM11.156 12h10.828v8.016c0 1.078-0.891 1.969-1.969 1.969h-16.031c-1.078 0-1.969-0.891-1.969-1.969v-8.016h3v-0.75c0-1.219 1.031-2.25 2.25-2.25 0.721 0 1.32 0.382 1.688 0.75l1.359 1.547c0.234 0.281 0.516 0.469 0.844 0.703zM5.016 6c0-1.125 0.844-2.016 1.969-2.016s2.016 0.891 2.016 2.016-0.891 2.016-2.016 2.016-1.969-0.891-1.969-2.016z"></path>
</svg>
