<!-- Generated by IcoMoon.io -->
<svg version="1.1" xmlns="http://www.w3.org/2000/svg" width="24" height="24" viewBox="0 0 24 24">
<title>important_devices</title>
<path d="M11.953 9h3.047l-2.484 1.781 0.938 2.906-2.438-1.828-2.484 1.828 0.938-2.906-2.484-1.781h3.047l0.984-3zM20.016 2.016c1.078 0 1.969 0.844 1.969 1.969v5.016h-1.969v-5.016h-18v12h12.984v2.016h-2.016v2.016h2.016v1.969h-8.016v-1.969h2.016v-2.016h-6.984c-1.125 0-2.016-0.938-2.016-2.016v-12c0-1.125 0.891-1.969 2.016-1.969h18zM23.016 20.016v-7.031h-5.016v7.031h5.016zM23.016 11.016c0.563 0 0.984 0.422 0.984 0.984v9c0 0.563-0.422 0.984-0.984 0.984h-5.016c-0.563 0-0.984-0.422-0.984-0.984v-9c0-0.563 0.422-0.984 0.984-0.984h5.016z"></path>
</svg>
