<!-- Generated by IcoMoon.io -->
<svg version="1.1" xmlns="http://www.w3.org/2000/svg" width="24" height="24" viewBox="0 0 24 24">
<title>import_contacts2</title>
<path d="M21 18.516v-11.531c-1.078-0.328-2.297-0.469-3.516-0.469-1.688 0-4.125 0.656-5.484 1.5v11.484c1.359-0.844 3.797-1.5 5.484-1.5 1.219 0 2.438 0.188 3.516 0.516zM17.484 4.5c2.072 0 4.254 0.517 5.531 1.5v14.578c0 0.234-0.281 0.516-0.516 0.516-0.094 0-0.141 0-0.234-0.047-1.406-0.75-3.141-1.031-4.781-1.031-1.688 0-4.125 0.656-5.484 1.5-1.453-1.078-3.516-1.5-5.484-1.5-1.453 0-3.422 0.422-4.781 1.078-0.094 0-0.141 0.047-0.234 0.047-0.234 0-0.516-0.234-0.516-0.469v-14.672c1.453-1.078 3.563-1.5 5.531-1.5s4.031 0.422 5.484 1.5c1.453-1.078 3.516-1.5 5.484-1.5z"></path>
</svg>
