<!-- Generated by IcoMoon.io -->
<svg version="1.1" xmlns="http://www.w3.org/2000/svg" width="24" height="24" viewBox="0 0 24 24">
<title>invert_colors_off</title>
<path d="M12 5.109l-2.297 2.25-1.406-1.406 3.703-3.703 5.672 5.672c2.438 2.438 2.953 6.047 1.594 9l-7.266-7.219v-4.594zM12 19.594v-4.828l-4.781-4.781c-0.797 1.031-1.219 2.297-1.219 3.609 0 3.225 2.775 6 6 6zM20.672 20.859l0.328 0.375-1.266 1.266-2.719-2.719c-1.453 1.172-3.234 1.781-5.016 1.781-2.063 0-4.125-0.797-5.672-2.344-2.906-2.953-3.094-7.547-0.563-10.688l-2.766-2.766 1.266-1.266c5.461 5.461 10.892 10.953 16.406 16.359z"></path>
</svg>
