<!-- Generated by IcoMoon.io -->
<svg version="1.1" xmlns="http://www.w3.org/2000/svg" width="24" height="24" viewBox="0 0 24 24">
<title>keyboard</title>
<path d="M18.984 9.984v-1.969h-1.969v1.969h1.969zM18.984 12.984v-1.969h-1.969v1.969h1.969zM15.984 9.984v-1.969h-1.969v1.969h1.969zM15.984 12.984v-1.969h-1.969v1.969h1.969zM15.984 17.016v-2.016h-7.969v2.016h7.969zM6.984 9.984v-1.969h-1.969v1.969h1.969zM6.984 12.984v-1.969h-1.969v1.969h1.969zM8.016 11.016v1.969h1.969v-1.969h-1.969zM8.016 8.016v1.969h1.969v-1.969h-1.969zM11.016 11.016v1.969h1.969v-1.969h-1.969zM11.016 8.016v1.969h1.969v-1.969h-1.969zM20.016 5.016c1.078 0 1.969 0.891 1.969 1.969v10.031c0 1.078-0.891 1.969-1.969 1.969h-16.031c-1.078 0-1.969-0.891-1.969-1.969v-10.031c0-1.078 0.891-1.969 1.969-1.969h16.031z"></path>
</svg>
