<!-- Generated by IcoMoon.io -->
<svg version="1.1" xmlns="http://www.w3.org/2000/svg" width="24" height="24" viewBox="0 0 24 24">
<title>language</title>
<path d="M16.359 14.016h3.375c0.141-0.656 0.281-1.313 0.281-2.016s-0.141-1.359-0.281-2.016h-3.375c0.094 0.656 0.141 1.313 0.141 2.016s-0.047 1.359-0.141 2.016zM14.578 19.547c1.828-0.609 3.422-1.922 4.359-3.563h-2.953c-0.328 1.266-0.797 2.438-1.406 3.563zM14.344 14.016c0.094-0.656 0.141-1.313 0.141-2.016s-0.047-1.359-0.141-2.016h-4.688c-0.094 0.656-0.141 1.313-0.141 2.016s0.047 1.359 0.141 2.016h4.688zM12 19.969c0.844-1.219 1.5-2.531 1.922-3.984h-3.844c0.422 1.453 1.078 2.766 1.922 3.984zM8.016 8.016c0.328-1.266 0.797-2.438 1.406-3.563-1.828 0.609-3.422 1.922-4.359 3.563h2.953zM5.063 15.984c0.938 1.641 2.531 2.953 4.359 3.563-0.609-1.125-1.078-2.297-1.406-3.563h-2.953zM4.266 14.016h3.375c-0.094-0.656-0.141-1.313-0.141-2.016s0.047-1.359 0.141-2.016h-3.375c-0.141 0.656-0.281 1.313-0.281 2.016s0.141 1.359 0.281 2.016zM12 4.031c-0.844 1.219-1.5 2.531-1.922 3.984h3.844c-0.422-1.453-1.078-2.766-1.922-3.984zM18.938 8.016c-0.938-1.641-2.531-2.953-4.359-3.563 0.609 1.125 1.078 2.297 1.406 3.563h2.953zM12 2.016c5.531 0 9.984 4.453 9.984 9.984s-4.453 9.984-9.984 9.984-9.984-4.453-9.984-9.984 4.453-9.984 9.984-9.984z"></path>
</svg>
