<!-- Generated by IcoMoon.io -->
<svg version="1.1" xmlns="http://www.w3.org/2000/svg" width="24" height="24" viewBox="0 0 24 24">
<title>leak_remove</title>
<path d="M15.375 11.578c1.641-0.984 3.563-1.594 5.625-1.594v2.016c-1.5 0-2.906 0.375-4.172 1.031zM19.922 16.125l-1.594-1.594c0.797-0.328 1.734-0.516 2.672-0.516v1.969c-0.375 0-0.75 0.047-1.078 0.141zM14.016 3c0 2.063-0.609 3.984-1.594 5.625l-1.453-1.453c0.656-1.266 1.031-2.672 1.031-4.172h2.016zM3 4.266l1.266-1.266 16.734 16.734-1.266 1.266-2.859-2.859c-0.563 0.797-0.891 1.781-0.891 2.859h-1.969c0-1.594 0.563-3.094 1.453-4.266l-1.453-1.406c-1.266 1.547-2.016 3.516-2.016 5.672h-2.016c0-2.719 0.984-5.203 2.625-7.125l-2.484-2.484c-1.922 1.641-4.406 2.625-7.125 2.625v-2.016c2.156 0 4.172-0.75 5.719-2.016l-1.453-1.453c-1.172 0.891-2.672 1.453-4.266 1.453v-1.969c1.078 0 2.063-0.328 2.859-0.891zM9.984 3c0 0.938-0.188 1.875-0.516 2.672l-1.594-1.594c0.094-0.328 0.141-0.703 0.141-1.078h1.969z"></path>
</svg>
