<!-- Generated by IcoMoon.io -->
<svg version="1.1" xmlns="http://www.w3.org/2000/svg" width="24" height="24" viewBox="0 0 24 24">
<title>leak_add</title>
<path d="M14.688 24c0-5.187 4.125-9.312 9.312-9.312v2.625c-3.687 0-6.687 3-6.687 6.687h-2.625zM20 24c0-2.187 1.812-4 4-4v4h-4zM9.312 24c0-8.063 6.625-14.688 14.688-14.688v2.688c-6.625 0-12 5.375-12 12h-2.688zM9.312 0c0 5.187-4.125 9.312-9.312 9.312v-2.625c3.687 0 6.687-3 6.687-6.687h2.625zM14.688 0c0 8.063-6.563 14.688-14.688 14.688v-2.688c6.625 0 12-5.375 12-12h2.688zM4 0c0 2.187-1.812 4-4 4v-4h4z"></path>
</svg>
