<!-- Generated by IcoMoon.io -->
<svg version="1.1" xmlns="http://www.w3.org/2000/svg" width="24" height="24" viewBox="0 0 24 24">
<title>library_music</title>
<path d="M3.984 6v14.016h14.016v1.969h-14.016c-1.078 0-1.969-0.891-1.969-1.969v-14.016h1.969zM18 6.984v-1.969h-3.984v5.484c-0.422-0.328-0.938-0.516-1.5-0.516-1.359 0-2.531 1.172-2.531 2.531s1.172 2.484 2.531 2.484 2.484-1.125 2.484-2.484v-5.531h3zM20.016 2.016c1.078 0 1.969 0.891 1.969 1.969v12c0 1.078-0.891 2.016-1.969 2.016h-12c-1.078 0-2.016-0.938-2.016-2.016v-12c0-1.078 0.938-1.969 2.016-1.969h12z"></path>
</svg>
