<!-- Generated by IcoMoon.io -->
<svg version="1.1" xmlns="http://www.w3.org/2000/svg" width="24" height="24" viewBox="0 0 24 24">
<title>linear_scale</title>
<path d="M19.5 9.516c1.359 0 2.484 1.125 2.484 2.484s-1.125 2.484-2.484 2.484c-1.031 0-1.922-0.609-2.297-1.5h-2.906c-0.375 0.891-1.266 1.5-2.297 1.5s-1.922-0.609-2.297-1.5h-2.906c-0.375 0.891-1.266 1.5-2.297 1.5-1.359 0-2.484-1.125-2.484-2.484s1.125-2.484 2.484-2.484c1.031 0 1.922 0.609 2.297 1.5h2.906c0.375-0.891 1.266-1.5 2.297-1.5s1.922 0.609 2.297 1.5h2.906c0.375-0.891 1.266-1.5 2.297-1.5z"></path>
</svg>
