<!-- Generated by IcoMoon.io -->
<svg version="1.1" xmlns="http://www.w3.org/2000/svg" width="24" height="24" viewBox="0 0 24 24">
<title>linked_camera</title>
<path d="M15.984 6c1.125 0 2.016 0.891 2.016 2.016h1.313c0-1.828-1.5-3.328-3.328-3.328v1.313zM12 18.984c2.766 0 5.016-2.203 5.016-4.969s-2.25-5.016-5.016-5.016-5.016 2.25-5.016 5.016 2.25 4.969 5.016 4.969zM17.016 9h4.969v11.016c0 1.078-0.891 1.969-1.969 1.969h-16.031c-1.078 0-1.969-0.891-1.969-1.969v-12c0-1.078 0.891-2.016 1.969-2.016h3.188l1.828-2.016h6v3c1.125 0 2.016 0.891 2.016 2.016zM15.984 3.328v-1.313c3.328 0 6 2.672 6 6h-1.313c0-2.578-2.109-4.688-4.688-4.688zM8.813 14.016c0-1.781 1.406-3.234 3.188-3.234s3.188 1.453 3.188 3.234-1.406 3.188-3.188 3.188-3.188-1.406-3.188-3.188z"></path>
</svg>
