<!-- Generated by IcoMoon.io -->
<svg version="1.1" xmlns="http://www.w3.org/2000/svg" width="24" height="24" viewBox="0 0 24 24">
<title>live_help</title>
<path d="M15.047 10.266c0.563-0.563 0.938-1.359 0.938-2.25 0-2.203-1.781-4.031-3.984-4.031s-3.984 1.828-3.984 4.031h1.969c0-1.078 0.938-2.016 2.016-2.016s2.016 0.938 2.016 2.016c0 0.563-0.234 1.031-0.609 1.406l-1.219 1.266c-0.703 0.75-1.172 1.734-1.172 2.813v0.516h1.969c0-1.5 0.469-2.109 1.172-2.859zM12.984 18v-2.016h-1.969v2.016h1.969zM18.984 2.016c1.078 0 2.016 0.891 2.016 1.969v14.016c0 1.078-0.938 2.016-2.016 2.016h-3.984l-3 3-3-3h-3.984c-1.125 0-2.016-0.938-2.016-2.016v-14.016c0-1.078 0.891-1.969 2.016-1.969h13.969z"></path>
</svg>
