<!-- Generated by IcoMoon.io -->
<svg version="1.1" xmlns="http://www.w3.org/2000/svg" width="24" height="24" viewBox="0 0 24 24">
<title>local_florist</title>
<path d="M12 5.484c-1.359 0-2.484 1.172-2.484 2.531s1.125 2.484 2.484 2.484 2.484-1.125 2.484-2.484-1.125-2.531-2.484-2.531zM5.578 10.266c0-0.984 0.609-1.828 1.453-2.25-0.844-0.422-1.453-1.266-1.453-2.25 0-1.359 1.172-2.531 2.531-2.531 0.516 0 0.984 0.188 1.406 0.469v-0.188c0-1.359 1.125-2.531 2.484-2.531s2.484 1.172 2.484 2.531v0.188c0.422-0.281 0.891-0.469 1.406-0.469 1.359 0 2.531 1.172 2.531 2.531 0 0.984-0.609 1.828-1.453 2.25 0.844 0.422 1.453 1.266 1.453 2.25 0 1.359-1.172 2.484-2.531 2.484-0.516 0-0.984-0.141-1.406-0.422v0.188c0 1.359-1.125 2.484-2.484 2.484s-2.484-1.125-2.484-2.484v-0.188c-0.422 0.281-0.891 0.422-1.406 0.422-1.359 0-2.531-1.125-2.531-2.484zM12 21.984c-4.969 0-9-4.031-9-9 4.969 0 9 4.031 9 9zM12 21.984c0-4.969 4.031-9 9-9 0 4.969-4.031 9-9 9z"></path>
</svg>
