<!-- Generated by IcoMoon.io -->
<svg version="1.1" xmlns="http://www.w3.org/2000/svg" width="24" height="24" viewBox="0 0 24 24">
<title>local_shipping</title>
<path d="M18 18.516c0.844 0 1.5-0.656 1.5-1.5s-0.656-1.5-1.5-1.5-1.5 0.656-1.5 1.5 0.656 1.5 1.5 1.5zM19.5 9.516h-2.484v2.484h4.453zM6 18.516c0.844 0 1.5-0.656 1.5-1.5s-0.656-1.5-1.5-1.5-1.5 0.656-1.5 1.5 0.656 1.5 1.5 1.5zM20.016 8.016l3 3.984v5.016h-2.016c0 1.641-1.359 3-3 3s-3-1.359-3-3h-6c0 1.641-1.359 3-3 3s-3-1.359-3-3h-2.016v-11.016c0-1.078 0.938-2.016 2.016-2.016h14.016v4.031h3z"></path>
</svg>
