<!-- Generated by IcoMoon.io -->
<svg version="1.1" xmlns="http://www.w3.org/2000/svg" width="24" height="24" viewBox="0 0 24 24">
<title>local_taxi</title>
<path d="M5.016 11.016h13.969l-1.5-4.5h-10.969zM17.484 15.984c0.844 0 1.5-0.656 1.5-1.5s-0.656-1.5-1.5-1.5-1.5 0.656-1.5 1.5 0.656 1.5 1.5 1.5zM6.516 15.984c0.844 0 1.5-0.656 1.5-1.5s-0.656-1.5-1.5-1.5-1.5 0.656-1.5 1.5 0.656 1.5 1.5 1.5zM18.938 6l2.063 6v8.016c0 0.563-0.422 0.984-0.984 0.984h-1.031c-0.563 0-0.984-0.422-0.984-0.984v-1.031h-12v1.031c0 0.563-0.422 0.984-0.984 0.984h-1.031c-0.563 0-0.984-0.422-0.984-0.984v-8.016l2.063-6c0.188-0.609 0.797-0.984 1.453-0.984h2.484v-2.016h6v2.016h2.484c0.656 0 1.266 0.375 1.453 0.984z"></path>
</svg>
