<!-- Generated by IcoMoon.io -->
<svg version="1.1" xmlns="http://www.w3.org/2000/svg" width="24" height="24" viewBox="0 0 24 24">
<title>local_atm</title>
<path d="M20.016 18v-12h-16.031v12h16.031zM20.016 3.984c1.125 0 1.969 0.891 1.969 2.016v12c0 1.125-0.844 2.016-1.969 2.016h-16.031c-1.125 0-1.969-0.891-1.969-2.016v-12c0-1.125 0.844-2.016 1.969-2.016h16.031zM11.016 17.016v-1.031h-2.016v-1.969h3.984v-1.031h-3c-0.563 0-0.984-0.422-0.984-0.984v-3c0-0.563 0.422-0.984 0.984-0.984h1.031v-1.031h1.969v1.031h2.016v1.969h-3.984v1.031h3c0.563 0 0.984 0.422 0.984 0.984v3c0 0.563-0.422 0.984-0.984 0.984h-1.031v1.031h-1.969z"></path>
</svg>
