<!-- Generated by IcoMoon.io -->
<svg version="1.1" xmlns="http://www.w3.org/2000/svg" width="24" height="24" viewBox="0 0 24 24">
<title>location_off</title>
<path d="M11.719 11.484c2.774 2.742 5.545 5.487 8.297 8.25l-1.266 1.266-3.375-3.328c-1.688 2.484-3.375 4.313-3.375 4.313s-6.984-7.734-6.984-12.984c0-0.516 0.094-1.031 0.188-1.547l-3.188-3.188 1.266-1.266 8.344 8.344zM12 6.516c-0.75 0-1.359 0.328-1.828 0.844l-3.234-3.188c1.266-1.313 3.094-2.156 5.063-2.156 3.891 0 6.984 3.094 6.984 6.984 0 1.688-0.703 3.609-1.688 5.484l-3.609-3.656c0.516-0.469 0.797-1.078 0.797-1.828 0-1.359-1.125-2.484-2.484-2.484z"></path>
</svg>
