<!-- Generated by IcoMoon.io -->
<svg version="1.1" xmlns="http://www.w3.org/2000/svg" width="24" height="24" viewBox="0 0 24 24">
<title>local_car_wash</title>
<path d="M5.016 12.984h13.969l-1.5-4.5h-10.969zM17.484 18c0.844 0 1.5-0.656 1.5-1.5s-0.656-1.5-1.5-1.5-1.5 0.656-1.5 1.5 0.656 1.5 1.5 1.5zM6.516 18c0.844 0 1.5-0.656 1.5-1.5s-0.656-1.5-1.5-1.5-1.5 0.656-1.5 1.5 0.656 1.5 1.5 1.5zM18.938 8.016l2.063 6v7.969c0 0.563-0.422 1.031-0.984 1.031h-1.031c-0.563 0-0.984-0.469-0.984-1.031v-0.984h-12v0.984c0 0.563-0.422 1.031-0.984 1.031h-1.031c-0.563 0-0.984-0.469-0.984-1.031v-7.969l2.063-6c0.188-0.609 0.797-1.031 1.453-1.031h10.969c0.656 0 1.266 0.422 1.453 1.031zM6.984 5.016c-0.844 0-1.5-0.656-1.5-1.5 0-0.984 1.5-2.719 1.5-2.719s1.5 1.734 1.5 2.719c0 0.844-0.656 1.5-1.5 1.5zM12 5.016c-0.844 0-1.5-0.656-1.5-1.5 0-0.984 1.5-2.719 1.5-2.719s1.5 1.734 1.5 2.719c0 0.844-0.656 1.5-1.5 1.5zM17.016 5.016c-0.844 0-1.5-0.656-1.5-1.5 0-0.984 1.5-2.719 1.5-2.719s1.5 1.734 1.5 2.719c0 0.844-0.656 1.5-1.5 1.5z"></path>
</svg>
