<!-- Generated by IcoMoon.io -->
<svg version="1.1" xmlns="http://www.w3.org/2000/svg" width="24" height="24" viewBox="0 0 24 24">
<title>local_mall</title>
<path d="M12 12.984c2.766 0 5.016-2.203 5.016-4.969h-2.016c0 1.641-1.359 3-3 3s-3-1.359-3-3h-2.016c0 2.766 2.25 4.969 5.016 4.969zM12 3c-1.641 0-3 1.359-3 3h6c0-1.641-1.359-3-3-3zM18.984 6c1.078 0 2.016 0.938 2.016 2.016v12c0 1.078-0.938 1.969-2.016 1.969h-13.969c-1.078 0-2.016-0.891-2.016-1.969v-12c0-1.078 0.938-2.016 2.016-2.016h1.969c0-2.766 2.25-5.016 5.016-5.016s5.016 2.25 5.016 5.016h1.969z"></path>
</svg>
