<!-- Generated by IcoMoon.io -->
<svg version="1.1" xmlns="http://www.w3.org/2000/svg" width="24" height="24" viewBox="0 0 24 24">
<title>location_disabled</title>
<path d="M16.266 17.531l-9.797-9.797c-0.891 1.172-1.453 2.672-1.453 4.266 0 3.891 3.094 6.984 6.984 6.984 1.594 0 3.094-0.563 4.266-1.453zM3 4.266l1.266-1.266 16.734 16.734-1.266 1.266-2.063-2.063c-1.313 1.078-2.906 1.828-4.688 2.016v2.063h-1.969v-2.063c-4.172-0.469-7.5-3.797-7.969-7.969h-2.063v-1.969h2.063c0.188-1.781 0.938-3.375 2.016-4.688zM20.953 11.016h2.063v1.969h-2.063c-0.141 1.125-0.469 2.25-0.984 3.188l-1.5-1.5c0.328-0.797 0.516-1.734 0.516-2.672 0-3.891-3.094-6.984-6.984-6.984-0.938 0-1.875 0.188-2.672 0.516l-1.5-1.5c0.984-0.516 2.063-0.844 3.188-0.984v-2.063h1.969v2.063c4.172 0.469 7.5 3.797 7.969 7.969z"></path>
</svg>
