<!-- Generated by IcoMoon.io -->
<svg version="1.1" xmlns="http://www.w3.org/2000/svg" width="24" height="24" viewBox="0 0 24 24">
<title>local_play</title>
<path d="M15.563 16.781l-1.078-4.078 3.281-2.719-4.219-0.234-1.547-3.938-1.547 3.938-4.266 0.234 3.328 2.719-1.078 4.078 3.563-2.297zM20.016 12c0 1.078 0.891 2.016 1.969 2.016v3.984c0 1.078-0.891 2.016-1.969 2.016h-16.031c-1.078 0-1.969-0.938-1.969-2.016v-3.984c1.125 0 1.969-0.938 1.969-2.016s-0.891-2.016-1.969-2.016v-3.984c0-1.078 0.891-2.016 1.969-2.016h16.031c1.078 0 1.969 0.938 1.969 2.016v3.984c-1.078 0-1.969 0.938-1.969 2.016z"></path>
</svg>
