<!-- Generated by IcoMoon.io -->
<svg version="1.1" xmlns="http://www.w3.org/2000/svg" width="24" height="24" viewBox="0 0 24 24">
<title>lock_open</title>
<path d="M18 20.016v-10.031h-12v10.031h12zM18 8.016c1.078 0 2.016 0.891 2.016 1.969v10.031c0 1.078-0.938 1.969-2.016 1.969h-12c-1.078 0-2.016-0.891-2.016-1.969v-10.031c0-1.078 0.938-1.969 2.016-1.969h9.094v-2.016c0-1.688-1.406-3.094-3.094-3.094s-3.094 1.406-3.094 3.094h-1.922c0-2.766 2.25-5.016 5.016-5.016s5.016 2.25 5.016 5.016v2.016h0.984zM12 17.016c-1.078 0-2.016-0.938-2.016-2.016s0.938-2.016 2.016-2.016 2.016 0.938 2.016 2.016-0.938 2.016-2.016 2.016z"></path>
</svg>
