<!-- Generated by IcoMoon.io -->
<svg version="1.1" xmlns="http://www.w3.org/2000/svg" width="24" height="24" viewBox="0 0 24 24">
<title>looks_6</title>
<path d="M15 9v-2.016h-3.984c-1.078 0-2.016 0.891-2.016 2.016v6c0 1.125 0.938 2.016 2.016 2.016h1.969c1.078 0 2.016-0.891 2.016-2.016v-2.016c0-1.125-0.938-1.969-2.016-1.969h-1.969v-2.016h3.984zM18.984 3c1.078 0 2.016 0.938 2.016 2.016v13.969c0 1.078-0.938 2.016-2.016 2.016h-13.969c-1.078 0-2.016-0.938-2.016-2.016v-13.969c0-1.078 0.938-2.016 2.016-2.016h13.969zM11.016 15v-2.016h1.969v2.016h-1.969z"></path>
</svg>
