<!-- Generated by IcoMoon.io -->
<svg version="1.1" xmlns="http://www.w3.org/2000/svg" width="24" height="24" viewBox="0 0 24 24">
<title>looks_3</title>
<path d="M15 10.5v-1.5c0-1.125-0.891-2.016-1.969-2.016h-4.031v2.016h4.031v2.016h-2.016v1.969h2.016v2.016h-4.031v2.016h4.031c1.078 0 1.969-0.891 1.969-2.016v-1.5c0-0.844-0.656-1.5-1.5-1.5 0.844 0 1.5-0.656 1.5-1.5zM19.031 3c1.078 0 1.969 0.938 1.969 2.016v13.969c0 1.078-0.891 2.016-1.969 2.016h-14.016c-1.078 0-2.016-0.938-2.016-2.016v-13.969c0-1.078 0.938-2.016 2.016-2.016h14.016z"></path>
</svg>
