<!-- Generated by IcoMoon.io -->
<svg version="1.1" xmlns="http://www.w3.org/2000/svg" width="24" height="24" viewBox="0 0 24 24">
<title>loyalty</title>
<path d="M17.25 15.281c0.469-0.469 0.75-1.078 0.75-1.781 0-1.359-1.125-2.484-2.484-2.484-0.703 0-1.313 0.234-1.781 0.703l-0.75 0.75-0.703-0.75c-0.469-0.469-1.078-0.703-1.781-0.703-1.359 0-2.484 1.125-2.484 2.484 0 0.703 0.234 1.313 0.703 1.781l4.266 4.266zM5.484 6.984c0.844 0 1.5-0.656 1.5-1.5s-0.656-1.5-1.5-1.5-1.5 0.656-1.5 1.5 0.656 1.5 1.5 1.5zM21.422 11.578c0.375 0.375 0.563 0.844 0.563 1.406s-0.188 1.031-0.563 1.406l-7.031 7.031c-0.375 0.375-0.844 0.563-1.406 0.563s-1.031-0.188-1.406-0.563l-9-9c-0.375-0.375-0.563-0.844-0.563-1.406v-7.031c0-1.078 0.891-1.969 1.969-1.969h7.031c0.563 0 1.031 0.188 1.406 0.563z"></path>
</svg>
