<!-- Generated by IcoMoon.io -->
<svg version="1.1" xmlns="http://www.w3.org/2000/svg" width="20" height="20" viewBox="0 0 20 20">
<title>menu4</title>
<path d="M19.143 8.571h-18.286c-0.789 0-0.857 0.639-0.857 1.429s0.069 1.429 0.857 1.429h18.286c0.789 0 0.857-0.639 0.857-1.429s-0.069-1.429-0.857-1.429zM19.143 14.286h-18.286c-0.789 0-0.857 0.639-0.857 1.429s0.069 1.429 0.857 1.429h18.286c0.789 0 0.857-0.639 0.857-1.429s-0.069-1.429-0.857-1.429zM0.857 5.714h18.286c0.789 0 0.857-0.639 0.857-1.429s-0.069-1.429-0.857-1.429h-18.286c-0.789 0-0.857 0.639-0.857 1.429s0.069 1.429 0.857 1.429z"></path>
</svg>
