<!-- Generated by IcoMoon.io -->
<svg version="1.1" xmlns="http://www.w3.org/2000/svg" width="24" height="24" viewBox="0 0 24 24">
<title>menu2</title>
<path d="M22.8 10.8h-21.6c-0.66 0-1.2 0.54-1.2 1.2s0.54 1.2 1.2 1.2h21.6c0.66 0 1.2-0.54 1.2-1.2s-0.54-1.2-1.2-1.2z"></path>
<path d="M1.2 6h21.6c0.66 0 1.2-0.54 1.2-1.2s-0.54-1.2-1.2-1.2h-21.6c-0.66 0-1.2 0.54-1.2 1.2s0.54 1.2 1.2 1.2z"></path>
<path d="M22.8 18h-21.6c-0.66 0-1.2 0.54-1.2 1.2s0.54 1.2 1.2 1.2h21.6c0.66 0 1.2-0.54 1.2-1.2s-0.54-1.2-1.2-1.2z"></path>
</svg>
