<!-- Generated by IcoMoon.io -->
<svg version="1.1" xmlns="http://www.w3.org/2000/svg" width="24" height="24" viewBox="0 0 24 24">
<title>mic_off</title>
<path d="M4.266 3l16.734 16.734-1.266 1.266-4.172-4.172c-0.75 0.469-1.688 0.75-2.578 0.891v3.281h-1.969v-3.281c-3.281-0.469-6-3.281-6-6.703h1.688c0 3 2.531 5.063 5.297 5.063 0.797 0 1.594-0.188 2.297-0.516l-1.641-1.641c-0.188 0.047-0.422 0.094-0.656 0.094-1.641 0-3-1.359-3-3v-0.75l-6-6zM15 11.156l-6-5.953v-0.188c0-1.641 1.359-3 3-3s3 1.359 3 3v6.141zM18.984 11.016c0 1.172-0.328 2.297-0.891 3.281l-1.219-1.266c0.281-0.609 0.422-1.266 0.422-2.016h1.688z"></path>
</svg>
