<!-- Generated by IcoMoon.io -->
<svg version="1.1" xmlns="http://www.w3.org/2000/svg" width="24" height="24" viewBox="0 0 24 24">
<title>mic_none</title>
<path d="M17.297 11.016h1.688c0 3.422-2.719 6.234-6 6.703v3.281h-1.969v-3.281c-3.281-0.469-6-3.281-6-6.703h1.688c0 3 2.531 5.063 5.297 5.063s5.297-2.063 5.297-5.063zM10.781 4.922v6.188c0 0.656 0.563 1.172 1.219 1.172s1.172-0.516 1.172-1.172l0.047-6.188c0-0.656-0.563-1.219-1.219-1.219s-1.219 0.563-1.219 1.219zM12 14.016c-1.641 0-3-1.359-3-3v-6c0-1.641 1.359-3 3-3s3 1.359 3 3v6c0 1.641-1.359 3-3 3z"></path>
</svg>
