<!-- Generated by IcoMoon.io -->
<svg version="1.1" xmlns="http://www.w3.org/2000/svg" width="24" height="24" viewBox="0 0 24 24">
<title>money_off</title>
<path d="M5.344 4.078l14.578 14.625-1.266 1.266-2.203-2.25c-0.609 0.563-1.5 0.938-2.438 1.125v2.156h-3v-2.156c-1.922-0.422-3.563-1.641-3.703-3.844h2.203c0.094 1.172 0.938 2.109 3 2.109 1.359 0 2.063-0.469 2.391-0.938l-3.516-3.469c-2.344-0.703-3.891-1.875-3.891-3.938l-3.422-3.422zM12.516 6.891c-0.609 0-1.125 0.094-1.547 0.281l-1.453-1.453c0.469-0.234 0.984-0.422 1.5-0.563v-2.156h3v2.203c2.109 0.516 3.141 2.063 3.188 3.797h-2.203c-0.047-1.266-0.703-2.109-2.484-2.109z"></path>
</svg>
