<!-- Generated by IcoMoon.io -->
<svg version="1.1" xmlns="http://www.w3.org/2000/svg" width="24" height="24" viewBox="0 0 24 24">
<title>monochrome_photos</title>
<path d="M20.016 18.984v-12h-8.016v1.031c2.813 0 5.016 2.156 5.016 4.969s-2.203 5.016-5.016 5.016v-1.781c-1.781 0-3.188-1.453-3.188-3.234s1.406-3.188 3.188-3.188v6.422c1.781 0 3.188-1.453 3.188-3.234s-1.406-3.188-3.188-3.188v-1.781c-2.813 0-5.016 2.156-5.016 4.969s2.203 5.016 5.016 5.016v0.984h8.016zM20.016 5.016c1.078 0 1.969 0.891 1.969 1.969v12c0 1.078-0.891 2.016-1.969 2.016h-16.031c-1.078 0-1.969-0.938-1.969-2.016v-12c0-1.078 0.891-1.969 1.969-1.969h3.234l1.781-2.016h6l1.781 2.016h3.234z"></path>
</svg>
