<!-- Generated by IcoMoon.io -->
<svg version="1.1" xmlns="http://www.w3.org/2000/svg" width="24" height="24" viewBox="0 0 24 24">
<title>mood_bad</title>
<path d="M12 14.016c2.344 0 4.313 1.406 5.109 3.469h-10.219c0.797-2.063 2.766-3.469 5.109-3.469zM8.484 11.016c-0.844 0-1.5-0.656-1.5-1.5s0.656-1.5 1.5-1.5 1.5 0.656 1.5 1.5-0.656 1.5-1.5 1.5zM15.516 11.016c-0.844 0-1.5-0.656-1.5-1.5s0.656-1.5 1.5-1.5 1.5 0.656 1.5 1.5-0.656 1.5-1.5 1.5zM12 20.016c4.406 0 8.016-3.609 8.016-8.016s-3.609-8.016-8.016-8.016-8.016 3.609-8.016 8.016 3.609 8.016 8.016 8.016zM12 2.016c5.531 0 9.984 4.453 9.984 9.984s-4.453 9.984-9.984 9.984-9.984-4.453-9.984-9.984 4.453-9.984 9.984-9.984z"></path>
</svg>
