<!-- Generated by IcoMoon.io -->
<svg version="1.1" xmlns="http://www.w3.org/2000/svg" width="24" height="24" viewBox="0 0 24 24">
<title>movie_filter</title>
<path d="M16.922 11.953l2.063-0.938-2.063-0.938-0.938-2.063-0.938 2.063-2.063 0.938 2.063 0.938 0.938 2.063zM11.25 15.234l2.766-1.219-2.766-1.266-1.266-2.766-1.219 2.766-2.766 1.266 2.766 1.219 1.219 2.766zM18 3.984h3.984v14.016c0 1.078-0.891 2.016-1.969 2.016h-16.031c-1.078 0-1.969-0.938-1.969-2.016v-12c0-1.078 0.891-2.016 1.969-2.016h1.031l1.969 3h3l-1.969-3h1.969l2.016 3h3l-2.016-3h2.016l2.016 3h3z"></path>
</svg>
