<!-- Generated by IcoMoon.io -->
<svg version="1.1" xmlns="http://www.w3.org/2000/svg" width="24" height="24" viewBox="0 0 24 24">
<title>multiline_chart</title>
<path d="M21.984 6.938l-3.047 3.422c1.078 1.734 1.828 3.844 2.063 6.141h-2.016c-0.188-1.641-0.703-3.188-1.453-4.547l-4.031 4.547-3.984-4.031-6 6-1.5-1.5 7.5-7.5 3.984 4.031 2.859-3.281c-1.688-1.969-4.031-3.234-6.75-3.234-2.344 0-4.5 0.938-6.188 2.438l-1.406-1.406c2.063-1.828 4.688-3 7.594-3 3.234 0 6.047 1.406 8.109 3.703l2.859-3.188z"></path>
</svg>
