<!-- Generated by IcoMoon.io -->
<svg version="1.1" xmlns="http://www.w3.org/2000/svg" width="24" height="24" viewBox="0 0 24 24">
<title>music_video</title>
<path d="M8.016 15c0-1.641 1.359-3 3-3 0.328 0 0.656 0.094 0.984 0.188v-6.188h5.016v2.016h-3v7.031c0 1.641-1.359 2.953-3 2.953s-3-1.359-3-3zM21 18.984v-13.969h-18v13.969h18zM21 3c1.078 0 2.016 0.938 2.016 2.016v13.969c0 1.078-0.938 2.016-2.016 2.016h-18c-1.078 0-2.016-0.938-2.016-2.016v-13.969c0-1.078 0.938-2.016 2.016-2.016h18z"></path>
</svg>
