<!-- Generated by IcoMoon.io -->
<svg version="1.1" xmlns="http://www.w3.org/2000/svg" width="24" height="24" viewBox="0 0 24 24">
<title>nature_people</title>
<path d="M4.5 11.016c-0.844 0-1.5-0.656-1.5-1.5s0.656-1.5 1.5-1.5 1.5 0.656 1.5 1.5-0.656 1.5-1.5 1.5zM22.172 9.188c0 3.609-2.719 6.516-6.188 6.938v3.891h3v1.969h-15.984v-4.969h-0.984v-4.031c0-0.563 0.422-0.984 0.984-0.984h3c0.563 0 0.984 0.422 0.984 0.984v4.031h-0.984v3h8.016v-3.938c-3.328-0.563-5.859-3.422-5.859-6.891 0-3.891 3.141-7.031 7.031-7.031s6.984 3.141 6.984 7.031z"></path>
</svg>
