<!-- Generated by IcoMoon.io -->
<svg version="1.1" xmlns="http://www.w3.org/2000/svg" width="24" height="24" viewBox="0 0 24 24">
<title>next_week</title>
<path d="M11.016 18.516l3.984-4.031-3.984-3.984-1.031 0.984 3 3-3 3zM9.984 5.016v1.969h4.031v-1.969h-4.031zM14.016 3c1.093 0 1.969 0.914 1.969 2.016v1.969h4.031c1.078 0 1.969 0.938 1.969 2.016v11.016c0 1.078-0.891 1.969-1.969 1.969h-16.031c-1.078 0-1.969-0.891-1.969-1.969v-11.016c0-1.078 0.891-2.016 1.969-2.016h4.031v-1.969c0-1.078 0.891-2.016 1.969-2.016h4.031z"></path>
</svg>
