<!-- Generated by IcoMoon.io -->
<svg version="1.1" xmlns="http://www.w3.org/2000/svg" width="24" height="24" viewBox="0 0 24 24">
<title>no_encryption</title>
<path d="M8.906 6v1.219l-1.828-1.828c0.281-2.484 2.344-4.406 4.922-4.406 2.766 0 5.016 2.25 5.016 5.016v2.016h0.984c1.078 0 2.016 0.891 2.016 1.969v8.344l-10.359-10.313h5.438v-2.016c0-1.688-1.406-3.094-3.094-3.094s-3.094 1.406-3.094 3.094zM21 21.797l-1.219 1.219-1.125-1.125c-0.188 0.047-0.422 0.094-0.656 0.094h-12c-1.078 0-2.016-0.891-2.016-1.969v-10.031c0-0.75 0.469-1.406 1.078-1.734l-2.063-2.016 1.219-1.219z"></path>
</svg>
