<!-- Generated by IcoMoon.io -->
<svg version="1.1" xmlns="http://www.w3.org/2000/svg" width="24" height="24" viewBox="0 0 24 24">
<title>not_interested</title>
<path d="M18.328 16.922c1.078-1.359 1.688-3.094 1.688-4.922 0-4.406-3.609-8.016-8.016-8.016-1.828 0-3.563 0.609-4.922 1.688zM12 20.016c1.828 0 3.563-0.609 4.922-1.688l-11.25-11.25c-1.078 1.359-1.688 3.094-1.688 4.922 0 4.406 3.609 8.016 8.016 8.016zM12 2.016c5.531 0 9.984 4.453 9.984 9.984s-4.453 9.984-9.984 9.984-9.984-4.453-9.984-9.984 4.453-9.984 9.984-9.984z"></path>
</svg>
