<!-- Generated by IcoMoon.io -->
<svg version="1.1" xmlns="http://www.w3.org/2000/svg" width="24" height="24" viewBox="0 0 24 24">
<title>notifications_active</title>
<path d="M12 21.984c-1.125 0-2.016-0.891-2.016-1.969h3.984c0 1.164-0.872 1.969-1.969 1.969zM18 11.016v4.969l2.016 2.016v0.984h-16.031v-0.984l2.016-2.016v-4.969c0-3.094 1.641-5.625 4.5-6.328v-0.703c0-0.844 0.656-1.5 1.5-1.5s1.5 0.656 1.5 1.5v0.703c2.859 0.703 4.5 3.281 4.5 6.328zM19.969 10.5c-0.141-2.672-1.5-4.969-3.516-6.422l1.406-1.406c2.391 1.828 3.984 4.641 4.125 7.828h-2.016zM7.594 4.078c-2.063 1.453-3.422 3.75-3.563 6.422h-2.016c0.141-3.188 1.734-6 4.125-7.828z"></path>
</svg>
