<!-- Generated by IcoMoon.io -->
<svg version="1.1" xmlns="http://www.w3.org/2000/svg" width="24" height="24" viewBox="0 0 24 24">
<title>notifications_none</title>
<path d="M15.984 17.016v-6c0-2.484-1.5-4.5-3.984-4.5s-3.984 2.016-3.984 4.5v6h7.969zM18 15.984l2.016 2.016v0.984h-16.031v-0.984l2.016-2.016v-4.969c0-3.094 1.641-5.625 4.5-6.328v-0.703c0-0.844 0.656-1.5 1.5-1.5s1.5 0.656 1.5 1.5v0.703c2.859 0.703 4.5 3.281 4.5 6.328v4.969zM12 21.984c-1.078 0-2.016-0.891-2.016-1.969h4.031c0 1.078-0.938 1.969-2.016 1.969z"></path>
</svg>
