<!-- Generated by IcoMoon.io -->
<svg version="1.1" xmlns="http://www.w3.org/2000/svg" width="24" height="24" viewBox="0 0 24 24">
<title>notifications_off</title>
<path d="M18 14.672l-8.953-9.422c0.234-0.094 0.469-0.234 0.703-0.328h0.047l0.281-0.141c0.141-0.047 0.281-0.047 0.422-0.094v-0.703c0-0.844 0.656-1.5 1.5-1.5s1.5 0.656 1.5 1.5v0.703c2.859 0.703 4.5 3.234 4.5 6.328v3.656zM12 21.984c-1.125 0-2.016-0.844-2.016-1.969h4.031c0 1.125-0.891 1.969-2.016 1.969zM7.828 6.141c4.388 4.534 8.797 9.047 13.172 13.594l-1.266 1.266-2.016-2.016h-13.734v-0.984l2.016-2.016v-5.016c0-1.266 0.281-2.438 0.797-3.422l-2.813-2.766 1.266-1.313z"></path>
</svg>
