<!-- Generated by IcoMoon.io -->
<svg version="1.1" xmlns="http://www.w3.org/2000/svg" width="24" height="24" viewBox="0 0 24 24">
<title>pageview</title>
<path d="M16.781 18.188l1.406-1.406-2.906-2.906c0.422-0.703 0.703-1.5 0.703-2.391 0-2.484-2.016-4.5-4.5-4.5s-4.5 2.016-4.5 4.5 2.016 4.5 4.5 4.5c0.891 0 1.688-0.281 2.391-0.703zM20.016 3.984c1.078 0 1.969 0.938 1.969 2.016v12c0 1.078-0.891 2.016-1.969 2.016h-16.031c-1.078 0-1.969-0.938-1.969-2.016v-12c0-1.078 0.891-2.016 1.969-2.016h16.031zM11.484 9c1.359 0 2.531 1.125 2.531 2.484s-1.172 2.531-2.531 2.531-2.484-1.172-2.484-2.531 1.125-2.484 2.484-2.484z"></path>
</svg>
