<!-- Generated by IcoMoon.io -->
<svg version="1.1" xmlns="http://www.w3.org/2000/svg" width="24" height="24" viewBox="0 0 24 24">
<title>pan_tool</title>
<path d="M23.016 5.484v14.531c0 2.203-1.828 3.984-4.031 3.984h-7.266c-1.078 0-2.109-0.422-2.859-1.172l-7.875-8.016s1.266-1.219 1.313-1.219c0.234-0.188 0.516-0.281 0.797-0.281 0.234 0 0.422 0.047 0.609 0.141 0.047 0 4.313 2.438 4.313 2.438v-11.906c0-0.844 0.656-1.5 1.5-1.5s1.5 0.656 1.5 1.5v7.031h0.984v-9.516c0-0.844 0.656-1.5 1.5-1.5s1.5 0.656 1.5 1.5v9.516h0.984v-8.531c0-0.844 0.656-1.5 1.5-1.5s1.5 0.656 1.5 1.5v8.531h1.031v-5.531c0-0.844 0.656-1.5 1.5-1.5s1.5 0.656 1.5 1.5z"></path>
</svg>
