<!-- Generated by IcoMoon.io -->
<svg version="1.1" xmlns="http://www.w3.org/2000/svg" width="24" height="24" viewBox="0 0 24 24">
<title>panorama_vertical</title>
<path d="M6.563 20.016h10.875c-0.75-2.578-1.125-5.297-1.125-8.016s0.375-5.438 1.125-8.016h-10.875c0.75 2.578 1.125 5.297 1.125 8.016s-0.375 5.438-1.125 8.016zM19.922 21.141c0.047 0.094 0.094 0.188 0.094 0.281 0 0.328-0.281 0.563-0.656 0.563h-14.719c-0.422 0-0.656-0.234-0.656-0.563 0-0.094 0.047-0.188 0.094-0.281 1.078-2.953 1.641-6.047 1.641-9.141s-0.563-6.188-1.641-9.141c-0.047-0.094-0.094-0.188-0.094-0.281 0-0.328 0.234-0.563 0.656-0.563h14.719c0.422 0 0.656 0.234 0.656 0.563 0 0.094-0.047 0.188-0.094 0.281-1.078 2.953-1.641 6.047-1.641 9.141s0.563 6.188 1.641 9.141z"></path>
</svg>
