<!-- Generated by IcoMoon.io -->
<svg version="1.1" xmlns="http://www.w3.org/2000/svg" width="24" height="24" viewBox="0 0 24 24">
<title>panorama_horizontal</title>
<path d="M21.422 3.984c0.328 0 0.563 0.234 0.563 0.656v14.719c0 0.422-0.234 0.656-0.563 0.656-0.094 0-0.188-0.047-0.281-0.094-2.953-1.078-6.047-1.641-9.141-1.641s-6.188 0.563-9.141 1.641c-0.094 0.047-0.188 0.094-0.281 0.094-0.328 0-0.563-0.281-0.563-0.656v-14.719c0-0.422 0.234-0.656 0.563-0.656 0.094 0 0.188 0.047 0.281 0.094 2.953 1.078 6.047 1.641 9.141 1.641s6.188-0.563 9.141-1.641c0.094-0.047 0.188-0.094 0.281-0.094zM20.016 6.563c-2.578 0.797-5.297 1.125-8.016 1.125s-5.438-0.375-8.016-1.125v10.875c2.578-0.75 5.297-1.125 8.016-1.125s5.438 0.375 8.016 1.125v-10.875z"></path>
</svg>
