<!-- Generated by IcoMoon.io -->
<svg version="1.1" xmlns="http://www.w3.org/2000/svg" width="24" height="24" viewBox="0 0 24 24">
<title>panorama_wide_angle</title>
<path d="M12 3.984c2.719 0 5.25 0.281 7.969 0.75l0.891 0.141 0.281 0.891c0.563 2.063 0.844 4.172 0.844 6.234s-0.281 4.172-0.844 6.234l-0.281 0.891-0.891 0.141c-2.719 0.469-5.25 0.75-7.969 0.75s-5.25-0.281-7.969-0.75l-0.891-0.141-0.281-0.891c-0.563-2.063-0.844-4.172-0.844-6.234s0.281-4.172 0.844-6.234l0.281-0.891 0.891-0.141c2.719-0.469 5.25-0.75 7.969-0.75zM12 6c-2.438 0-4.734 0.234-7.313 0.656-0.469 1.781-0.703 3.563-0.703 5.344s0.234 3.563 0.703 5.344c2.578 0.422 4.875 0.656 7.313 0.656s4.734-0.234 7.313-0.656c0.469-1.781 0.703-3.563 0.703-5.344s-0.234-3.563-0.703-5.344c-2.578-0.422-4.875-0.656-7.313-0.656z"></path>
</svg>
