<!-- Generated by IcoMoon.io -->
<svg version="1.1" xmlns="http://www.w3.org/2000/svg" width="24" height="24" viewBox="0 0 24 24">
<title>party_mode</title>
<path d="M12 17.016c2.766 0 5.016-2.25 5.016-5.016 0-0.328-0.047-0.656-0.094-0.984h-2.109c0.094 0.328 0.188 0.656 0.188 0.984 0 1.641-1.359 3-3 3h-3.984c0.938 1.219 2.344 2.016 3.984 2.016zM12 6.984c-2.766 0-5.016 2.25-5.016 5.016 0 0.328 0.047 0.656 0.094 0.984h2.109c-0.094-0.328-0.188-0.656-0.188-0.984 0-1.641 1.359-3 3-3h3.984c-0.938-1.219-2.344-2.016-3.984-2.016zM20.016 3.984c1.078 0 1.969 0.938 1.969 2.016v12c0 1.078-0.891 2.016-1.969 2.016h-16.031c-1.078 0-1.969-0.938-1.969-2.016v-12c0-1.078 0.891-2.016 1.969-2.016h3.188l1.828-1.969h6l1.828 1.969h3.188z"></path>
</svg>
