<!-- Generated by IcoMoon.io -->
<svg version="1.1" xmlns="http://www.w3.org/2000/svg" width="24" height="24" viewBox="0 0 24 24">
<title>people_outline</title>
<path d="M16.5 6.516c-1.078 0-2.016 0.891-2.016 1.969s0.938 2.016 2.016 2.016 2.016-0.938 2.016-2.016-0.938-1.969-2.016-1.969zM16.5 12c-1.922 0-3.516-1.594-3.516-3.516s1.594-3.469 3.516-3.469 3.516 1.547 3.516 3.469-1.594 3.516-3.516 3.516zM7.5 6.516c-1.078 0-2.016 0.891-2.016 1.969s0.938 2.016 2.016 2.016 2.016-0.938 2.016-2.016-0.938-1.969-2.016-1.969zM7.5 12c-1.922 0-3.516-1.594-3.516-3.516s1.594-3.469 3.516-3.469 3.516 1.547 3.516 3.469-1.594 3.516-3.516 3.516zM21.516 17.484v-1.219c0-0.563-2.578-1.781-5.016-1.781-1.078 0-2.109 0.281-3 0.563 0.328 0.375 0.516 0.75 0.516 1.219v1.219h7.5zM12.516 17.484v-1.219c0-0.563-2.578-1.781-5.016-1.781s-5.016 1.219-5.016 1.781v1.219h10.031zM16.5 12.984c2.156 0 6.516 1.125 6.516 3.281v2.719h-22.031v-2.719c0-2.156 4.359-3.281 6.516-3.281 1.219 0 3.047 0.375 4.5 1.031 1.453-0.656 3.281-1.031 4.5-1.031z"></path>
</svg>
