<!-- Generated by IcoMoon.io -->
<svg version="1.1" xmlns="http://www.w3.org/2000/svg" width="24" height="24" viewBox="0 0 24 24">
<title>perm_contact_calendar2</title>
<path d="M19.194 20.403v-1.18c0-2.417-4.778-3.71-7.194-3.71s-7.194 1.293-7.194 3.71v1.18h14.389zM12 6.014c-1.967 0-3.597 1.63-3.597 3.597s1.63 3.597 3.597 3.597 3.597-1.63 3.597-3.597-1.63-3.597-3.597-3.597zM20.375 2.417c1.293 0 2.417 1.124 2.417 2.417v16.749c0 1.293-1.124 2.417-2.417 2.417h-16.749c-1.349 0-2.417-1.124-2.417-2.417v-16.749c0-1.293 1.068-2.417 2.417-2.417h1.18v-2.417h2.417v2.417h9.555v-2.417h2.417v2.417h1.18z"></path>
</svg>
