<!-- Generated by IcoMoon.io -->
<svg version="1.1" xmlns="http://www.w3.org/2000/svg" width="24" height="24" viewBox="0 0 24 24">
<title>perm_camera_mic</title>
<path d="M14.016 12.984v-3.984c0-1.078-0.938-2.016-2.016-2.016s-2.016 0.938-2.016 2.016v3.984c0 1.078 0.938 2.016 2.016 2.016s2.016-0.938 2.016-2.016zM20.016 5.016c1.078 0 1.969 0.891 1.969 1.969v12c0 1.078-0.891 2.016-1.969 2.016h-7.031v-2.109c2.813-0.469 5.016-2.953 5.016-5.906h-2.016c0 2.203-1.781 4.031-3.984 4.031s-3.984-1.828-3.984-4.031h-2.016c0 2.953 2.203 5.438 5.016 5.906v2.109h-7.031c-1.078 0-1.969-0.938-1.969-2.016v-12c0-1.078 0.891-1.969 1.969-1.969h3.188l1.828-2.016h6l1.828 2.016h3.188z"></path>
</svg>
