<!-- Generated by IcoMoon.io -->
<svg version="1.1" xmlns="http://www.w3.org/2000/svg" width="24" height="24" viewBox="0 0 24 24">
<title>perm_data_setting</title>
<path d="M18.984 20.484c0.844 0 1.5-0.656 1.5-1.5s-0.656-1.5-1.5-1.5-1.5 0.656-1.5 1.5 0.656 1.5 1.5 1.5zM22.688 19.5l1.078 0.797c0.094 0.094 0.094 0.234 0.047 0.328l-0.984 1.734c-0.047 0.094-0.234 0.188-0.328 0.141l-1.219-0.516c-0.234 0.188-0.563 0.328-0.844 0.469l-0.188 1.359c0 0.141-0.141 0.188-0.281 0.188h-1.969c-0.141 0-0.281-0.047-0.281-0.188l-0.188-1.359c-0.328-0.141-0.563-0.281-0.844-0.469l-1.219 0.516c-0.141 0.047-0.281-0.047-0.328-0.141l-0.984-1.734c-0.047-0.094-0.047-0.234 0.047-0.328l1.078-0.797c0-0.141-0.047-0.328-0.047-0.516s0.047-0.328 0.047-0.469l-1.078-0.844c-0.094-0.094-0.094-0.234-0.047-0.328l0.984-1.734c0.047-0.094 0.234-0.141 0.328-0.094l1.219 0.516c0.281-0.188 0.563-0.375 0.844-0.516l0.188-1.313c0-0.141 0.141-0.188 0.281-0.188h1.969c0.141 0 0.281 0.047 0.281 0.188l0.188 1.313c0.328 0.141 0.563 0.328 0.844 0.516l1.219-0.516c0.141-0.047 0.281 0 0.328 0.094l0.984 1.734c0.047 0.094 0.047 0.234-0.047 0.328l-1.078 0.844c0.047 0.141 0.047 0.281 0.047 0.469s-0.047 0.375-0.047 0.516zM18.984 11.484c-4.125 0-7.5 3.375-7.5 7.5 0 0.328 0.047 0.703 0.094 1.031h-11.578l20.016-20.016-0.047 11.578c-0.328-0.047-0.656-0.094-0.984-0.094z"></path>
</svg>
