<!-- Generated by IcoMoon.io -->
<svg version="1.1" xmlns="http://www.w3.org/2000/svg" width="24" height="24" viewBox="0 0 24 24">
<title>person_pin</title>
<path d="M18 15.984v-0.891c0-2.016-3.984-3.094-6-3.094s-6 1.078-6 3.094v0.891h12zM12 5.297c-1.5 0-2.719 1.219-2.719 2.719s1.219 2.672 2.719 2.672 2.719-1.172 2.719-2.672-1.219-2.719-2.719-2.719zM18.984 2.016c1.078 0 2.016 0.891 2.016 1.969v14.016c0 1.078-0.938 2.016-2.016 2.016h-3.984l-3 3-3-3h-3.984c-1.125 0-2.016-0.938-2.016-2.016v-14.016c0-1.078 0.891-1.969 2.016-1.969h13.969z"></path>
</svg>
