<!-- Generated by IcoMoon.io -->
<svg version="1.1" xmlns="http://www.w3.org/2000/svg" width="24" height="24" viewBox="0 0 24 24">
<title>phonelink_ring</title>
<path d="M14.016 20.016v-16.031h-10.031v16.031h10.031zM14.016 0.984c1.078 0 1.969 0.938 1.969 2.016v18c0 1.078-0.891 2.016-1.969 2.016h-10.031c-1.078 0-1.969-0.938-1.969-2.016v-18c0-1.078 0.891-2.016 1.969-2.016h10.031zM18 9.797c1.219 1.313 1.219 3.094 0 4.313l-0.984-1.031c0.516-0.703 0.516-1.594 0-2.297zM20.109 7.688c2.484 2.391 2.484 6.234 0 8.531l-1.031-1.031c1.781-1.922 1.781-4.688 0-6.469z"></path>
</svg>
