<!-- Generated by IcoMoon.io -->
<svg version="1.1" xmlns="http://www.w3.org/2000/svg" width="24" height="24" viewBox="0 0 24 24">
<title>phonelink_erase</title>
<path d="M18.984 0.984c1.078 0 2.016 0.938 2.016 2.016v18c0 1.078-0.938 2.016-2.016 2.016h-9.984c-1.078 0-2.016-0.938-2.016-2.016v-3h2.016v2.016h9.984v-16.031h-9.984v2.016h-2.016v-3c0-1.078 0.938-2.016 2.016-2.016h9.984zM12.984 8.203l-3.984 3.984 3.984 4.031-0.984 0.984-3.984-3.984-4.031 3.984-0.984-0.984 3.984-4.031-3.984-3.984 0.984-0.984 4.031 3.984 3.984-3.984z"></path>
</svg>
