<!-- Generated by IcoMoon.io -->
<svg version="1.1" xmlns="http://www.w3.org/2000/svg" width="24" height="24" viewBox="0 0 24 24">
<title>phonelink_setup</title>
<path d="M18.984 0.984c1.078 0 2.016 0.938 2.016 2.016v18c0 1.078-0.938 2.016-2.016 2.016h-9.984c-1.078 0-2.016-0.938-2.016-2.016v-3h2.016v2.016h9.984v-16.031h-9.984v2.016h-2.016v-3c0-1.078 0.938-2.016 2.016-2.016h9.984zM8.016 14.016c1.078 0 1.969-0.938 1.969-2.016s-0.891-2.016-1.969-2.016-2.016 0.938-2.016 2.016 0.938 2.016 2.016 2.016zM11.813 12.516l1.078 0.891c0.094 0.094 0.188 0.188 0.094 0.281l-0.984 1.734c-0.094 0.094-0.188 0.094-0.281 0.094l-1.313-0.516c-0.281 0.188-0.609 0.422-0.891 0.516l-0.234 1.266c-0.094 0.094-0.188 0.234-0.281 0.234h-2.016c-0.094 0-0.281-0.141-0.188-0.234l-0.188-1.266c-0.281-0.094-0.609-0.328-0.891-0.516l-1.406 0.422c-0.094 0.094-0.234-0.047-0.328-0.141l-0.984-1.688c0-0.094 0-0.188 0.094-0.375l1.125-0.797v-1.031l-1.125-0.797c-0.094-0.094-0.188-0.188-0.094-0.281l0.984-1.734c0.094-0.094 0.234-0.094 0.328-0.094l1.266 0.516c0.281-0.188 0.656-0.422 0.938-0.516l0.188-1.266c0.094-0.094 0.188-0.234 0.281-0.234h2.016c0.188 0 0.281 0.141 0.281 0.234l0.234 1.266c0.281 0.094 0.609 0.328 0.891 0.516l1.313-0.422c0.094-0.094 0.188 0.047 0.281 0.141l0.984 1.688c0 0.094 0 0.188-0.094 0.281l-1.078 0.797v1.031z"></path>
</svg>
