<!-- Generated by IcoMoon.io -->
<svg version="1.1" xmlns="http://www.w3.org/2000/svg" width="24" height="24" viewBox="0 0 24 24">
<title>phone_bluetooth_speaker</title>
<path d="M20.016 15.516c0.563 0 0.984 0.422 0.984 0.984v3.516c0 0.563-0.422 0.984-0.984 0.984-9.375 0-17.016-7.641-17.016-17.016 0-0.563 0.422-0.984 0.984-0.984h3.516c0.563 0 0.984 0.422 0.984 0.984 0 1.266 0.188 2.438 0.563 3.563 0.094 0.328 0.047 0.75-0.234 1.031l-2.203 2.203c1.453 2.859 3.797 5.156 6.609 6.609l2.203-2.203c0.281-0.281 0.703-0.328 1.031-0.234 1.125 0.375 2.297 0.563 3.563 0.563zM18 7.219v1.875l0.938-0.938zM18 2.906v1.875l0.938-0.938zM14.719 9.516l-0.703-0.703 2.766-2.813-2.766-2.813 0.703-0.703 2.297 2.297v-3.797h0.469l2.859 2.859-2.156 2.156 2.156 2.156-2.859 2.859h-0.469v-3.797z"></path>
</svg>
