<!-- Generated by IcoMoon.io -->
<svg version="1.1" xmlns="http://www.w3.org/2000/svg" width="32" height="32" viewBox="0 0 32 32">
<title>phonelink_lock-painted</title>
<path fill="#d51f26" d="M14.375 14.688c0.812 0 1.625 0.751 1.625 1.688v4.688c0 0.812-0.812 1.625-1.751 1.625h-7.312c-0.812 0-1.625-0.812-1.625-1.751v-4.688c0-0.812 0.812-1.563 1.625-1.563v-2c0-1.875 1.875-3.375 3.751-3.375s3.688 1.5 3.688 3.375v2zM12.688 14.688v-2c0-1.063-0.937-1.751-2-1.751s-2 0.688-2 1.751v2h4z"></path>
<path fill="#000" d="M25.312 1.312c1.437 0 2.688 1.251 2.688 2.688v24c0 1.437-1.251 2.688-2.688 2.688h-13.312c-1.437 0-2.688-1.251-2.688-2.688v-4h2.688v2.688h13.312v-21.375h-13.312v2.688h-2.688v-4c0-1.437 1.251-2.688 2.688-2.688h13.312z"></path>
</svg>
