<!-- Generated by IcoMoon.io -->
<svg version="1.1" xmlns="http://www.w3.org/2000/svg" width="24" height="24" viewBox="0 0 24 24">
<title>phone_locked</title>
<path d="M19.219 3.984v-0.469c0-0.938-0.797-1.734-1.734-1.734s-1.688 0.797-1.688 1.734v0.469h3.422zM20.016 3.984c0.563 0 0.984 0.469 0.984 1.031v3.984c0 0.563-0.422 0.984-0.984 0.984h-5.016c-0.563 0-0.984-0.422-0.984-0.984v-3.984c0-0.563 0.422-1.031 0.984-1.031v-0.469c0-1.359 1.125-2.531 2.484-2.531s2.531 1.172 2.531 2.531v0.469zM20.016 15.516c0.563 0 0.984 0.422 0.984 0.984v3.516c0 0.563-0.422 0.984-0.984 0.984-9.375 0-17.016-7.641-17.016-17.016 0-0.563 0.422-0.984 0.984-0.984h3.516c0.563 0 0.984 0.422 0.984 0.984 0 1.266 0.188 2.438 0.563 3.563 0.094 0.328 0.047 0.75-0.234 1.031l-2.203 2.203c1.453 2.859 3.797 5.156 6.609 6.609l2.203-2.203c0.281-0.281 0.703-0.328 1.031-0.234 1.125 0.375 2.297 0.563 3.563 0.563z"></path>
</svg>
