<!-- Generated by IcoMoon.io -->
<svg version="1.1" xmlns="http://www.w3.org/2000/svg" width="24" height="24" viewBox="0 0 24 24">
<title>phonelink_lock</title>
<path d="M9.516 11.016v-1.5c0-0.797-0.703-1.313-1.5-1.313s-1.5 0.516-1.5 1.313v1.5h3zM10.781 11.016c0.609 0 1.219 0.563 1.219 1.266v3.516c0 0.609-0.609 1.219-1.313 1.219h-5.484c-0.609 0-1.219-0.609-1.219-1.313v-3.516c0-0.609 0.609-1.172 1.219-1.172v-1.5c0-1.406 1.406-2.531 2.813-2.531s2.766 1.125 2.766 2.531v1.5zM18.984 0.984c1.078 0 2.016 0.938 2.016 2.016v18c0 1.078-0.938 2.016-2.016 2.016h-9.984c-1.078 0-2.016-0.938-2.016-2.016v-3h2.016v2.016h9.984v-16.031h-9.984v2.016h-2.016v-3c0-1.078 0.938-2.016 2.016-2.016h9.984z"></path>
</svg>
