<!-- Generated by IcoMoon.io -->
<svg version="1.1" xmlns="http://www.w3.org/2000/svg" width="24" height="24" viewBox="0 0 24 24">
<title>picture_as_pdf</title>
<path d="M14.016 11.484v-3h0.984v3h-0.984zM3.984 6v14.016h14.016v1.969h-14.016c-1.078 0-1.969-0.891-1.969-1.969v-14.016h1.969zM9 9.516v-1.031h0.984v1.031h-0.984zM20.484 8.484v-1.5h-3v6h1.5v-1.969h1.5v-1.5h-1.5v-1.031h1.5zM16.5 11.484v-3c0-0.844-0.656-1.5-1.5-1.5h-2.484v6h2.484c0.844 0 1.5-0.656 1.5-1.5zM11.484 9.516v-1.031c0-0.844-0.656-1.5-1.5-1.5h-2.484v6h1.5v-1.969h0.984c0.844 0 1.5-0.656 1.5-1.5zM20.016 2.016c1.078 0 1.969 0.891 1.969 1.969v12c0 1.078-0.891 2.016-1.969 2.016h-12c-1.078 0-2.016-0.938-2.016-2.016v-12c0-1.078 0.938-1.969 2.016-1.969h12z"></path>
</svg>
