<!-- Generated by IcoMoon.io -->
<svg version="1.1" xmlns="http://www.w3.org/2000/svg" width="24" height="24" viewBox="0 0 24 24">
<title>portrait</title>
<path d="M18.984 18.984v-13.969h-13.969v13.969h13.969zM18.984 3c1.078 0 2.016 0.938 2.016 2.016v13.969c0 1.078-0.938 2.016-2.016 2.016h-13.969c-1.078 0-2.016-0.938-2.016-2.016v-13.969c0-1.078 0.938-2.016 2.016-2.016h13.969zM16.5 16.266v0.75h-9v-0.75c0-1.5 3-2.25 4.5-2.25s4.5 0.75 4.5 2.25zM12 12.234c-1.219 0-2.25-1.031-2.25-2.25s1.031-2.25 2.25-2.25 2.25 1.031 2.25 2.25-1.031 2.25-2.25 2.25z"></path>
</svg>
