<!-- Generated by IcoMoon.io -->
<svg version="1.1" xmlns="http://www.w3.org/2000/svg" width="32" height="32" viewBox="0 0 32 32">
<title>qr-code-read</title>
<path d="M0 0v14.609h14.609v-14.609h-14.609zM12.522 12.522h-10.435v-10.435h10.435v10.435z"></path>
<path d="M4.174 4.174h6.261v6.261h-6.261v-6.261z"></path>
<path d="M17.391 0v14.609h14.609v-14.609h-14.609zM29.913 12.522h-10.435v-10.435h10.435v10.435z"></path>
<path d="M21.565 4.174h6.261v6.261h-6.261v-6.261z"></path>
<path d="M0 17.391v14.609h14.609v-14.609h-14.609zM12.522 29.913h-10.435v-10.435h10.435v10.435z"></path>
<path d="M4.174 21.565h6.261v6.261h-6.261v-6.261z"></path>
<path d="M21.565 19.478v-2.087h-4.174v14.609h4.174v-2.087h-2.087v-4.174h2.087v-2.087h-2.087v-4.174z"></path>
<path d="M29.913 17.391h2.087v2.087h-2.087v-2.087z"></path>
<path d="M29.913 22.261v7.652h-2.087v2.087h4.174v-9.739z"></path>
<path d="M23.652 17.391h4.174v2.087h-4.174v-2.087z"></path>
<path d="M27.826 23.652v-2.087h-4.174v6.261h4.174v-2.087h-2.087v-2.087z"></path>
<path d="M23.652 29.913h2.087v2.087h-2.087v-2.087z"></path>
</svg>
