<!-- Generated by IcoMoon.io -->
<svg version="1.1" xmlns="http://www.w3.org/2000/svg" width="24" height="24" viewBox="0 0 24 24">
<title>radio</title>
<path d="M20.016 12v-3.984h-16.031v3.984h12v-2.016h2.016v2.016h2.016zM6.984 20.016c1.641 0 3-1.359 3-3s-1.359-3-3-3-3 1.359-3 3 1.359 3 3 3zM3.234 6.141l12.656-5.156 0.656 1.688-8.25 3.328h11.719c1.125 0 1.969 0.891 1.969 2.016v12c0 1.078-0.844 1.969-1.969 1.969h-16.031c-1.125 0-1.969-0.891-1.969-1.969v-12c0-0.844 0.469-1.594 1.219-1.875z"></path>
</svg>
