<!-- Generated by IcoMoon.io -->
<svg version="1.1" xmlns="http://www.w3.org/2000/svg" width="32" height="32" viewBox="0 0 32 32">
<title>receive</title>
<path d="M18.821 24.387l-6.671 7.36c-0.146 0.161-0.353 0.253-0.571 0.253s-0.425-0.092-0.571-0.253l-6.67-7.36c-0.205-0.226-0.257-0.551-0.133-0.829s0.4-0.458 0.704-0.458h3.076v-11.663c0-0.425 0.345-0.77 0.77-0.77h5.649c0.425 0 0.77 0.345 0.77 0.77v11.663h3.076c0.305 0 0.581 0.18 0.704 0.458s0.071 0.604-0.133 0.829zM24.015 20.563v-11.663h3.076c0.305 0 0.581-0.18 0.704-0.458s0.071-0.604-0.133-0.829l-6.67-7.36c-0.146-0.161-0.353-0.253-0.571-0.253s-0.425 0.092-0.571 0.253l-6.671 7.36c-0.205 0.226-0.257 0.551-0.133 0.829s0.4 0.458 0.704 0.458h3.076v11.663c0 0.425 0.345 0.77 0.77 0.77h5.649c0.425 0 0.77-0.345 0.77-0.77zM18.367 8.13c0-0.425-0.345-0.77-0.77-0.77h-2.109l4.933-5.443 4.933 5.443h-2.109c-0.425 0-0.77 0.345-0.77 0.77v11.663h-4.108v-11.663z"></path>
</svg>
