<!-- Generated by IcoMoon.io -->
<svg version="1.1" xmlns="http://www.w3.org/2000/svg" width="24" height="24" viewBox="0 0 24 24">
<title>recent_actors</title>
<path d="M12.516 17.016v-0.75c0-1.5-3-2.25-4.5-2.25s-4.5 0.75-4.5 2.25v0.75h9zM8.016 7.734c-1.219 0-2.25 1.031-2.25 2.25s1.031 2.25 2.25 2.25 2.25-1.031 2.25-2.25-1.031-2.25-2.25-2.25zM14.016 5.016c0.563 0 0.984 0.422 0.984 0.984v12c0 0.563-0.422 0.984-0.984 0.984h-12c-0.563 0-1.031-0.422-1.031-0.984v-12c0-0.563 0.469-0.984 1.031-0.984h12zM17.016 18.984v-13.969h1.969v13.969h-1.969zM21 5.016h2.016v13.969h-2.016v-13.969z"></path>
</svg>
