<!-- Generated by IcoMoon.io -->
<svg version="1.1" xmlns="http://www.w3.org/2000/svg" width="24" height="24" viewBox="0 0 24 24">
<title>redeem</title>
<path d="M20.016 14.016v-6h-5.109l2.109 2.813-1.641 1.172c-1.127-1.529-2.265-3.048-3.375-4.594-1.11 1.546-2.248 3.064-3.375 4.594l-1.641-1.172 2.109-2.813h-5.109v6h16.031zM20.016 18.984v-1.969h-16.031v1.969h16.031zM9 3.984c-0.563 0-0.984 0.469-0.984 1.031s0.422 0.984 0.984 0.984 0.984-0.422 0.984-0.984-0.422-1.031-0.984-1.031zM15 3.984c-0.563 0-0.984 0.469-0.984 1.031s0.422 0.984 0.984 0.984 0.984-0.422 0.984-0.984-0.422-1.031-0.984-1.031zM20.016 6c1.125 0 1.969 0.891 1.969 2.016v10.969c0 1.125-0.844 2.016-1.969 2.016h-16.031c-1.125 0-1.969-0.891-1.969-2.016v-10.969c0-1.125 0.844-2.016 1.969-2.016h2.203c-0.094-0.328-0.188-0.656-0.188-0.984 0-1.641 1.359-3 3-3 1.031 0 1.922 0.516 2.484 1.313l0.516 0.703 0.516-0.703c0.563-0.797 1.453-1.313 2.484-1.313 1.641 0 3 1.359 3 3 0 0.328-0.094 0.656-0.188 0.984h2.203z"></path>
</svg>
