<!-- Generated by IcoMoon.io -->
<svg version="1.1" xmlns="http://www.w3.org/2000/svg" width="24" height="24" viewBox="0 0 24 24">
<title>replay_5</title>
<path d="M11.813 13.594c-0.084 0.034-0.328 0.113-0.328 0.188 0 0.094-0.094 0.141-0.094 0.141h-0.703l0.234-2.203h2.391v0.703h-1.734l-0.094 0.891s0.094 0 0.094-0.094 0.141-0.047 0.141-0.141 0.094 0 0.188 0h0.188c0.188 0 0.422 0.047 0.516 0.141s0.281 0.188 0.375 0.281c0.208 0.208 0.422 0.639 0.422 1.078 0 0.188 0 0.422-0.094 0.516s-0.141 0.328-0.328 0.516-0.281 0.188-0.375 0.281-0.422 0.094-0.609 0.094-0.422 0-0.516-0.094-0.281-0.094-0.469-0.188c-0.262-0.131-0.422-0.529-0.422-0.891h0.797c0 0.347 0.248 0.469 0.609 0.469 0.094 0 0.188 0 0.281-0.094l0.234-0.188s0.094-0.188 0.094-0.281v-0.609l-0.094-0.188-0.234-0.234s-0.188-0.094-0.281-0.094h-0.188zM12 5.016c4.406 0 8.016 3.563 8.016 7.969s-3.609 8.016-8.016 8.016-8.016-3.609-8.016-8.016h2.016c0 3.281 2.719 6 6 6s6-2.719 6-6-2.719-6-6-6v4.031l-5.016-5.016 5.016-5.016v4.031z"></path>
</svg>
