<!-- Generated by IcoMoon.io -->
<svg version="1.1" xmlns="http://www.w3.org/2000/svg" width="24" height="24" viewBox="0 0 24 24">
<title>replay_30</title>
<path d="M13.406 15.188c0 0.177 0.324 0.328 0.516 0.328 0.094 0 0.188 0 0.281-0.094l0.188-0.234s0.094-0.188 0.094-0.281v-2.016c0-0.094-0.094-0.188-0.094-0.281 0-0.109-0.354-0.328-0.469-0.328-0.094 0-0.234 0.047-0.328 0.141l-0.188 0.188s-0.094 0.188-0.094 0.281v2.016s0.094 0.188 0.094 0.281zM15.281 14.203c0 0.281 0 0.609-0.094 0.797l-0.281 0.609s-0.328 0.281-0.516 0.281-0.422 0.094-0.609 0.094c-0.475 0-0.757-0.214-1.078-0.375-0.188-0.094-0.188-0.328-0.281-0.609s-0.141-0.516-0.141-0.797v-0.703c0-0.281 0.047-0.609 0.141-0.797l0.281-0.609s0.328-0.281 0.516-0.281 0.375-0.094 0.563-0.094 0.422 0 0.609 0.094 0.328 0.188 0.516 0.281 0.188 0.328 0.281 0.609 0.094 0.516 0.094 0.797v0.703zM9.984 13.5c0.381 0 0.703-0.232 0.703-0.609v-0.188s-0.094-0.094-0.094-0.188-0.094-0.094-0.188-0.094h-0.516s-0.094 0.094-0.188 0.094-0.094 0.094-0.094 0.188v0.188h-1.031c0-0.464 0.413-1.078 0.844-1.078 0.094 0 0.375-0.094 0.469-0.094 0.407 0 0.826 0.132 1.125 0.281 0.237 0.119 0.375 0.568 0.375 0.891v0.328s-0.094 0.188-0.094 0.281-0.094 0.188-0.188 0.188-0.234 0.141-0.328 0.234c0.188 0.094 0.422 0.188 0.516 0.375s0.188 0.422 0.188 0.609 0 0.422-0.094 0.516-0.188 0.281-0.281 0.375-0.328 0.188-0.516 0.188-0.422 0.094-0.609 0.094-0.375 0-0.469-0.094-0.328-0.094-0.516-0.188c-0.262-0.131-0.422-0.633-0.422-0.984h0.844v0.188s0.094 0.094 0.094 0.188 0.094 0.094 0.188 0.094h0.516s0.094-0.094 0.188-0.094 0.094-0.094 0.094-0.188v-0.516s-0.094-0.094-0.094-0.188-0.094-0.094-0.188-0.094h-0.609v-0.703h0.375zM12 5.016c4.406 0 8.016 3.563 8.016 7.969s-3.609 8.016-8.016 8.016-8.016-3.609-8.016-8.016h2.016c0 3.281 2.719 6 6 6s6-2.719 6-6-2.719-6-6-6v4.031l-5.016-5.016 5.016-5.016v4.031z"></path>
</svg>
