<!-- Generated by IcoMoon.io -->
<svg version="1.1" xmlns="http://www.w3.org/2000/svg" width="24" height="24" viewBox="0 0 24 24">
<title>restore_page</title>
<path d="M12 18c2.766 0 5.016-2.25 5.016-5.016s-2.25-4.969-5.016-4.969c-1.781 0-3.328 0.938-4.219 2.297l-1.266-1.313v3.984h3.984l-1.594-1.594c0.563-1.125 1.734-1.875 3.094-1.875 1.922 0 3.516 1.547 3.516 3.469s-1.594 3.516-3.516 3.516c-1.172 0-2.25-0.609-2.859-1.5h-1.734c0.75 1.781 2.531 3 4.594 3zM14.016 2.016l6 6v12c0 1.078-0.938 1.969-2.016 1.969h-12c-1.078 0-2.016-0.891-2.016-1.969l0.047-16.031c0-1.078 0.891-1.969 1.969-1.969h8.016z"></path>
</svg>
