<!-- Generated by IcoMoon.io -->
<svg version="1.1" xmlns="http://www.w3.org/2000/svg" width="24" height="24" viewBox="0 0 24 24">
<title>ring_volume</title>
<path d="M6.422 9.797c0 0-3.469-3.469-3.563-3.516l1.406-1.453 3.563 3.563zM12.984 2.016v4.969h-1.969v-4.969h1.969zM21.141 6.281c-0.094 0.047-3.563 3.516-3.563 3.516l-1.406-1.406 3.563-3.563zM23.719 16.688c0.188 0.188 0.281 0.422 0.281 0.703s-0.094 0.516-0.281 0.703l-2.484 2.484c-0.188 0.188-0.422 0.281-0.703 0.281s-0.516-0.094-0.703-0.281c-0.797-0.75-1.688-1.406-2.672-1.875-0.328-0.141-0.563-0.516-0.563-0.891v-3.094c-1.453-0.469-3-0.703-4.594-0.703s-3.141 0.234-4.594 0.703v3.094c0 0.422-0.234 0.797-0.563 0.938-0.984 0.469-1.875 1.078-2.672 1.828-0.188 0.188-0.422 0.281-0.703 0.281s-0.516-0.094-0.703-0.281l-2.484-2.484c-0.188-0.188-0.281-0.422-0.281-0.703s0.094-0.516 0.281-0.703c3.047-2.906 7.172-4.688 11.719-4.688s8.672 1.781 11.719 4.688z"></path>
</svg>
