<!-- Generated by IcoMoon.io -->
<svg version="1.1" xmlns="http://www.w3.org/2000/svg" width="24" height="24" viewBox="0 0 24 24">
<title>rotate_left</title>
<path d="M12.984 4.078c3.938 0.469 7.031 3.844 7.031 7.922s-3.094 7.453-7.031 7.922v-2.016c2.859-0.469 5.016-2.953 5.016-5.906s-2.156-5.438-5.016-5.906v3.891l-4.547-4.453 4.547-4.547v3.094zM7.078 18.328l1.453-1.453c0.75 0.563 1.594 0.891 2.484 1.031v2.016c-1.406-0.188-2.766-0.703-3.938-1.594zM6.094 12.984c0.141 0.891 0.469 1.734 0.984 2.484l-1.406 1.406c-0.891-1.172-1.406-2.484-1.594-3.891h2.016zM7.125 8.531c-0.516 0.75-0.891 1.594-1.031 2.484h-2.016c0.188-1.406 0.75-2.719 1.641-3.891z"></path>
</svg>
