<!-- Generated by IcoMoon.io -->
<svg version="1.1" xmlns="http://www.w3.org/2000/svg" width="24" height="24" viewBox="0 0 24 24">
<title>rotate_90_degrees_ccw</title>
<path d="M19.359 6.656c3.516 3.516 3.516 9.188 0 12.703-1.734 1.781-4.078 2.625-6.375 2.625-1.5 0-2.953-0.375-4.313-1.125l1.5-1.453c0.891 0.422 1.828 0.609 2.813 0.609 1.781 0 3.609-0.703 4.969-2.063 2.719-2.719 2.719-7.172 0-9.891-1.359-1.359-3.188-2.063-4.969-2.063v3.234l-4.219-4.219 4.219-4.266v3.234c2.297 0 4.641 0.891 6.375 2.672zM3.703 12.891l3.656 3.656 3.656-3.656-3.656-3.656zM7.359 6.422l6.469 6.469-6.469 6.469-6.516-6.469z"></path>
</svg>
