<!-- Generated by IcoMoon.io -->
<svg version="1.1" xmlns="http://www.w3.org/2000/svg" width="24" height="24" viewBox="0 0 24 24">
<title>router</title>
<path d="M15 18v-2.016h-2.016v2.016h2.016zM11.484 18v-2.016h-1.969v2.016h1.969zM8.016 18v-2.016h-2.016v2.016h2.016zM18.984 12.984c1.078 0 2.016 0.938 2.016 2.016v3.984c0 1.078-0.938 2.016-2.016 2.016h-13.969c-1.078 0-2.016-0.938-2.016-2.016v-3.984c0-1.078 0.938-2.016 2.016-2.016h9.984v-3.984h2.016v3.984h1.969zM19.313 6.703l-0.797 0.797c-0.703-0.703-1.641-0.984-2.531-0.984s-1.781 0.281-2.484 0.984l-0.797-0.797c0.891-0.891 2.063-1.406 3.281-1.406s2.438 0.516 3.328 1.406zM20.203 5.906c-1.219-1.078-2.719-1.688-4.219-1.688s-2.953 0.609-4.172 1.688l-0.797-0.797c1.406-1.406 3.188-2.109 4.969-2.109s3.609 0.703 5.016 2.109z"></path>
</svg>
