<!-- Generated by IcoMoon.io -->
<svg version="1.1" xmlns="http://www.w3.org/2000/svg" width="24" height="24" viewBox="0 0 24 24">
<title>rowing</title>
<path d="M21 21l-3 3-3-3v-1.5l-7.078-7.078c-0.328 0.047-0.656 0.047-0.938 0.047v-2.156c1.641 0.047 3.609-0.844 4.688-2.016l1.406-1.547c0.357-0.357 0.945-0.75 1.641-0.75h0.047c1.219 0 2.25 1.031 2.25 2.25v5.766c0 0.844-0.375 1.594-0.938 2.156l-3.563-3.563v-2.297c-0.609 0.516-1.453 1.031-2.297 1.406l6.281 6.281h1.5zM15 0.984c1.078 0 2.016 0.938 2.016 2.016s-0.938 2.016-2.016 2.016-2.016-0.938-2.016-2.016 0.938-2.016 2.016-2.016zM8.484 14.484l2.531 2.531h-2.016l-3.516 3.469-1.5-1.5z"></path>
</svg>
