<!-- Generated by IcoMoon.io -->
<svg version="1.1" xmlns="http://www.w3.org/2000/svg" width="24" height="24" viewBox="0 0 24 24">
<title>rv_hookup</title>
<path d="M17.016 2.016l3 3-3 3v-2.016h-8.016v-2.016h8.016v-1.969zM18 14.016v-3h-3.984v3h3.984zM11.016 20.016c0.563 0 0.984-0.469 0.984-1.031s-0.422-0.984-0.984-0.984-1.031 0.422-1.031 0.984 0.469 1.031 1.031 1.031zM20.016 17.016h1.969v1.969h-7.969c0 1.641-1.359 3-3 3s-3-1.359-3-3h-2.016c-1.078 0-2.016-0.891-2.016-1.969v-3h7.031v-3h-4.031v1.969l-3-3 3-3v2.016h11.016c1.078 0 2.016 0.938 2.016 2.016v6z"></path>
</svg>
