<!-- Generated by IcoMoon.io -->
<svg version="1.1" xmlns="http://www.w3.org/2000/svg" width="32" height="32" viewBox="0 0 32 32">
<title>safe</title>
<path fill="#3e7777" d="M27.2 30.987c0 0.533-0.427 1.013-1.013 1.013h-1.173c-0.533 0-1.013-0.427-1.013-1.013v-1.707c0-0.533 0.427-1.013 1.013-1.013h1.173c0.533 0 1.013 0.427 1.013 1.013v1.707z"></path>
<path fill="#3e7777" d="M7.467 30.987c0 0.533-0.427 1.013-1.013 1.013h-1.173c-0.533 0-1.013-0.427-1.013-1.013v-1.707c0-0.533 0.427-1.013 1.013-1.013h1.173c0.533 0 1.013 0.427 1.013 1.013v1.707z"></path>
<path fill="#97b8bf" d="M30.933 26.88c0 1.653-1.28 2.987-2.933 2.987h-24c-1.653 0-2.933-1.333-2.933-2.987v-24c0-1.653 1.28-2.88 2.933-2.88h24c1.653 0 2.933 1.227 2.933 2.827v24.053z"></path>
<path fill="#719fa3" d="M30.933 8l-4.213-4.213-21.867 21.867 4.053 4.16h19.093c1.653 0 2.933-1.333 2.933-2.987v-18.827z"></path>
<path fill="#b9d7db" d="M27.733 24.107c0 1.28-1.227 2.56-2.453 2.56h-18.56c-1.28 0-2.453-1.28-2.453-2.56v-18.507c0-1.28 1.227-2.4 2.453-2.4h18.56c1.28 0 2.453 1.12 2.453 2.4v18.507z"></path>
<path fill="#99bec1" d="M4.267 12.053l14.56 14.613h5.387l-19.093-19.147-0.853 0.64z"></path>
<path fill="#99bec1" d="M4.267 22.773l3.84 3.893h5.333l-8.32-8.373-0.853 0.587z"></path>
<path fill="#cae8ea" d="M5.867 11.307c0 0.533-0.427 0.96-0.96 0.96h-0.267c-0.533 0-0.96-0.427-0.96-0.96v-2.933c0-0.533 0.427-0.96 0.96-0.96h0.267c0.533 0 0.96 0.427 0.96 0.96v2.933z"></path>
<path fill="#cae8ea" d="M5.867 21.973c0 0.533-0.427 0.96-0.96 0.96h-0.267c-0.533 0-0.96-0.427-0.96-0.96v-2.933c0-0.533 0.427-0.96 0.96-0.96h0.267c0.533 0 0.96 0.427 0.96 0.96v2.933z"></path>
<path fill="#bae1e2" d="M4.907 7.467v0c0.533 0 0.96 0.427 0.96 0.96v2.933c0 0.533-0.427 0.96-0.96 0.96v0z"></path>
<path fill="#bae1e2" d="M4.907 18.133v0c0.533 0 0.96 0.427 0.96 0.96v2.933c0 0.533-0.427 0.96-0.96 0.96v0z"></path>
<path fill="#05365b" d="M20.747 5.76c-2.827 0-5.173 2.293-5.173 5.173 0 2.827 2.293 5.173 5.173 5.173s5.173-2.293 5.173-5.173c0-2.88-2.347-5.173-5.173-5.173zM20.747 14.133c-1.76 0-3.2-1.44-3.2-3.2s1.44-3.2 3.2-3.2 3.2 1.44 3.2 3.2-1.44 3.2-3.2 3.2z"></path>
<path fill="#24966a" d="M22.080 10.933c0 0.736-0.597 1.333-1.333 1.333s-1.333-0.597-1.333-1.333c0-0.736 0.597-1.333 1.333-1.333s1.333 0.597 1.333 1.333z"></path>
<path fill="#137f53" d="M21.653 9.973c0.533 0.533 0.533 1.333 0 1.867s-1.333 0.533-1.867 0z"></path>
<path fill="#a6c7c9" d="M28.267 1.067c0 0.32-0.213 0.533-0.533 0.533h-23.467c-0.32 0-0.533-0.213-0.533-0.533v0c0-0.32 0.213-0.533 0.533-0.533h23.467c0.32 0 0.533 0.213 0.533 0.533v0z"></path>
<path fill="#137f53" d="M19.253 17.707c0 0.107-0.107 0.213-0.213 0.213h-0.587c-0.107 0-0.213-0.107-0.213-0.213v-0.64c0-0.107 0.107-0.213 0.213-0.213h0.587c0.107 0 0.213 0.107 0.213 0.213v0.64z"></path>
<path fill="#137f53" d="M21.333 17.707c0 0.107-0.107 0.213-0.213 0.213h-0.587c-0.107 0-0.213-0.107-0.213-0.213v-0.64c0-0.107 0.107-0.213 0.213-0.213h0.587c0.107 0 0.213 0.107 0.213 0.213v0.64z"></path>
<path fill="#137f53" d="M23.36 17.707c0 0.107-0.107 0.213-0.213 0.213h-0.587c-0.107 0-0.213-0.107-0.213-0.213v-0.64c0-0.107 0.107-0.213 0.213-0.213h0.587c0.107 0 0.213 0.107 0.213 0.213v0.64z"></path>
<path fill="#137f53" d="M19.253 19.413c0 0.107-0.107 0.213-0.213 0.213h-0.587c-0.107 0-0.213-0.107-0.213-0.213v-0.587c0-0.107 0.107-0.213 0.213-0.213h0.587c0.107 0 0.213 0.107 0.213 0.213v0.587z"></path>
<path fill="#137f53" d="M21.333 19.413c0 0.107-0.107 0.213-0.213 0.213h-0.587c-0.107 0-0.213-0.107-0.213-0.213v-0.587c0-0.107 0.107-0.213 0.213-0.213h0.587c0.107 0 0.213 0.107 0.213 0.213v0.587z"></path>
<path fill="#137f53" d="M23.36 19.413c0 0.107-0.107 0.213-0.213 0.213h-0.587c-0.107 0-0.213-0.107-0.213-0.213v-0.587c0-0.107 0.107-0.213 0.213-0.213h0.587c0.107 0 0.213 0.107 0.213 0.213v0.587z"></path>
<path fill="#137f53" d="M19.253 21.173c0 0.107-0.107 0.213-0.213 0.213h-0.587c-0.107 0-0.213-0.107-0.213-0.213v-0.587c0-0.107 0.107-0.213 0.213-0.213h0.587c0.107 0 0.213 0.107 0.213 0.213v0.587z"></path>
<path fill="#137f53" d="M21.333 21.173c0 0.107-0.107 0.213-0.213 0.213h-0.587c-0.107 0-0.213-0.107-0.213-0.213v-0.587c0-0.107 0.107-0.213 0.213-0.213h0.587c0.107 0 0.213 0.107 0.213 0.213v0.587z"></path>
<path fill="#137f53" d="M23.36 21.173c0 0.107-0.107 0.213-0.213 0.213h-0.587c-0.107 0-0.213-0.107-0.213-0.213v-0.587c0-0.107 0.107-0.213 0.213-0.213h0.587c0.107 0 0.213 0.107 0.213 0.213v0.587z"></path>
</svg>
