<!-- Generated by IcoMoon.io -->
<svg version="1.1" xmlns="http://www.w3.org/2000/svg" width="24" height="24" viewBox="0 0 24 24">
<title>satellite</title>
<path d="M5.016 18h13.969l-4.5-6-3.469 4.5-2.531-3zM5.016 12c3.891 0 6.984-3.141 6.984-7.031h-2.016c0 2.766-2.203 5.016-4.969 5.016v2.016zM5.016 4.969v3.047c1.641 0 3-1.406 3-3.047h-3zM18.984 3c1.078 0 2.016 0.938 2.016 2.016v13.969c0 1.078-0.938 2.016-2.016 2.016h-13.969c-1.078 0-2.016-0.938-2.016-2.016v-13.969c0-1.078 0.938-2.016 2.016-2.016h13.969z"></path>
</svg>
