<!-- Generated by IcoMoon.io -->
<svg version="1.1" xmlns="http://www.w3.org/2000/svg" width="24" height="24" viewBox="0 0 24 24">
<title>screen_rotation</title>
<path d="M7.5 21.469l1.359-1.313 3.797 3.797-0.656 0.047c-6.281 0-11.438-4.875-11.953-11.016h1.5c0.375 3.75 2.672 6.938 5.953 8.484zM14.813 21.188l6.375-6.375-12-12-6.375 6.375zM10.219 1.734l12.047 12.047c0.609 0.563 0.609 1.5 0 2.109l-6.375 6.375c-0.563 0.609-1.5 0.609-2.109 0l-12.047-12.047c-0.609-0.563-0.609-1.5 0-2.109l6.375-6.375c0.563-0.609 1.5-0.609 2.109 0zM16.5 2.531l-1.359 1.313-3.797-3.797 0.656-0.047c6.281 0 11.438 4.875 11.953 11.016h-1.5c-0.375-3.75-2.672-6.938-5.953-8.484z"></path>
</svg>
