<!-- Generated by IcoMoon.io -->
<svg version="1.1" xmlns="http://www.w3.org/2000/svg" width="24" height="24" viewBox="0 0 24 24">
<title>screen_lock_rotation</title>
<path d="M16.781 2.484v0.516h3.422v-0.516c0-0.938-0.75-1.688-1.688-1.688s-1.734 0.75-1.734 1.688zM15.984 9c-0.563 0-0.984-0.422-0.984-0.984v-4.031c0-0.563 0.422-0.984 0.984-0.984v-0.516c0-1.359 1.172-2.484 2.531-2.484s2.484 1.125 2.484 2.484v0.516c0.563 0 0.984 0.422 0.984 0.984v4.031c0 0.563-0.422 0.984-0.984 0.984h-5.016zM8.484 20.484l1.313-1.313 3.797 3.797-0.656 0.047c-6.281 0-11.438-4.875-11.953-11.016h1.5c0.375 3.75 2.719 6.938 6 8.484zM23.25 12.75c0.609 0.563 0.609 1.547 0 2.156l-6.375 6.328c-0.563 0.609-1.5 0.609-2.109 0l-12-12c-0.609-0.563-0.609-1.5 0-2.109l6.328-6.375c0.563-0.609 1.547-0.609 2.156 0l2.438 2.438-1.406 1.406-2.109-2.063-5.672 5.625 11.344 11.344 5.625-5.672-2.203-2.203 1.406-1.406z"></path>
</svg>
