<!-- Generated by IcoMoon.io -->
<svg version="1.1" xmlns="http://www.w3.org/2000/svg" width="24" height="24" viewBox="0 0 24 24">
<title>screen_lock_landscape</title>
<path d="M10.781 9.984v1.031h2.438v-1.031c0-0.656-0.563-1.172-1.219-1.172s-1.219 0.516-1.219 1.172zM9.984 15.984c-0.563 0-0.984-0.422-0.984-0.984v-3c0-0.563 0.422-0.984 0.984-0.984v-1.031c0-1.078 0.891-1.969 2.016-1.969 1.078 0 2.016 0.844 2.016 1.969v1.031c0.563 0 0.984 0.422 0.984 0.984v3c0 0.563-0.422 0.984-0.984 0.984h-4.031zM18.984 17.016v-10.031h-13.969v10.031h13.969zM21 5.016c1.078 0 2.016 0.891 2.016 1.969v10.031c0 1.078-0.938 1.969-2.016 1.969h-18c-1.078 0-2.016-0.891-2.016-1.969v-10.031c0-1.078 0.938-1.969 2.016-1.969h18z"></path>
</svg>
