<!-- Generated by IcoMoon.io -->
<svg version="1.1" xmlns="http://www.w3.org/2000/svg" width="32" height="32" viewBox="0 0 32 32">
<title>send2</title>
<path d="M13.179 7.613l6.671-7.36c0.146-0.161 0.353-0.253 0.571-0.253s0.425 0.092 0.571 0.253l6.67 7.36c0.205 0.226 0.257 0.551 0.133 0.829s-0.4 0.458-0.704 0.458h-3.076v11.663c0 0.425-0.345 0.77-0.77 0.77h-5.648c-0.425 0-0.77-0.345-0.77-0.77v-11.663h-3.076c-0.305 0-0.581-0.18-0.704-0.458s-0.071-0.604 0.133-0.829zM7.985 11.437v11.663h-3.076c-0.305 0-0.581 0.18-0.704 0.458s-0.071 0.604 0.133 0.829l6.67 7.36c0.146 0.161 0.353 0.253 0.571 0.253s0.425-0.092 0.571-0.253l6.671-7.36c0.205-0.226 0.257-0.551 0.133-0.829s-0.4-0.458-0.704-0.458h-3.076v-11.663c0-0.425-0.345-0.77-0.77-0.77h-5.649c-0.425 0-0.77 0.345-0.77 0.77zM13.633 23.87c0 0.425 0.345 0.77 0.77 0.77h2.109l-4.933 5.443-4.933-5.443h2.109c0.425 0 0.77-0.345 0.77-0.77v-11.663h4.108v11.663z"></path>
</svg>
