<!-- Generated by IcoMoon.io -->
<svg version="1.1" xmlns="http://www.w3.org/2000/svg" width="24" height="24" viewBox="0 0 24 24">
<title>sentiment_dissatisfied</title>
<path d="M12 14.016c2.344 0 4.313 1.406 5.109 3.469h-1.641c-0.703-1.172-1.969-1.969-3.469-1.969s-2.766 0.797-3.469 1.969h-1.641c0.797-2.063 2.766-3.469 5.109-3.469zM12 20.016c4.406 0 8.016-3.609 8.016-8.016s-3.609-8.016-8.016-8.016-8.016 3.609-8.016 8.016 3.609 8.016 8.016 8.016zM12 2.016c5.531 0 9.984 4.453 9.984 9.984s-4.453 9.984-9.984 9.984-9.984-4.453-9.984-9.984 4.453-9.984 9.984-9.984zM6.984 9.516c0-0.844 0.656-1.5 1.5-1.5s1.5 0.656 1.5 1.5-0.656 1.5-1.5 1.5-1.5-0.656-1.5-1.5zM14.016 9.516c0-0.844 0.656-1.5 1.5-1.5s1.5 0.656 1.5 1.5-0.656 1.5-1.5 1.5-1.5-0.656-1.5-1.5z"></path>
</svg>
