<!-- Generated by IcoMoon.io -->
<svg version="1.1" xmlns="http://www.w3.org/2000/svg" width="24" height="24" viewBox="0 0 24 24">
<title>sentiment_neutral</title>
<path d="M12 20.016c4.406 0 8.016-3.609 8.016-8.016s-3.609-8.016-8.016-8.016-8.016 3.609-8.016 8.016 3.609 8.016 8.016 8.016zM12 2.016c5.531 0 9.984 4.453 9.984 9.984s-4.453 9.984-9.984 9.984-9.984-4.453-9.984-9.984 4.453-9.984 9.984-9.984zM6.984 9.516c0-0.844 0.656-1.5 1.5-1.5s1.5 0.656 1.5 1.5-0.656 1.5-1.5 1.5-1.5-0.656-1.5-1.5zM14.016 9.516c0-0.844 0.656-1.5 1.5-1.5s1.5 0.656 1.5 1.5-0.656 1.5-1.5 1.5-1.5-0.656-1.5-1.5zM9 14.016h6v1.5h-6v-1.5z"></path>
</svg>
