<!-- Generated by IcoMoon.io -->
<svg version="1.1" xmlns="http://www.w3.org/2000/svg" width="24" height="24" viewBox="0 0 24 24">
<title>settings_input_svideo</title>
<path d="M15.516 15c0.844 0 1.5 0.656 1.5 1.5s-0.656 1.5-1.5 1.5-1.5-0.656-1.5-1.5 0.656-1.5 1.5-1.5zM17.484 9.984c0.844 0 1.5 0.656 1.5 1.5s-0.656 1.5-1.5 1.5-1.5-0.656-1.5-1.5 0.656-1.5 1.5-1.5zM12 21c4.969 0 9-4.031 9-9s-4.031-9-9-9-9 4.031-9 9 4.031 9 9 9zM12 0.984c6.047 0 11.016 4.969 11.016 11.016s-4.969 11.016-11.016 11.016-11.016-4.969-11.016-11.016 4.969-11.016 11.016-11.016zM8.484 15c0.844 0 1.5 0.656 1.5 1.5s-0.656 1.5-1.5 1.5-1.5-0.656-1.5-1.5 0.656-1.5 1.5-1.5zM15 6.516c0 0.844-0.656 1.5-1.5 1.5h-3c-0.844 0-1.5-0.656-1.5-1.5s0.656-1.5 1.5-1.5h3c0.844 0 1.5 0.656 1.5 1.5zM8.016 11.484c0 0.844-0.656 1.5-1.5 1.5s-1.5-0.656-1.5-1.5 0.656-1.5 1.5-1.5 1.5 0.656 1.5 1.5z"></path>
</svg>
