<!-- Generated by IcoMoon.io -->
<svg version="1.1" xmlns="http://www.w3.org/2000/svg" width="24" height="24" viewBox="0 0 24 24">
<title>settings_voice</title>
<path d="M18.984 9.984c0 3.422-2.719 6.281-6 6.75v3.281h-1.969v-3.281c-3.281-0.469-6-3.328-6-6.75h1.688c0 3 2.531 5.109 5.297 5.109s5.297-2.109 5.297-5.109h1.688zM15 24v-2.016h2.016v2.016h-2.016zM11.016 24v-2.016h1.969v2.016h-1.969zM12 12.984c-1.641 0-3-1.359-3-3v-6c0-1.641 1.359-3 3-3s3 1.359 3 3v6c0 1.641-1.359 3-3 3zM6.984 24v-2.016h2.016v2.016h-2.016z"></path>
</svg>
