<!-- Generated by IcoMoon.io -->
<svg version="1.1" xmlns="http://www.w3.org/2000/svg" width="24" height="24" viewBox="0 0 24 24">
<title>settings_power</title>
<path d="M15 24v-2.016h2.016v2.016h-2.016zM16.547 4.453c2.063 1.453 3.469 3.844 3.469 6.563 0 4.406-3.609 7.969-8.016 7.969s-8.016-3.563-8.016-7.969c0-2.719 1.406-5.109 3.469-6.563l1.406 1.406c-1.734 1.078-2.859 3-2.859 5.156 0 3.328 2.672 6 6 6s6-2.672 6-6c0-2.156-1.172-4.078-2.906-5.109zM12.984 2.016v9.984h-1.969v-9.984h1.969zM11.016 24v-2.016h1.969v2.016h-1.969zM6.984 24v-2.016h2.016v2.016h-2.016z"></path>
</svg>
