<!-- Generated by IcoMoon.io -->
<svg version="1.1" xmlns="http://www.w3.org/2000/svg" width="24" height="24" viewBox="0 0 24 24">
<title>settings_remote</title>
<path d="M12 0c3.047 0 5.813 1.219 7.781 3.234l-1.406 1.406c-1.641-1.641-3.891-2.625-6.375-2.625s-4.734 0.984-6.375 2.625l-1.406-1.406c1.969-1.969 4.734-3.234 7.781-3.234zM7.031 6.047c1.266-1.266 3.047-2.063 4.969-2.063s3.703 0.797 4.969 2.063l-1.406 1.406c-0.891-0.891-2.203-1.453-3.563-1.453s-2.672 0.563-3.563 1.453zM12 15c1.078 0 2.016-0.938 2.016-2.016s-0.938-1.969-2.016-1.969-2.016 0.891-2.016 1.969 0.938 2.016 2.016 2.016zM15 9c0.563 0 0.984 0.422 0.984 0.984v12c0 0.563-0.422 1.031-0.984 1.031h-6c-0.563 0-0.984-0.469-0.984-1.031v-12c0-0.563 0.422-0.984 0.984-0.984h6z"></path>
</svg>
