<!-- Generated by IcoMoon.io -->
<svg version="1.1" xmlns="http://www.w3.org/2000/svg" width="24" height="24" viewBox="0 0 24 24">
<title>settings_backup_restore</title>
<path d="M13.714 1.714c5.679 0 10.286 4.607 10.286 10.286s-4.607 10.286-10.286 10.286c-2.357 0-4.554-0.804-6.268-2.143l1.607-1.607c1.339 0.911 2.946 1.446 4.661 1.446 4.446 0 7.982-3.536 7.982-7.982s-3.536-7.982-7.982-7.982-7.982 3.536-7.982 7.982h3.429l-4.607 4.554-4.554-4.554h3.429c0-5.679 4.607-10.286 10.286-10.286zM16.018 12c0 1.232-1.071 2.304-2.304 2.304s-2.304-1.071-2.304-2.304 1.071-2.304 2.304-2.304 2.304 1.071 2.304 2.304z"></path>
</svg>
