<!-- Generated by IcoMoon.io -->
<svg version="1.1" xmlns="http://www.w3.org/2000/svg" width="24" height="24" viewBox="0 0 24 24">
<title>settings_brightness</title>
<path d="M12 9v6c1.641 0 3-1.359 3-3s-1.359-3-3-3zM8.016 15.984v-2.484l-1.5-1.5 1.5-1.5v-2.484h2.484l1.5-1.5 1.5 1.5h2.484v2.484l1.5 1.5-1.5 1.5v2.484h-2.484l-1.5 1.5-1.5-1.5h-2.484zM21 19.031v-14.063h-18v14.063h18zM21 3c1.078 0 2.016 0.938 2.016 2.016v13.969c0 1.078-0.938 2.016-2.016 2.016h-18c-1.078 0-2.016-0.938-2.016-2.016v-13.969c0-1.078 0.938-2.016 2.016-2.016h18z"></path>
</svg>
