<!-- Generated by IcoMoon.io -->
<svg version="1.1" xmlns="http://www.w3.org/2000/svg" width="24" height="24" viewBox="0 0 24 24">
<title>settings_system_daydream</title>
<path d="M21 19.031v-14.063h-18v14.063h18zM21 3c1.078 0 2.016 0.938 2.016 2.016v13.969c0 1.078-0.938 2.016-2.016 2.016h-18c-1.078 0-2.016-0.938-2.016-2.016v-13.969c0-1.078 0.938-2.016 2.016-2.016h18zM9 15.984c-1.641 0-3-1.359-3-3 0-1.547 1.172-2.813 2.672-2.953h0.188c0.563-1.172 1.734-2.016 3.141-2.016 1.781 0 3.234 1.313 3.469 3h0.047c1.359 0 2.484 1.125 2.484 2.484s-1.125 2.484-2.484 2.484h-6.516z"></path>
</svg>
