<!-- Generated by IcoMoon.io -->
<svg version="1.1" xmlns="http://www.w3.org/2000/svg" width="24" height="24" viewBox="0 0 24 24">
<title>settings_input_antenna</title>
<path d="M12 0.984c6.047 0 11.016 4.969 11.016 11.016h-2.016c0-4.969-4.031-9-9-9s-9 4.031-9 9h-2.016c0-6.047 4.969-11.016 11.016-11.016zM12.984 14.297v3.281l3.422 3.422-1.406 1.406-3-3-3 3-1.406-1.406 3.422-3.422v-3.281c-0.891-0.375-1.5-1.266-1.5-2.297 0-1.359 1.125-2.484 2.484-2.484s2.484 1.125 2.484 2.484c0 1.031-0.609 1.922-1.5 2.297zM12 5.016c3.891 0 6.984 3.094 6.984 6.984h-1.969c0-2.766-2.25-5.016-5.016-5.016s-5.016 2.25-5.016 5.016h-1.969c0-3.891 3.094-6.984 6.984-6.984z"></path>
</svg>
