<!-- Generated by IcoMoon.io -->
<svg version="1.1" xmlns="http://www.w3.org/2000/svg" width="24" height="24" viewBox="0 0 24 24">
<title>settings_overscan</title>
<path d="M21 19.031v-14.063h-18v14.063h18zM21 3c1.078 0 2.016 0.938 2.016 2.016v13.969c0 1.078-0.938 2.016-2.016 2.016h-18c-1.078 0-2.016-0.938-2.016-2.016v-13.969c0-1.078 0.938-2.016 2.016-2.016h18zM14.016 15.984l-2.016 2.531-2.016-2.531h4.031zM6 9.984v4.031l-2.484-2.016zM18 9.984l2.484 2.016-2.484 2.016v-4.031zM12 5.484l2.016 2.531h-4.031z"></path>
</svg>
