<!-- Generated by IcoMoon.io -->
<svg version="1.1" xmlns="http://www.w3.org/2000/svg" width="24" height="24" viewBox="0 0 24 24">
<title>settings_applications</title>
<path d="M17.25 12c0-0.234 0-0.469-0.047-0.703l1.5-1.125c0.141-0.094 0.141-0.328 0.047-0.469l-1.406-2.438c-0.094-0.141-0.281-0.188-0.422-0.141l-1.734 0.703c-0.375-0.281-0.75-0.516-1.172-0.703l-0.281-1.828c-0.047-0.141-0.141-0.281-0.328-0.281h-2.813c-0.188 0-0.281 0.094-0.328 0.281l-0.281 1.875c-0.422 0.188-0.797 0.375-1.172 0.656l-1.734-0.703c-0.141-0.047-0.328 0.047-0.422 0.188l-1.406 2.391c-0.094 0.141-0.094 0.375 0.047 0.469l1.5 1.125c-0.047 0.234-0.047 0.469-0.047 0.703s0 0.469 0.047 0.703l-1.5 1.125c-0.141 0.094-0.141 0.328-0.047 0.469l1.406 2.438c0.094 0.141 0.281 0.188 0.422 0.141l1.734-0.703c0.375 0.281 0.75 0.516 1.172 0.703l0.281 1.828c0.047 0.141 0.141 0.281 0.328 0.281h2.813c0.188 0 0.281-0.094 0.328-0.281l0.281-1.875c0.422-0.188 0.797-0.375 1.172-0.656l1.734 0.703c0.141 0.047 0.328-0.047 0.422-0.188l1.406-2.391c0.094-0.141 0.094-0.375-0.047-0.469l-1.5-1.125c0.047-0.234 0.047-0.469 0.047-0.703zM18.984 3c1.125 0 2.016 0.938 2.016 2.016v13.969c0 1.078-0.891 2.016-2.016 2.016h-13.969c-1.125 0-2.016-0.938-2.016-2.016v-13.969c0-1.078 0.891-2.016 2.016-2.016h13.969zM12 9.984c1.078 0 2.016 0.938 2.016 2.016s-0.938 2.016-2.016 2.016-2.016-0.938-2.016-2.016 0.938-2.016 2.016-2.016z"></path>
</svg>
