<!-- Generated by IcoMoon.io -->
<svg version="1.1" xmlns="http://www.w3.org/2000/svg" width="24" height="24" viewBox="0 0 24 24">
<title>shopping_basket</title>
<path d="M12 17.016c1.078 0 2.016-0.938 2.016-2.016s-0.938-2.016-2.016-2.016-2.016 0.938-2.016 2.016 0.938 2.016 2.016 2.016zM9 9h6l-3-4.406zM17.203 9h4.781c0.563 0 1.031 0.422 1.031 0.984-0.812 3.235-1.727 6.366-2.578 9.563-0.234 0.844-0.984 1.453-1.922 1.453h-13.031c-0.938 0-1.688-0.609-1.922-1.453l-2.531-9.281c-0.047-0.094-0.047-0.188-0.047-0.281 0-0.563 0.469-0.984 1.031-0.984h4.781l4.359-6.563c0.188-0.281 0.516-0.422 0.844-0.422s0.656 0.141 0.844 0.422z"></path>
</svg>
