<!-- Generated by IcoMoon.io -->
<svg version="1.1" xmlns="http://www.w3.org/2000/svg" width="24" height="24" viewBox="0 0 24 24">
<title>shop_two</title>
<path d="M12 15l5.484-3.984-5.484-3v6.984zM12 3v2.016h3.984v-2.016h-3.984zM18 5.016h5.016v10.969c0 1.125-0.891 2.016-2.016 2.016h-14.016c-1.125 0-1.969-0.891-1.969-2.016v-10.969h4.969v-2.016c0-1.125 0.891-2.016 2.016-2.016h3.984c1.125 0 2.016 0.891 2.016 2.016v2.016zM3 9v11.016h15.984c0 1.125-0.844 1.969-1.969 1.969h-14.016c-1.125 0-2.016-0.844-2.016-1.969v-11.016h2.016z"></path>
</svg>
