<!-- Generated by IcoMoon.io -->
<svg version="1.1" xmlns="http://www.w3.org/2000/svg" width="24" height="24" viewBox="0 0 24 24">
<title>sim_card</title>
<path d="M17.016 15v-3.984h-2.016v3.984h2.016zM12.984 12.984v-1.969h-1.969v1.969h1.969zM12.984 18.984v-3.984h-1.969v3.984h1.969zM9 15v-3.984h-2.016v3.984h2.016zM17.016 18.984v-1.969h-2.016v1.969h2.016zM9 18.984v-1.969h-2.016v1.969h2.016zM19.969 3.984l0.047 16.031c0 1.078-0.938 1.969-2.016 1.969h-12c-1.078 0-2.016-0.891-2.016-1.969v-12l6-6h8.016c1.078 0 1.969 0.891 1.969 1.969z"></path>
</svg>
