<!-- Generated by IcoMoon.io -->
<svg version="1.1" xmlns="http://www.w3.org/2000/svg" width="24" height="24" viewBox="0 0 24 24">
<title>smoke_free</title>
<path d="M17.016 15.938l-2.953-2.953h2.953v2.953zM14.484 8.719c-1.828 0-3.328-1.547-3.328-3.375s1.5-3.328 3.328-3.328v1.5c-1.031 0-1.828 0.703-1.828 1.734s0.797 2.016 1.828 2.016h1.547c1.875 0 3.469 1.359 3.469 3.141v1.594h-1.5v-1.266c0-1.313-0.938-2.016-1.969-2.016h-1.547zM18.844 4.875c1.875 0.891 3.141 2.813 3.141 5.063v2.063h-1.5v-2.063c0-2.25-1.734-4.078-3.984-4.078v-1.5c1.031 0 1.828-0.844 1.828-1.875h1.5c0 0.938-0.375 1.781-0.984 2.391zM18 12.984h1.5v3h-1.5v-3zM20.484 12.984h1.5v3h-1.5v-3zM2.016 6l1.219-1.266 17.016 17.016-1.266 1.266-6.984-7.031h-9.984v-3h6.984z"></path>
</svg>
