<!-- Generated by IcoMoon.io -->
<svg version="1.1" xmlns="http://www.w3.org/2000/svg" width="24" height="24" viewBox="0 0 24 24">
<title>smoking_rooms</title>
<path d="M16.031 10.219c1.875 0 3.469 1.313 3.469 3.141v1.641h-1.5v-1.313c0-1.313-0.938-2.016-1.969-2.016h-1.547c-1.828 0-3.328-1.547-3.328-3.375s1.5-3.328 3.328-3.328v1.5c-1.031 0-1.828 0.703-1.828 1.734s0.797 2.016 1.828 2.016h1.547zM18.844 7.734c1.875 0.891 3.141 2.813 3.141 5.016v2.25h-1.5v-2.25c0-2.25-1.734-4.031-3.984-4.031v-1.5c1.031 0 1.828-0.844 1.828-1.875s-0.797-1.828-1.828-1.828v-1.5c1.828 0 3.328 1.5 3.328 3.328 0 0.938-0.375 1.781-0.984 2.391zM18 15.984h1.5v3h-1.5v-3zM20.484 15.984h1.5v3h-1.5v-3zM2.016 15.984h15v3h-15v-3z"></path>
</svg>
