<!-- Generated by IcoMoon.io -->
<svg version="1.1" xmlns="http://www.w3.org/2000/svg" width="24" height="24" viewBox="0 0 24 24">
<title>snooze</title>
<path d="M9 11.016v-2.016h6v1.781l-3.609 4.219h3.609v2.016h-6v-1.828l3.609-4.172h-3.609zM12 20.016c3.891 0 6.984-3.141 6.984-7.031s-3.094-6.984-6.984-6.984-6.984 3.094-6.984 6.984 3.094 7.031 6.984 7.031zM12 3.984c4.969 0 9 4.031 9 9s-4.031 9-9 9-9-4.031-9-9 4.031-9 9-9zM21.984 5.719l-1.266 1.547-4.594-3.891 1.266-1.5zM7.875 3.375l-4.594 3.844-1.266-1.5 4.594-3.844z"></path>
</svg>
