<!-- Generated by IcoMoon.io -->
<svg version="1.1" xmlns="http://www.w3.org/2000/svg" width="24" height="24" viewBox="0 0 24 24">
<title>spa</title>
<path d="M15.469 9.609c-1.266 0.703-2.438 1.594-3.469 2.672-1.031-1.078-2.203-1.969-3.469-2.672 0.234-2.766 1.359-5.438 3.516-7.594 2.109 2.109 3.234 4.781 3.422 7.594zM2.016 9.984c4.461 0 8.051 2.542 9.984 5.484 1.936-2.946 5.524-5.484 9.984-5.484 0 5.297-3.328 9.797-8.016 11.484-0.656 0.234-1.266 0.375-1.969 0.516-0.703-0.094-1.359-0.281-1.969-0.516-4.688-1.688-8.016-6.188-8.016-11.484z"></path>
</svg>
