<!-- Generated by IcoMoon.io -->
<svg version="1.1" xmlns="http://www.w3.org/2000/svg" width="24" height="24" viewBox="0 0 24 24">
<title>speaker_group</title>
<path d="M6 5.016v15.984h9.984v2.016h-9.984c-1.125 0-2.016-0.938-2.016-2.016v-15.984h2.016zM11.484 12.516c0-1.359 1.172-2.531 2.531-2.531s2.484 1.172 2.484 2.531-1.125 2.484-2.484 2.484-2.531-1.125-2.531-2.484zM14.016 16.5c2.203 0 3.984-1.781 3.984-3.984s-1.781-4.031-3.984-4.031-4.031 1.828-4.031 4.031 1.828 3.984 4.031 3.984zM14.016 3c-1.078 0-2.016 0.891-2.016 2.016s0.938 1.969 2.016 1.969 1.969-0.844 1.969-1.969-0.891-2.016-1.969-2.016zM18.188 0.984c0.984 0 1.828 0.844 1.828 1.828v14.391c0 0.984-0.844 1.781-1.828 1.781h-8.391c-0.984 0-1.781-0.797-1.781-1.781v-14.391c0-0.984 0.797-1.828 1.781-1.828h8.391z"></path>
</svg>
