<!-- Generated by IcoMoon.io -->
<svg version="1.1" xmlns="http://www.w3.org/2000/svg" width="24" height="24" viewBox="0 0 24 24">
<title>speaker_phone</title>
<path d="M15 20.016v-8.016h-6v8.016h6zM14.859 10.031c0.609 0 1.125 0.516 1.125 1.125v9.703c0 0.609-0.516 1.125-1.125 1.125h-5.719c-0.609 0-1.125-0.516-1.125-1.125v-9.703c0-0.609 0.516-1.172 1.125-1.172zM12 0.984c3 0 5.766 1.266 7.734 3.234l-1.406 1.406c-1.641-1.641-3.844-2.625-6.328-2.625s-4.688 0.984-6.328 2.625l-1.406-1.406c1.969-1.969 4.734-3.234 7.734-3.234zM6.984 7.078c1.266-1.266 3.047-2.063 5.016-2.063s3.75 0.797 5.016 2.063l-1.453 1.406c-0.891-0.891-2.156-1.453-3.563-1.453s-2.672 0.563-3.563 1.453z"></path>
</svg>
