<!-- Generated by IcoMoon.io -->
<svg version="1.1" xmlns="http://www.w3.org/2000/svg" width="24" height="24" viewBox="0 0 24 24">
<title>stop_screen_share</title>
<path d="M6.984 15c0.938-1.313 2.109-2.063 3.656-2.438l-1.594-1.594c-1.172 1.125-1.734 2.531-2.063 4.031zM2.391 1.734l19.734 19.734-1.266 1.266-2.719-2.719h-18.141v-2.016h3.984c-1.125 0-1.969-0.891-1.969-1.969v-10.031c0-0.609 0.234-1.078 0.656-1.453l-1.547-1.547zM21.984 16.031c0 0.75-0.422 1.406-1.031 1.734l-5.531-5.531 1.594-1.5-4.031-3.703v2.109c-0.188 0.047-0.328 0.047-0.516 0.094l-5.25-5.203h12.797c1.078 0 1.969 0.844 1.969 1.969v10.031zM21.234 18h2.766v2.016h-0.797z"></path>
</svg>
