<!-- Generated by IcoMoon.io -->
<svg version="1.1" xmlns="http://www.w3.org/2000/svg" width="24" height="24" viewBox="0 0 24 24">
<title>streetview</title>
<path d="M11.484 6c0 1.781 0.75 3.422 1.922 4.594l-9.797 9.797c-0.375-0.375-0.609-0.844-0.609-1.406v-13.969c0-1.078 0.938-2.016 2.016-2.016h7.219c-0.469 0.891-0.75 1.922-0.75 3zM12.984 6c0-2.766 2.25-5.016 5.016-5.016s5.016 2.25 5.016 5.016-2.25 5.016-5.016 5.016-5.016-2.25-5.016-5.016zM12.563 14.344c1.5-1.125 3.422-1.828 5.438-1.828 1.031 0 2.063 0.188 3 0.516v5.953c0 1.078-0.938 2.016-2.016 2.016h-6.984v-5.484c0-0.469 0.234-0.891 0.563-1.172z"></path>
</svg>
