<!-- Generated by IcoMoon.io -->
<svg version="1.1" xmlns="http://www.w3.org/2000/svg" width="24" height="24" viewBox="0 0 24 24">
<title>strikethrough_s</title>
<path d="M9.375 13.125c0 1.787 1.132 2.531 2.906 2.531 1.226 0 2.297-0.5 2.297-1.688 0-1.121-0.595-1.375-1.406-1.781-0.141-0.047-0.375-0.141-0.563-0.188h-9.609v-2.016h18v2.016h-3.891c0.047 0.094 0.141 0.234 0.188 0.328 0.188 0.469 0.328 1.031 0.328 1.641 0 2.168-1.415 3.257-3.141 3.75-0.656 0.188-1.359 0.281-2.156 0.281-0.469 0-0.984-0.047-1.453-0.141-1.027-0.205-1.903-0.49-2.625-1.031-1.070-0.803-1.828-1.871-1.828-3.703h2.953zM14.578 7.5c0-1.443-0.919-2.109-2.391-2.109-1.058 0-1.858 0.34-2.203 1.031-0.094 0.188-0.141 0.422-0.141 0.656 0 0.469 0.281 0.891 0.75 1.219 0.375 0.234 0.75 0.469 1.406 0.703h-4.594c-0.047-0.094-0.141-0.141-0.188-0.234-0.281-0.469-0.375-1.031-0.375-1.688 0-1.347 0.7-2.313 1.5-2.953 0.963-0.674 2.241-1.125 3.891-1.125 1.644 0 3.006 0.47 3.891 1.266 0.823 0.741 1.453 1.779 1.453 3.234h-3z"></path>
</svg>
