<!-- Generated by IcoMoon.io -->
<svg version="1.1" xmlns="http://www.w3.org/2000/svg" width="24" height="24" viewBox="0 0 24 24">
<title>style</title>
<path d="M5.859 19.734v-6.328l3.469 8.344h-1.453c-1.078 0-2.016-0.938-2.016-2.016zM7.875 8.766c0.563 0 0.984-0.469 0.984-1.031s-0.422-0.984-0.984-0.984-0.984 0.422-0.984 0.984 0.422 1.031 0.984 1.031zM22.031 15.938c0.422 1.031-0.047 2.203-1.078 2.625l-7.359 3.047c-0.234 0.094-0.516 0.141-0.797 0.141-0.797 0-1.5-0.469-1.828-1.219l-4.969-12c-0.094-0.281-0.141-0.516-0.141-0.797 0-0.75 0.469-1.453 1.219-1.781l7.406-3.047c0.281-0.094 0.516-0.141 0.797-0.141 0.75 0 1.453 0.469 1.781 1.219zM2.531 19.641c-1.031-0.422-1.5-1.547-1.078-2.578l2.438-5.859v9z"></path>
</svg>
