<!-- Generated by IcoMoon.io -->
<svg version="1.1" xmlns="http://www.w3.org/2000/svg" width="24" height="24" viewBox="0 0 24 24">
<title>subway</title>
<path d="M18 15.891v-6.891c0-2.625-2.672-3-6-3-3 0-6 0.375-6 3v6.891c0 1.453 1.172 2.625 2.625 2.625l-1.125 1.125v0.375h1.688l1.5-1.5h2.813l1.5 1.5h1.5v-0.375l-1.125-1.125c1.453 0 2.625-1.172 2.625-2.625zM17.813 2.813c2.672 1.031 4.172 3.234 4.172 6.047v13.125h-19.969v-13.125c0-2.813 1.5-5.016 4.172-6.047 1.781-0.703 3.938-0.797 5.813-0.797s4.031 0.094 5.813 0.797zM7.031 9h9.984v5.016h-9.984v-5.016zM7.5 15.984c0-0.563 0.422-0.984 0.984-0.984s1.031 0.422 1.031 0.984-0.469 1.031-1.031 1.031-0.984-0.469-0.984-1.031zM14.484 15.984c0-0.563 0.469-0.984 1.031-0.984s0.984 0.422 0.984 0.984-0.422 1.031-0.984 1.031-1.031-0.469-1.031-1.031z"></path>
</svg>
