<!-- Generated by IcoMoon.io -->
<svg version="1.1" xmlns="http://www.w3.org/2000/svg" width="24" height="24" viewBox="0 0 24 24">
<title>surround_sound</title>
<path d="M12 9.984c1.078 0 2.016 0.938 2.016 2.016s-0.938 2.016-2.016 2.016-2.016-0.938-2.016-2.016 0.938-2.016 2.016-2.016zM17.672 17.672c1.547-1.547 2.344-3.609 2.344-5.672s-0.797-4.125-2.344-5.672l-1.453 1.453c1.172 1.172 1.781 2.672 1.781 4.219s-0.563 3.094-1.734 4.266zM12 15.984c2.203 0 3.984-1.781 3.984-3.984s-1.781-3.984-3.984-3.984-3.984 1.781-3.984 3.984 1.781 3.984 3.984 3.984zM7.781 16.219c-1.172-1.172-1.781-2.672-1.781-4.219s0.563-3.094 1.734-4.266l-1.406-1.406c-1.547 1.547-2.344 3.609-2.344 5.672s0.797 4.125 2.344 5.672zM20.016 3.984c1.078 0 1.969 0.938 1.969 2.016v12c0 1.078-0.891 2.016-1.969 2.016h-16.031c-1.078 0-1.969-0.938-1.969-2.016v-12c0-1.078 0.891-2.016 1.969-2.016h16.031z"></path>
</svg>
