<!-- Generated by IcoMoon.io -->
<svg version="1.1" xmlns="http://www.w3.org/2000/svg" width="24" height="24" viewBox="0 0 24 24">
<title>sync_problem</title>
<path d="M11.016 12.984v-6h1.969v6h-1.969zM21 3.984l-2.344 2.391c1.453 1.453 2.344 3.422 2.344 5.625 0 3.75-2.531 6.844-6 7.734v-2.063c2.344-0.797 3.984-3.047 3.984-5.672 0-1.641-0.656-3.141-1.734-4.219l-2.25 2.203v-6h6zM11.016 17.016v-2.016h1.969v2.016h-1.969zM3 12c0-3.75 2.531-6.844 6-7.734v2.063c-2.344 0.797-3.984 3.047-3.984 5.672 0 1.641 0.656 3.141 1.734 4.219l2.25-2.203v6h-6l2.344-2.391c-1.453-1.453-2.344-3.422-2.344-5.625z"></path>
</svg>
