<!-- Generated by IcoMoon.io -->
<svg version="1.1" xmlns="http://www.w3.org/2000/svg" width="24" height="24" viewBox="0 0 24 24">
<title>tap_and_play</title>
<path d="M17.016 1.031c1.078 0 1.969 0.891 1.969 1.969v17.016c0 1.078-0.891 1.969-1.969 1.969h-2.109c-0.094-1.406-0.422-2.719-0.938-3.984h3.047v-12.984h-10.031v6c-0.656-0.281-1.266-0.516-1.969-0.656v-7.359c0-1.078 0.891-2.016 1.969-2.016zM2.016 12c6.094 0 10.969 4.922 10.969 11.016h-1.969c0-4.969-4.031-9-9-9v-2.016zM2.016 20.016c1.641 0 3 1.359 3 3h-3v-3zM2.016 15.984c3.891 0 6.984 3.141 6.984 7.031h-2.016c0-2.766-2.203-5.016-4.969-5.016v-2.016z"></path>
</svg>
