<!-- Generated by IcoMoon.io -->
<svg version="1.1" xmlns="http://www.w3.org/2000/svg" width="32" height="32" viewBox="0 0 32 32">
<title>technology-1</title>
<path fill="#d77258" d="M25.135 27v-9.266c0-5.024-4.111-9.135-9.135-9.135v0c-5.024 0-9.135 4.111-9.135 9.135v9.266h18.27z"></path>
<path fill="#f9e375" d="M14.825 0h2.351v4.701h-2.351v-4.701z"></path>
<path fill="#f5d361" d="M27.165 11.753h4.701v2.351h-4.701v-2.351z"></path>
<path fill="#f9e375" d="M0.134 11.753h4.701v2.351h-4.701v-2.351z"></path>
<path fill="#f9e375" d="M9.293 6.321l-1.662 1.662-3.324-3.324 1.662-1.662 3.324 3.324z"></path>
<path fill="#f5d361" d="M27.694 4.659l-3.324 3.324-1.662-1.662 3.324-3.324 1.662 1.662z"></path>
<path fill="#d14f4e" d="M16 8.598v0 18.402h9.135v-9.266c0-5.024-4.111-9.135-9.135-9.135z"></path>
<path fill="#f5d361" d="M16 0h1.175v4.701h-1.175v-4.701z"></path>
<path fill="#f9e375" d="M4.942 26.23h22.117v5.77h-22.117v-5.77z"></path>
<path fill="#f5d361" d="M16 26.23h11.058v5.77h-11.058v-5.77z"></path>
</svg>
