<!-- Generated by IcoMoon.io -->
<svg version="1.1" xmlns="http://www.w3.org/2000/svg" width="32" height="32" viewBox="0 0 32 32">
<title>technology</title>
<path fill="#ffebeb" d="M7.915 28.414h16.171c3.135-2.422 5.156-6.215 5.156-10.483 0-7.313-5.928-13.241-13.241-13.241s-13.241 5.928-13.241 13.241c0 4.268 2.021 8.061 5.156 10.483z"></path>
<path fill="#ffcece" d="M28.423 10.759c-0.152-0.264-0.49-0.354-0.754-0.202l-2.879 1.662c-0.8-1.228-1.85-2.278-3.078-3.078l1.662-2.879c0.152-0.264 0.062-0.601-0.202-0.754s-0.601-0.062-0.754 0.202l-1.661 2.878c-1.428-0.728-3.044-1.139-4.757-1.139s-3.33 0.411-4.757 1.139l-1.661-2.878c-0.152-0.264-0.49-0.354-0.754-0.202s-0.354 0.49-0.202 0.754l1.662 2.879c-1.228 0.8-2.278 1.85-3.078 3.078l-2.879-1.662c-0.264-0.152-0.601-0.062-0.754 0.202s-0.062 0.601 0.202 0.754l2.878 1.661c-0.728 1.428-1.139 3.044-1.139 4.757 0 5.789 4.693 10.483 10.483 10.483s10.483-4.693 10.483-10.483c0-1.713-0.411-3.33-1.139-4.757l2.878-1.661c0.264-0.152 0.354-0.49 0.202-0.754z"></path>
<path fill="#c7cfe2" d="M24.828 28.414h-17.655v-2.207c0-0.609 0.494-1.103 1.103-1.103h15.448c0.609 0 1.103 0.494 1.103 1.103v2.207z"></path>
<path fill="#ff6464" d="M23.724 25.103h-15.448v-7.172c0-4.266 3.458-7.724 7.724-7.724v0c4.266 0 7.724 3.458 7.724 7.724v7.172z"></path>
<path fill="#afb9d2" d="M25.379 30.069h-18.759c-0.305 0-0.552-0.247-0.552-0.552v-0.552c0-0.305 0.247-0.552 0.552-0.552h18.759c0.305 0 0.552 0.247 0.552 0.552v0.552c0 0.305-0.247 0.552-0.552 0.552z"></path>
<path fill="#afb9d2" d="M13.793 25.103h-5.517c-0.609 0-1.103 0.494-1.103 1.103v2.207h5.517v-2.207c-0-0.609 0.494-1.103 1.103-1.103z"></path>
<path fill="#959cb3" d="M12.138 29.517v-0.552c0-0.305 0.247-0.552 0.552-0.552h-6.069c-0.305 0-0.552 0.247-0.552 0.552v0.552c0 0.305 0.247 0.552 0.552 0.552h6.069c-0.305-0-0.552-0.247-0.552-0.552z"></path>
<path fill="#d2555a" d="M17.808 10.428c-0.581-0.139-1.184-0.221-1.808-0.221-4.266 0-7.724 3.458-7.724 7.724v7.172h5.517v-7.172c0-3.642 1.713-6.688 4.015-7.503z"></path>
<path fill="#ff937c" d="M18.207 17.931c0-1.219-0.988-2.207-2.207-2.207s-2.207 0.988-2.207 2.207c0 0.958 0.614 1.766 1.468 2.071l-0.364 5.102h2.207l-0.364-5.102c0.854-0.305 1.468-1.113 1.468-2.071z"></path>
<path fill="#ffb1b1" d="M32 17.931v0c0-0.305-0.247-0.552-0.552-0.552h-6.069c-0.305 0-0.552 0.247-0.552 0.552v0c0 0.305 0.247 0.552 0.552 0.552h6.069c0.305-0 0.552-0.247 0.552-0.552z"></path>
<path fill="#ffb1b1" d="M0 17.931v0c0 0.305 0.247 0.552 0.552 0.552h6.069c0.305 0 0.552-0.247 0.552-0.552v0c0-0.305-0.247-0.552-0.552-0.552h-6.069c-0.305 0-0.552 0.247-0.552 0.552z"></path>
<path fill="#ffb1b1" d="M16 1.931v0c-0.305 0-0.552 0.247-0.552 0.552v6.069c0 0.305 0.247 0.552 0.552 0.552v0c0.305 0 0.552-0.247 0.552-0.552v-6.069c0-0.305-0.247-0.552-0.552-0.552z"></path>
</svg>
