<!-- Generated by IcoMoon.io -->
<svg version="1.1" xmlns="http://www.w3.org/2000/svg" width="24" height="24" viewBox="0 0 24 24">
<title>thumbs_up_down</title>
<path d="M22.5 9.984c0.844 0 1.5 0.656 1.5 1.5v6.516c0 0.422-0.141 0.797-0.422 1.078l-4.969 4.922-0.797-0.797c-0.188-0.188-0.328-0.469-0.328-0.797 0.232-1.143 0.469-2.281 0.703-3.422h-5.203c-0.563 0-0.984-0.422-0.984-0.984v-1.266c0-0.188 0.047-0.328 0.094-0.516l2.297-5.297c0.234-0.516 0.75-0.938 1.359-0.938h6.75zM12 6v1.266c0 0.188-0.047 0.328-0.094 0.516l-2.297 5.297c-0.234 0.516-0.75 0.938-1.359 0.938h-6.75c-0.844 0-1.5-0.656-1.5-1.5v-6.516c0-0.422 0.141-0.797 0.422-1.078l4.969-4.922 0.797 0.797c0.188 0.188 0.328 0.469 0.328 0.797-0.232 1.143-0.469 2.281-0.703 3.422h5.203c0.563 0 0.984 0.422 0.984 0.984z"></path>
</svg>
