<!-- Generated by IcoMoon.io -->
<svg version="1.1" xmlns="http://www.w3.org/2000/svg" width="24" height="24" viewBox="0 0 24 24">
<title>timer_off</title>
<path d="M12 20.016c1.266 0 2.484-0.375 3.516-0.984l-9.563-9.563c-0.609 1.031-0.938 2.25-0.938 3.516 0 3.891 3.094 7.031 6.984 7.031zM3 3.984l17.766 17.766-1.266 1.266-2.531-2.531c-1.453 0.938-3.141 1.5-4.969 1.5-4.969 0-9-4.031-9-9 0-1.828 0.563-3.563 1.5-4.969l-2.766-2.766zM11.016 9.422v-1.406h1.969v3.422zM15 0.984v2.016h-6v-2.016h6zM19.031 4.547l1.406 1.406-1.406 1.453c1.219 1.547 1.969 3.469 1.969 5.578 0 1.828-0.563 3.563-1.5 4.969l-1.453-1.453c0.609-1.031 0.938-2.25 0.938-3.516 0-3.891-3.094-6.984-6.984-6.984-1.266 0-2.438 0.328-3.469 0.938l-1.5-1.453c1.406-0.938 3.141-1.5 4.969-1.5 2.109 0 4.078 0.75 5.625 1.969z"></path>
</svg>
