<!-- Generated by IcoMoon.io -->
<svg version="1.1" xmlns="http://www.w3.org/2000/svg" width="24" height="24" viewBox="0 0 24 24">
<title>timer_10</title>
<path d="M12.891 13.219v-2.531c0-1.086-0.107-1.881-0.469-2.484-0.25-0.499-0.713-0.703-1.406-0.703-0.281 0-0.609 0.047-0.844 0.141-0.908 0.545-1.078 1.593-1.078 3.094v2.484c0 0.609 0 1.125 0.094 1.547s0.281 0.703 0.422 0.984c0.262 0.524 0.664 0.75 1.406 0.75 0.723 0 1.154-0.245 1.406-0.75 0.141-0.281 0.281-0.563 0.375-0.984s0.094-0.938 0.094-1.547zM7.125 11.016c0-3.006 0.97-5.109 3.891-5.109 1.216 0 2.243 0.393 2.813 1.125 0.713 0.917 1.031 2.276 1.031 3.984v1.922c0 2.996-0.921 5.156-3.844 5.156-2.911 0-3.891-2.16-3.891-5.156v-1.922zM20.438 10.453c-0.765 0-1.406 0.313-1.406 1.078 0 0.682 0.366 0.728 0.891 0.938 0.234 0.094 0.563 0.188 0.891 0.234 0.516 0.094 0.891 0.234 1.313 0.375s0.75 0.375 1.031 0.563 0.469 0.469 0.609 0.75 0.234 0.563 0.234 0.984c0 1.449-0.942 2.064-2.063 2.438-0.422 0.141-0.891 0.188-1.406 0.188-1.685 0-2.975-0.675-3.469-1.828-0.141-0.328-0.234-0.656-0.234-1.031h1.922c0 0.998 0.8 1.406 1.781 1.406 0.876 0 1.547-0.276 1.547-1.078 0-0.636-0.399-0.788-0.891-0.984-0.597-0.239-1.636-0.426-2.25-0.656-0.375-0.141-0.656-0.328-0.938-0.516-0.518-0.345-0.891-0.871-0.891-1.688 0-1.292 0.955-2.1 1.969-2.438 0.422-0.141 0.844-0.188 1.359-0.188 1.919 0 3.516 0.897 3.516 2.766h-1.969c0-0.576-0.368-1.053-0.844-1.172-0.188-0.047-0.469-0.141-0.703-0.141zM0 7.734l4.734-1.734h0.281v12h-2.016v-9.609l-3 1.031v-1.688z"></path>
</svg>
