<!-- Generated by IcoMoon.io -->
<svg version="1.1" xmlns="http://www.w3.org/2000/svg" width="24" height="24" viewBox="0 0 24 24">
<title>timer_3</title>
<path d="M17.531 10.453c-0.747 0-1.453 0.355-1.453 1.078 0 0.641 0.436 0.737 0.938 0.938 0.234 0.094 0.516 0.188 0.844 0.234 0.516 0.094 0.938 0.234 1.359 0.375s0.75 0.375 1.031 0.563 0.469 0.469 0.609 0.75 0.234 0.563 0.234 0.984c0 1.449-0.942 2.064-2.063 2.438-0.422 0.141-0.938 0.188-1.453 0.188-1.659 0-2.935-0.692-3.422-1.828-0.141-0.328-0.234-0.656-0.234-1.031h1.875c0 0.957 0.869 1.406 1.828 1.406 0.876 0 1.547-0.276 1.547-1.078 0-0.636-0.399-0.788-0.891-0.984-0.234-0.094-0.609-0.188-0.984-0.281-0.882-0.176-1.638-0.483-2.25-0.891-0.494-0.329-0.844-0.912-0.844-1.688 0-1.292 0.955-2.1 1.969-2.438 0.422-0.141 0.844-0.188 1.359-0.188 1.919 0 3.516 0.897 3.516 2.766h-1.969c0-0.61-0.385-1.045-0.891-1.172-0.188-0.047-0.422-0.141-0.656-0.141zM10.078 11.859c1.159 0.435 1.969 1.195 1.969 2.719 0 1.2-0.415 2.046-1.125 2.578-0.658 0.564-1.615 0.938-2.813 0.938-2.197 0-3.938-1.183-3.938-3.375h2.016c0 0.539 0.194 1.072 0.516 1.313 0.345 0.258 0.822 0.469 1.406 0.469 1.269 0 1.969-0.66 1.969-1.922 0-1.342-0.8-1.922-2.156-1.922h-1.219v-1.547h1.172c0.961 0 1.646-0.388 1.922-1.078 0.094-0.234 0.094-0.469 0.094-0.75 0-1.167-0.584-1.781-1.781-1.781-0.878 0-1.394 0.35-1.688 0.938-0.094 0.188-0.141 0.422-0.141 0.703h-1.969c0-1.609 1.076-2.53 2.25-3 0.469-0.141 0.984-0.234 1.547-0.234 2.283 0 3.75 1.101 3.75 3.375 0 1.335-0.861 2.118-1.781 2.578z"></path>
</svg>
