<!-- Generated by IcoMoon.io -->
<svg version="1.1" xmlns="http://www.w3.org/2000/svg" width="32" height="32" viewBox="0 0 32 32">
<title>timer-painted</title>
<path fill="#000" d="M20 1.312v2.688h-8v-2.688h8z"></path>
<path fill="#d51f26" d="M14.688 18.688v-8h2.625v8h-2.625z"></path>
<path fill="#000" d="M16 26.688c5.188 0 9.312-4.188 9.312-9.375s-4.125-9.312-9.312-9.312c-5.187 0-9.312 4.125-9.312 9.312s4.125 9.375 9.312 9.375zM25.375 9.875c1.625 2.063 2.625 4.625 2.625 7.437 0 6.625-5.375 12-12 12s-12-5.375-12-12c0-6.625 5.375-12 12-12 2.812 0 5.437 1.063 7.5 2.688l1.875-1.937c0.688 0.563 1.312 1.188 1.875 1.875z"></path>
</svg>
