<!-- Generated by IcoMoon.io -->
<svg version="1.1" xmlns="http://www.w3.org/2000/svg" width="24" height="24" viewBox="0 0 24 24">
<title>tonality</title>
<path d="M19.734 14.016c0.094-0.328 0.141-0.703 0.188-1.031h-6.938v1.031h6.75zM18.234 17.016c0.234-0.328 0.516-0.703 0.703-1.031h-5.953v1.031h5.25zM12.984 19.922c1.031-0.141 2.016-0.469 2.906-0.938h-2.906v0.938zM12.984 9.984v1.031h6.938c-0.047-0.328-0.094-0.703-0.188-1.031h-6.75zM12.984 6.984v1.031h5.953c-0.188-0.328-0.469-0.703-0.703-1.031h-5.25zM12.984 4.078v0.938h2.906c-0.891-0.469-1.875-0.797-2.906-0.938zM11.016 19.922v-15.844c-3.938 0.469-7.031 3.844-7.031 7.922s3.094 7.453 7.031 7.922zM12 2.016c5.531 0 9.984 4.453 9.984 9.984s-4.453 9.984-9.984 9.984-9.984-4.453-9.984-9.984 4.453-9.984 9.984-9.984z"></path>
</svg>
