<!-- Generated by IcoMoon.io -->
<svg version="1.1" xmlns="http://www.w3.org/2000/svg" width="24" height="24" viewBox="0 0 24 24">
<title>track_changes</title>
<path d="M19.078 4.922c1.828 1.828 2.906 4.313 2.906 7.078 0 5.531-4.453 9.984-9.984 9.984s-9.984-4.453-9.984-9.984 4.453-9.984 9.984-9.984h0.984v8.25c0.609 0.328 1.031 0.984 1.031 1.734 0 1.078-0.938 2.016-2.016 2.016s-2.016-0.938-2.016-2.016c0-0.75 0.422-1.406 1.031-1.734v-2.109c-1.734 0.469-3 1.969-3 3.844 0 2.203 1.781 3.984 3.984 3.984s3.984-1.781 3.984-3.984c0-1.078-0.469-2.063-1.172-2.813l1.406-1.406c1.078 1.078 1.781 2.578 1.781 4.219 0 3.328-2.672 6-6 6s-6-2.672-6-6c0-2.953 2.156-5.438 5.016-5.906v-2.016c-3.938 0.469-7.031 3.844-7.031 7.922 0 4.406 3.609 8.016 8.016 8.016s8.016-3.609 8.016-8.016c0-2.203-0.891-4.219-2.344-5.672z"></path>
</svg>
