<!-- Generated by IcoMoon.io -->
<svg version="1.1" xmlns="http://www.w3.org/2000/svg" width="32" height="32" viewBox="0 0 32 32">
<title>transfer</title>
<path fill="#3a556a" d="M17.787 1.123h-16.046c-0.961 0-1.741 0.779-1.741 1.741v27.396c0 0.961 0.779 1.741 1.741 1.741h16.046c0.961 0 1.741-0.779 1.741-1.741v-27.396c0-0.961-0.779-1.741-1.741-1.741z"></path>
<path fill="#64798a" d="M17.787 0h-16.046c-0.961 0-1.741 0.779-1.741 1.741v27.396c0 0.961 0.779 1.741 1.741 1.741h16.046c0.961 0 1.741-0.779 1.741-1.741v-27.396c0-0.961-0.779-1.741-1.741-1.741z"></path>
<path fill="#ebf0f3" d="M1.741 26.266c-0.031 0-0.056-0.021-0.056-0.048v-23.242c0-0.026 0.025-0.048 0.056-0.048h16.046c0.031 0 0.056 0.022 0.056 0.048v23.242c0 0.026-0.025 0.048-0.056 0.048h-16.046z"></path>
<path fill="#3a556a" d="M9.764 30.2c-0.856 0-1.552-0.696-1.552-1.552s0.696-1.552 1.552-1.552c0.856 0 1.552 0.696 1.552 1.552s-0.696 1.552-1.552 1.552zM9.764 27.657c-0.546 0-0.991 0.445-0.991 0.991s0.445 0.991 0.991 0.991c0.546 0 0.991-0.445 0.991-0.991s-0.445-0.991-0.991-0.991z"></path>
<path fill="#3a556a" d="M12.376 1.853h-5.223c-0.134 0-0.243-0.109-0.243-0.243v-0.362c0-0.134 0.109-0.243 0.243-0.243h5.223c0.134 0 0.243 0.109 0.243 0.243v0.362c0 0.134-0.109 0.243-0.243 0.243z"></path>
<path fill="#3ea69b" d="M31.999 15.654l-23.918 4.599-2.34-12.173 23.918-4.598 2.34 12.173z"></path>
<path fill="#44c4a1" d="M8.594 18.234l-1.628-8.471c0.542-0.104 0.898-0.628 0.793-1.171l20.217-3.886c0.104 0.542 0.628 0.898 1.171 0.793l1.628 8.471c-0.542 0.104-0.898 0.628-0.793 1.171l-20.217 3.886c-0.104-0.542-0.628-0.898-1.171-0.793z"></path>
<path fill="#3ea69b" d="M18.072 7.713c1.811-0.348 3.637 1.229 4.078 3.522s-0.67 4.435-2.481 4.783c-1.811 0.348-3.637-1.229-4.078-3.522s0.67-4.435 2.481-4.783z"></path>
<path fill="#3ea69b" d="M28.92 10.080c0 0.418-0.338 0.756-0.756 0.756s-0.756-0.338-0.756-0.756c0-0.418 0.338-0.756 0.756-0.756s0.756 0.338 0.756 0.756z"></path>
<path fill="#3ea69b" d="M10.334 13.652c0 0.418-0.338 0.756-0.756 0.756s-0.756-0.338-0.756-0.756c0-0.418 0.338-0.756 0.756-0.756s0.756 0.338 0.756 0.756z"></path>
<path fill="#44c4a1" d="M19.336 15.245l-0.113-0.589c-0.752 0.067-1.47-0.099-2.154-0.498l0.454-0.815c0.527 0.306 1.037 0.45 1.531 0.434l-0.301-1.566c-0.636-0.028-1.118-0.134-1.446-0.316s-0.537-0.506-0.626-0.972c-0.089-0.465-0-0.877 0.268-1.236s0.661-0.601 1.178-0.728l-0.078-0.404 0.516-0.099 0.079 0.411c0.6-0.070 1.198 0.024 1.795 0.283l-0.382 0.843c-0.404-0.184-0.818-0.267-1.244-0.246l0.292 1.517 0.024-0.005c0.647 0.027 1.139 0.136 1.477 0.327s0.553 0.523 0.643 0.993c0.090 0.471-0.003 0.886-0.279 1.246s-0.686 0.606-1.23 0.739l0.112 0.581-0.516 0.099zM17.766 10.146c-0.114 0.147-0.153 0.311-0.119 0.491s0.116 0.312 0.244 0.396c0.127 0.085 0.352 0.146 0.672 0.185l-0.268-1.396c-0.238 0.068-0.414 0.176-0.528 0.324zM20.145 13.358c0.127-0.152 0.172-0.323 0.136-0.511s-0.124-0.326-0.263-0.414c-0.14-0.088-0.381-0.149-0.722-0.183l0.279 1.452c0.253-0.076 0.443-0.191 0.57-0.344z"></path>
<path fill="#64798a" d="M2.697 12.288l-0.152-0.579 2.995-0.668 0.152 0.579z"></path>
<path fill="#64798a" d="M2.697 14.604l-0.152-0.579 3.424-0.794 0.152 0.579z"></path>
<path fill="#64798a" d="M2.697 16.92l-0.152-0.579 3.768-0.957 0.152 0.579z"></path>
<path fill="#64798a" d="M2.697 19.235l-0.152-0.579 4.157-1.247 0.152 0.579z"></path>
<path fill="#e56353" d="M5.601 21.717h8.327v2.294h-8.327v-2.294z"></path>
<path fill="#fff" d="M7.696 22.402c-0.063 0-0.114 0.013-0.154 0.038s-0.060 0.064-0.060 0.116c0 0.052 0.020 0.091 0.060 0.118s0.125 0.057 0.256 0.088c0.131 0.032 0.229 0.076 0.295 0.133s0.099 0.141 0.099 0.252-0.042 0.201-0.126 0.271c-0.084 0.069-0.194 0.104-0.33 0.104-0.199 0-0.376-0.069-0.53-0.206l0.135-0.162c0.129 0.112 0.262 0.168 0.401 0.168 0.069 0 0.124-0.015 0.165-0.045s0.061-0.069 0.061-0.118c0-0.049-0.019-0.087-0.057-0.115s-0.104-0.052-0.198-0.075c-0.094-0.022-0.165-0.043-0.213-0.062s-0.092-0.043-0.13-0.074c-0.075-0.057-0.113-0.145-0.113-0.262s0.043-0.209 0.128-0.272c0.086-0.064 0.192-0.096 0.318-0.096 0.081 0 0.162 0.013 0.242 0.040s0.15 0.064 0.208 0.113l-0.115 0.162c-0.038-0.034-0.089-0.062-0.153-0.084s-0.128-0.033-0.19-0.033z"></path>
<path fill="#fff" d="M9.353 22.235v0.202h-0.68v0.337h0.61v0.191h-0.61v0.341h0.702v0.202h-0.917v-1.274h0.895z"></path>
<path fill="#fff" d="M10.606 22.235h0.215v1.274h-0.233l-0.722-0.93v0.93h-0.215v-1.274h0.215l0.74 0.951v-0.951z"></path>
<path fill="#fff" d="M12.138 22.401c0.123 0.111 0.184 0.266 0.184 0.464s-0.059 0.355-0.179 0.47c-0.119 0.116-0.301 0.173-0.547 0.173h-0.423v-1.274h0.437c0.228 0 0.404 0.056 0.527 0.167zM12.106 22.871c0-0.292-0.167-0.437-0.501-0.437h-0.215v0.873h0.239c0.154 0 0.272-0.037 0.354-0.11s0.123-0.182 0.123-0.325z"></path>
</svg>
