<!-- Generated by IcoMoon.io -->
<svg version="1.1" xmlns="http://www.w3.org/2000/svg" width="24" height="24" viewBox="0 0 24 24">
<title>transfer_within_a_station</title>
<path d="M5.766 8.906l-2.766 14.109h2.109l1.734-8.016 2.156 2.016v6h2.016v-7.547l-2.063-2.063 0.609-3c1.313 1.594 3.234 2.578 5.438 2.578v-1.969c-1.828 0-3.469-1.031-4.359-2.484l-0.938-1.594c-0.328-0.609-0.984-0.938-1.688-0.938-0.234 0-0.516 0.047-0.75 0.141l-5.25 2.156v4.688h1.969v-3.328l1.781-0.75zM9.516 5.484c-1.078 0-2.016-0.891-2.016-1.969s0.938-2.016 2.016-2.016 1.969 0.938 1.969 2.016-0.891 1.969-1.969 1.969zM19.5 19.734v-1.734l2.484 2.484-2.484 2.531v-1.781h-5.484v-1.5h5.484zM16.5 15.516h5.484v1.5h-5.484v1.734l-2.484-2.484 2.484-2.531v1.781z"></path>
</svg>
