<!-- Generated by IcoMoon.io -->
<svg version="1.1" xmlns="http://www.w3.org/2000/svg" width="24" height="24" viewBox="0 0 24 24">
<title>unarchive</title>
<path d="M5.109 5.016h13.781l-0.938-1.031h-12zM12 9.516l-5.484 5.484h3.469v2.016h4.031v-2.016h3.469zM20.531 5.203c0.281 0.328 0.469 0.844 0.469 1.313v12.469c0 1.078-0.938 2.016-2.016 2.016h-13.969c-1.125 0-2.016-0.938-2.016-2.016v-12.469c0-0.469 0.188-0.984 0.469-1.313l1.359-1.641c0.281-0.328 0.703-0.563 1.172-0.563h12c0.469 0 0.891 0.234 1.172 0.563z"></path>
</svg>
