<!-- Generated by IcoMoon.io -->
<svg version="1.1" xmlns="http://www.w3.org/2000/svg" width="24" height="24" viewBox="0 0 24 24">
<title>upload2</title>
<path d="M21.824 16.359c-0.6 0-1.092 0.491-1.092 1.092v3.275c0 0.6-0.491 1.092-1.092 1.092h-15.281c-0.6 0-1.092-0.491-1.092-1.092v-3.275c0-0.6-0.491-1.092-1.092-1.092s-1.092 0.491-1.092 1.092v3.275c0 1.808 1.467 3.275 3.275 3.275h15.281c1.808 0 3.275-1.467 3.275-3.275v-3.275c0-0.6-0.491-1.092-1.092-1.092z"></path>
<path d="M8.405 6.215l2.504-2.504v12.648c0 0.6 0.491 1.092 1.092 1.092s1.092-0.491 1.092-1.092v-12.648l2.504 2.504c0.211 0.211 0.491 0.321 0.771 0.321s0.559-0.109 0.771-0.321c0.423-0.423 0.423-1.119 0-1.542l-4.366-4.366c-0.014-0.014-0.027-0.027-0.041-0.041 0 0 0 0-0.007 0 0 0-0.007-0.007-0.007-0.007s-0.007 0-0.007-0.007c0 0 0 0-0.007 0 0 0-0.007-0.007-0.007-0.007s0 0 0 0c-0.082-0.075-0.177-0.13-0.28-0.171 0 0 0 0 0 0s-0.007 0-0.007 0c0 0 0 0-0.007 0 0 0 0 0-0.007 0-0.102-0.041-0.212-0.068-0.327-0.075 0 0 0 0 0 0s-0.007 0-0.007 0c0 0-0.007 0-0.007 0s-0.007 0-0.007 0c0 0-0.007 0-0.007 0s0 0-0.007 0c-0.027 0-0.055 0-0.082 0 0 0 0 0-0.007 0 0 0-0.007 0-0.007 0s-0.007 0-0.007 0c0 0-0.007 0-0.007 0s-0.007 0-0.007 0c0 0 0 0 0 0-0.109 0.007-0.218 0.034-0.321 0.075 0 0 0 0 0 0s-0.007 0-0.007 0c0 0-0.007 0-0.007 0s0 0 0 0c-0.109 0.041-0.205 0.102-0.3 0.184 0 0 0 0 0 0s-0.007 0.007-0.007 0.007c0 0 0 0 0 0s-0.007 0.007-0.007 0.007c0 0-0.007 0.007-0.007 0.007s0 0 0 0c-0.014 0.007-0.020 0.020-0.034 0.034l-4.366 4.366c-0.423 0.423-0.423 1.119 0 1.542s1.119 0.423 1.542-0.007z"></path>
</svg>
