<!-- Generated by IcoMoon.io -->
<svg version="1.1" xmlns="http://www.w3.org/2000/svg" width="24" height="24" viewBox="0 0 24 24">
<title>usb</title>
<path d="M15 6.984h3.984v4.031h-0.984v1.969c0 1.125-0.891 2.016-2.016 2.016h-3v3.047c0.703 0.375 1.219 1.125 1.219 1.969 0 1.219-0.984 2.203-2.203 2.203s-2.203-0.984-2.203-2.203c0-0.844 0.516-1.594 1.219-1.969v-3.047h-3c-1.125 0-2.016-0.891-2.016-2.016v-2.063c-0.703-0.375-1.219-1.078-1.219-1.922 0-1.219 0.984-2.203 2.203-2.203s2.203 0.984 2.203 2.203c0 0.844-0.469 1.547-1.172 1.922v2.063h3v-7.969h-2.016l3-4.031 3 4.031h-2.016v7.969h3v-1.969h-0.984v-4.031z"></path>
</svg>
