<!-- Generated by IcoMoon.io -->
<svg version="1.1" xmlns="http://www.w3.org/2000/svg" width="24" height="24" viewBox="0 0 24 24">
<title>videogame_asset</title>
<path d="M19.5 12c0.844 0 1.5-0.656 1.5-1.5s-0.656-1.5-1.5-1.5-1.5 0.656-1.5 1.5 0.656 1.5 1.5 1.5zM15.516 15c0.844 0 1.5-0.656 1.5-1.5s-0.656-1.5-1.5-1.5-1.5 0.656-1.5 1.5 0.656 1.5 1.5 1.5zM11.016 12.984v-1.969h-3v-3h-2.016v3h-3v1.969h3v3h2.016v-3h3zM21 6c1.078 0 2.016 0.938 2.016 2.016v7.969c0 1.078-0.938 2.016-2.016 2.016h-18c-1.078 0-2.016-0.938-2.016-2.016v-7.969c0-1.078 0.938-2.016 2.016-2.016h18z"></path>
</svg>
