<!-- Generated by IcoMoon.io -->
<svg version="1.1" xmlns="http://www.w3.org/2000/svg" width="24" height="24" viewBox="0 0 24 24">
<title>view_week</title>
<path d="M12.984 5.016c0.563 0 1.031 0.422 1.031 0.984v12c0 0.563-0.469 0.984-1.031 0.984h-3c-0.563 0-0.984-0.422-0.984-0.984v-12c0-0.563 0.422-0.984 0.984-0.984h3zM20.016 5.016c0.563 0 0.984 0.422 0.984 0.984v12c0 0.563-0.422 0.984-0.984 0.984h-3c-0.563 0-1.031-0.422-1.031-0.984v-12c0-0.563 0.469-0.984 1.031-0.984h3zM6 5.016c0.563 0 0.984 0.422 0.984 0.984v12c0 0.563-0.422 0.984-0.984 0.984h-3c-0.563 0-0.984-0.422-0.984-0.984v-12c0-0.563 0.422-0.984 0.984-0.984h3z"></path>
</svg>
