<!-- Generated by IcoMoon.io -->
<svg version="1.1" xmlns="http://www.w3.org/2000/svg" width="24" height="24" viewBox="0 0 24 24">
<title>voicemail</title>
<path d="M18.516 15c1.922 0 3.469-1.594 3.469-3.516s-1.547-3.469-3.469-3.469-3.516 1.547-3.516 3.469 1.594 3.516 3.516 3.516zM5.484 15c1.922 0 3.516-1.594 3.516-3.516s-1.594-3.469-3.516-3.469-3.469 1.547-3.469 3.469 1.547 3.516 3.469 3.516zM18.516 6c3.047 0 5.484 2.438 5.484 5.484s-2.438 5.531-5.484 5.531h-13.031c-3.047 0-5.484-2.484-5.484-5.531s2.438-5.484 5.484-5.484 5.531 2.438 5.531 5.484c0 1.313-0.469 2.578-1.266 3.516h4.5c-0.797-0.938-1.266-2.203-1.266-3.516 0-3.047 2.484-5.484 5.531-5.484z"></path>
</svg>
