<!-- Generated by IcoMoon.io -->
<svg version="1.1" xmlns="http://www.w3.org/2000/svg" width="32" height="32" viewBox="0 0 32 32">
<title>vpn_lock-painted</title>
<path fill="#d51f26" d="M29.312 5.312c0.751 0 1.375 0.625 1.375 1.375v5.312c0 0.751-0.625 1.312-1.375 1.312h-6.625c-0.751 0-1.375-0.563-1.375-1.312v-5.312c0-0.751 0.625-1.375 1.375-1.375v-0.625c0-1.812 1.5-3.375 3.312-3.375s3.312 1.563 3.312 3.375v0.625zM28.251 5.312v-0.625c0-1.251-1-2.312-2.251-2.312s-2.251 1.063-2.251 2.312v0.625h4.5z"></path>
<path fill="#000" d="M13.312 27.937v-2.625c-1.437 0-2.625-1.188-2.625-2.625v-1.375l-6.437-6.375c-0.188 0.751-0.251 1.563-0.251 2.375 0 5.437 4.063 10 9.312 10.625zM25.251 16h2.688c0.063 0.437 0.063 0.875 0.063 1.312 0 7.375-5.937 13.375-13.312 13.375s-13.375-6-13.375-13.375c0-7.375 6-13.312 13.375-13.312 1.375 0 2.751 0.251 4 0.625v3.375c0 1.437-1.251 2.688-2.688 2.688h-2.688v2.625c0 0.751-0.563 1.375-1.312 1.375h-2.688v2.625h8c0.751 0 1.375 0.625 1.375 1.375v4h1.312c1.188 0 2.188 0.751 2.563 1.812 1.751-1.875 2.751-4.437 2.751-7.188 0-0.437 0-0.875-0.063-1.312z"></path>
</svg>
