<!-- Generated by IcoMoon.io -->
<svg version="1.1" xmlns="http://www.w3.org/2000/svg" width="24" height="24" viewBox="0 0 24 24">
<title>vpn_lock</title>
<path d="M9.984 20.953v-1.969c-1.078 0-1.969-0.891-1.969-1.969v-1.031l-4.828-4.781c-0.141 0.563-0.188 1.172-0.188 1.781 0 4.078 3.047 7.5 6.984 7.969zM18.938 12h2.016c0.047 0.328 0.047 0.656 0.047 0.984 0 5.531-4.453 10.031-9.984 10.031s-10.031-4.5-10.031-10.031 4.5-9.984 10.031-9.984c1.031 0 2.063 0.188 3 0.469v2.531c0 1.078-0.938 2.016-2.016 2.016h-2.016v1.969c0 0.563-0.422 1.031-0.984 1.031h-2.016v1.969h6c0.563 0 1.031 0.469 1.031 1.031v3h0.984c0.891 0 1.641 0.563 1.922 1.359 1.313-1.406 2.063-3.328 2.063-5.391 0-0.328 0-0.656-0.047-0.984zM21.188 3.984v-0.469c0-0.938-0.75-1.734-1.688-1.734s-1.688 0.797-1.688 1.734v0.469h3.375zM21.984 3.984c0.563 0 1.031 0.469 1.031 1.031v3.984c0 0.563-0.469 0.984-1.031 0.984h-4.969c-0.563 0-1.031-0.422-1.031-0.984v-3.984c0-0.563 0.469-1.031 1.031-1.031v-0.469c0-1.359 1.125-2.531 2.484-2.531s2.484 1.172 2.484 2.531v0.469z"></path>
</svg>
