<!-- Generated by IcoMoon.io -->
<svg version="1.1" xmlns="http://www.w3.org/2000/svg" width="20" height="20" viewBox="0 0 20 20">
<title>wallet2</title>
<path d="M17.5 4.92h-15.625v-0.625l13.75-1.1v1.1h1.875v-1.875c0-1.375-1.114-2.34-2.474-2.146l-12.551 1.792c-1.361 0.195-2.475 1.479-2.475 2.854v12.5c0 1.38 1.119 2.5 2.5 2.5h15c1.38 0 2.5-1.12 2.5-2.5v-10c0-1.38-1.12-2.5-2.5-2.5zM15.625 13.677c-1.035 0-1.875-0.84-1.875-1.875s0.84-1.875 1.875-1.875 1.875 0.84 1.875 1.875-0.84 1.875-1.875 1.875z"></path>
</svg>
