<!-- Generated by IcoMoon.io -->
<svg version="1.1" xmlns="http://www.w3.org/2000/svg" width="24" height="24" viewBox="0 0 24 24">
<title>wallpaper</title>
<path d="M3.984 12.984v7.031h7.031v1.969h-7.031c-1.078 0-1.969-0.891-1.969-1.969v-7.031h1.969zM20.016 20.016v-7.031h1.969v7.031c0 1.078-0.891 1.969-1.969 1.969h-7.031v-1.969h7.031zM20.016 2.016c1.078 0 1.969 0.891 1.969 1.969v7.031h-1.969v-7.031h-7.031v-1.969h7.031zM17.016 8.484c0 0.844-0.656 1.5-1.5 1.5s-1.5-0.656-1.5-1.5 0.656-1.5 1.5-1.5 1.5 0.656 1.5 1.5zM9.984 12.984l3 3.703 2.016-2.672 3 3.984h-12zM3.984 3.984v7.031h-1.969v-7.031c0-1.078 0.891-1.969 1.969-1.969h7.031v1.969h-7.031z"></path>
</svg>
