<!-- Generated by IcoMoon.io -->
<svg version="1.1" xmlns="http://www.w3.org/2000/svg" width="32" height="32" viewBox="0 0 32 32">
<title>wallet-painted</title>
<path fill="#d51f26" d="M6.418 8.417l13.457-6.875 2.333 0.25 1.584 1.666-0.334 0.792-4.5 2.583-3.333 1.792-2.5 0.75-5.542-0.25h-0.833l-0.333-0.708z"></path>
<path fill="#000" d="M27.332 8.677h-22.666c-2.573 0-4.667 2.093-4.667 4.667v13.332c0 2.573 2.093 4.667 4.667 4.667h22.666c2.573 0 4.667-2.093 4.667-4.667v-13.332c0-2.573-2.093-4.667-4.667-4.667zM30.666 26.676c0 1.837-1.495 3.333-3.333 3.333h-22.666c-1.839 0-3.333-1.496-3.333-3.333v-13.332c0-1.837 1.495-3.333 3.333-3.333h22.666c1.839 0 3.333 1.496 3.333 3.333v13.332z"></path>
<path fill="#d51f26" d="M25.999 18.011c-1.103 0-2 0.897-2 2s0.897 2 2 2c1.103 0 2-0.897 2-2s-0.897-2-2-2zM25.999 20.677c-0.367 0-0.667-0.299-0.667-0.667s0.3-0.667 0.667-0.667c0.367 0 0.667 0.299 0.667 0.667s-0.3 0.667-0.667 0.667z"></path>
<path fill="#000" d="M31.332 15.344h-5.333c-2.573 0-4.667 2.093-4.667 4.667s2.093 4.667 4.667 4.667h5.333c0.368 0 0.667-0.299 0.667-0.667v-8c0-0.368-0.299-0.667-0.667-0.667zM30.666 23.344h-4.667c-1.839 0-3.333-1.496-3.333-3.333s1.495-3.333 3.333-3.333v0h4.667v6.667z"></path>
<path fill="#000" d="M27.262 9.045l-2.823-5.645c-0.569-1.139-1.552-1.977-2.765-2.361s-2.499-0.263-3.621 0.34l-13.702 7.379c-0.324 0.173-0.445 0.579-0.271 0.903s0.58 0.445 0.903 0.271l13.704-7.376c0.8-0.432 1.721-0.519 2.585-0.244 0.867 0.273 1.568 0.873 1.975 1.687l2.823 5.645c0.117 0.233 0.352 0.368 0.596 0.368 0.1 0 0.201-0.023 0.297-0.071 0.329-0.165 0.463-0.565 0.299-0.895z"></path>
<path fill="#000" d="M24.587 3.697c-0.176-0.325-0.581-0.445-0.904-0.272l-9.904 5.333c-0.324 0.175-0.445 0.579-0.271 0.903 0.12 0.224 0.349 0.351 0.587 0.351 0.107 0 0.216-0.025 0.317-0.079l9.904-5.333c0.324-0.175 0.445-0.579 0.271-0.903z"></path>
<path fill="#000" d="M12 4.678h-4.667c-4.043 0-7.333 3.289-7.333 7.333v1.333c0 0.368 0.299 0.667 0.667 0.667s0.667-0.299 0.667-0.667v-1.333c0-3.308 2.692-6 6-6h4.667c0.368 0 0.667-0.299 0.667-0.667s-0.299-0.667-0.667-0.667z"></path>
<path fill="#000" d="M24.666 4.678c-0.368 0-0.667 0.299-0.667 0.667s0.299 0.667 0.667 0.667c3.308 0 6 2.692 6 6v1.333c0 0.368 0.299 0.667 0.667 0.667s0.667-0.299 0.667-0.667v-1.333c0-4.044-3.291-7.333-7.333-7.333z"></path>
</svg>
