<!-- Generated by IcoMoon.io -->
<svg version="1.1" xmlns="http://www.w3.org/2000/svg" width="32" height="32" viewBox="0 0 32 32">
<title>warning</title>
<path fill="#c42014" d="M32 16c0 8.837-7.163 16-16 16s-16-7.163-16-16c0-8.837 7.163-16 16-16s16 7.163 16 16z"></path>
<path fill="#840202" d="M0 16c0 8.818 7.129 15.947 16 15.947 8.818 0 15.947-7.129 15.947-15.947z"></path>
<path fill="#ebfff6" d="M17.69 20.224h-3.38l-1.267-15.842h5.914z"></path>
<path fill="#d6eae0" d="M19.010 4.277l-1.32 15.947h-3.274z"></path>
<path fill="#ebfff6" d="M18.814 24.826l-2.8 2.801-2.801-2.8 2.8-2.801 2.801 2.8z"></path>
<path fill="#d6eae0" d="M16 22.073l2.799 2.799-2.799 2.746z"></path>
</svg>
