<!-- Generated by IcoMoon.io -->
<svg version="1.1" xmlns="http://www.w3.org/2000/svg" width="24" height="24" viewBox="0 0 24 24">
<title>wb_incandescent</title>
<path d="M17.25 18.141l1.406-1.359 1.781 1.781-1.406 1.406zM20.016 10.5h3v2.016h-3v-2.016zM15 6.328c1.781 1.031 3 2.953 3 5.156 0 3.328-2.672 6-6 6s-6-2.672-6-6c0-2.203 1.219-4.125 3-5.156v-4.828h6v4.828zM3.984 10.5v2.016h-3v-2.016h3zM11.016 22.453v-2.953h1.969v2.953h-1.969zM3.563 18.563l1.781-1.828 1.406 1.406-1.781 1.828z"></path>
</svg>
