<!-- Generated by IcoMoon.io -->
<svg version="1.1" xmlns="http://www.w3.org/2000/svg" width="24" height="24" viewBox="0 0 24 24">
<title>wc</title>
<path d="M16.5 6c-1.125 0-2.016-0.891-2.016-2.016s0.891-1.969 2.016-1.969 2.016 0.844 2.016 1.969-0.891 2.016-2.016 2.016zM7.5 6c-1.125 0-2.016-0.891-2.016-2.016s0.891-1.969 2.016-1.969 2.016 0.844 2.016 1.969-0.891 2.016-2.016 2.016zM18 21.984h-3v-6h-3l2.531-7.594c0.281-0.797 1.078-1.406 1.922-1.406h0.094c0.844 0 1.641 0.609 1.922 1.406l2.531 7.594h-3v6zM5.484 21.984v-7.5h-1.5v-5.484c0-1.078 0.938-2.016 2.016-2.016h3c1.078 0 2.016 0.938 2.016 2.016v5.484h-1.5v7.5h-4.031z"></path>
</svg>
