<!-- Generated by IcoMoon.io -->
<svg version="1.1" xmlns="http://www.w3.org/2000/svg" width="24" height="24" viewBox="0 0 24 24">
<title>weekend</title>
<path d="M18 5.016c1.078 0 2.016 0.891 2.016 1.969v2.156c-1.172 0.422-2.016 1.5-2.016 2.813v2.063h-12v-2.063c0-1.313-0.844-2.391-2.016-2.813v-2.156c0-1.078 0.938-1.969 2.016-1.969h12zM21 9.984c1.078 0 2.016 0.938 2.016 2.016v5.016c0 1.078-0.938 1.969-2.016 1.969h-18c-1.078 0-2.016-0.891-2.016-1.969v-5.016c0-1.078 0.938-2.016 2.016-2.016s2.016 0.938 2.016 2.016v3h13.969v-3c0-1.078 0.938-2.016 2.016-2.016z"></path>
</svg>
