<!-- Generated by IcoMoon.io -->
<svg version="1.1" xmlns="http://www.w3.org/2000/svg" width="24" height="24" viewBox="0 0 24 24">
<title>wifi_lock</title>
<path d="M21.984 15.984v-1.5c0-0.844-0.656-1.5-1.5-1.5s-1.5 0.656-1.5 1.5v1.5h3zM23.016 15.984c0.563 0 0.984 0.469 0.984 1.031v3.984c0 0.563-0.422 0.984-0.984 0.984h-5.016c-0.563 0-0.984-0.422-0.984-0.984v-3.984c0-0.563 0.422-1.031 0.984-1.031v-1.5c0-1.359 1.125-2.484 2.484-2.484s2.531 1.125 2.531 2.484v1.5zM20.484 9.516c-2.766 0-4.969 2.203-4.969 4.969v2.859l-3.516 4.641-12-15.984c3.328-2.531 7.5-3.984 12-3.984s8.672 1.453 12 3.984l-2.672 3.563c-0.281-0.047-0.563-0.047-0.844-0.047z"></path>
</svg>
