<!-- Generated by IcoMoon.io -->
<svg version="1.1" xmlns="http://www.w3.org/2000/svg" width="24" height="24" viewBox="0 0 24 24">
<title>wifi_tethering</title>
<path d="M12 3c5.531 0 9.984 4.453 9.984 9.984 0 3.703-1.969 6.938-4.969 8.672l-1.031-1.734c2.391-1.406 4.031-3.984 4.031-6.938 0-4.406-3.609-7.969-8.016-7.969s-8.016 3.563-8.016 7.969c0 2.953 1.594 5.531 3.984 6.938l-0.984 1.734c-3-1.734-4.969-4.969-4.969-8.672 0-5.531 4.453-9.984 9.984-9.984zM18 12.984c0 2.203-1.219 4.172-3 5.203l-0.984-1.734c1.172-0.703 1.969-1.969 1.969-3.469 0-2.203-1.781-3.984-3.984-3.984s-3.984 1.781-3.984 3.984c0 1.5 0.797 2.766 1.969 3.469l-0.984 1.734c-1.781-1.031-3-3-3-5.203 0-3.328 2.672-6 6-6s6 2.672 6 6zM12 11.016c1.078 0 2.016 0.891 2.016 1.969s-0.938 2.016-2.016 2.016-2.016-0.938-2.016-2.016 0.938-1.969 2.016-1.969z"></path>
</svg>
