<!-- Generated by IcoMoon.io -->
<svg version="1.1" xmlns="http://www.w3.org/2000/svg" width="24" height="24" viewBox="0 0 24 24">
<title>youtube_searched_for</title>
<path d="M17.016 14.016l4.969 4.969-1.453 1.5-5.016-5.016v-0.75l-0.281-0.281c-1.125 0.984-2.625 1.547-4.219 1.547-1.219 0-2.344-0.328-3.328-0.891l1.5-1.453c0.563 0.234 1.172 0.375 1.828 0.375 2.484 0 4.5-2.016 4.5-4.5s-2.016-4.5-4.5-4.5-4.5 2.016-4.5 4.5h3.469l-4.125 3.984-3.844-3.984h2.484c0-3.516 2.906-6.516 6.516-6.516s6.516 2.906 6.516 6.516c0 1.641-0.609 3.094-1.594 4.219l0.281 0.281h0.797z"></path>
</svg>
